<?xml version="1.0" encoding="UTF-8" standalone="no"?>
<svg
   xmlns:dc="http://purl.org/dc/elements/1.1/"
   xmlns:cc="http://creativecommons.org/ns#"
   xmlns:rdf="http://www.w3.org/1999/02/22-rdf-syntax-ns#"
   xmlns:svg="http://www.w3.org/2000/svg"
   xmlns="http://www.w3.org/2000/svg"
   xmlns:sodipodi="http://sodipodi.sourceforge.net/DTD/sodipodi-0.dtd"
   xmlns:inkscape="http://www.inkscape.org/namespaces/inkscape"
   width="841mm"
   height="594mm"
   version="1.1"
   id="svg1295"
   sodipodi:docname="drw_head_neutral.svg"
   inkscape:version="0.92.3 (2405546, 2018-03-11)">
  <metadata
     id="metadata1299">
    <rdf:RDF>
      <cc:Work
         rdf:about="">
        <dc:format>image/svg+xml</dc:format>
        <dc:type
           rdf:resource="http://purl.org/dc/dcmitype/StillImage" />
        <dc:title></dc:title>
      </cc:Work>
    </rdf:RDF>
  </metadata>
  <sodipodi:namedview
     pagecolor="#ffffff"
     bordercolor="#666666"
     borderopacity="1"
     objecttolerance="10"
     gridtolerance="10"
     guidetolerance="10"
     inkscape:pageopacity="0"
     inkscape:pageshadow="2"
     inkscape:window-width="1920"
     inkscape:window-height="1137"
     id="namedview1297"
     showgrid="false"
     units="mm"
     inkscape:zoom="0.21603185"
     inkscape:cx="72.439915"
     inkscape:cy="1355.0306"
     inkscape:window-x="-8"
     inkscape:window-y="-8"
     inkscape:window-maximized="1"
     inkscape:current-layer="g967" />
  <desc
     id="desc815">Z:\Casque-COVID\Créo\V2-laser\drw_head_neutral.dxf - scale = 1.000000, origin = (0.000000, 0.000000), method = manual</desc>
  <defs
     id="defs829">
    <marker
       id="DistanceX"
       orient="auto"
       refX="0"
       refY="0"
       style="overflow:visible">
      <path
         d="M 3,-3 -3,3 M 0,-5 V 5"
         style="stroke:#000000;stroke-width:0.5"
         id="path817"
         inkscape:connector-curvature="0" />
    </marker>
    <pattern
       height="8"
       id="Hatch"
       patternUnits="userSpaceOnUse"
       width="8"
       x="0"
       y="0">
      <path
         d="M8 4 l-4,4"
         linecap="square"
         stroke="#000000"
         stroke-width="0.25"
         id="path820" />
      <path
         d="M6 2 l-4,4"
         linecap="square"
         stroke="#000000"
         stroke-width="0.25"
         id="path822" />
      <path
         d="M4 0 l-4,4"
         linecap="square"
         stroke="#000000"
         stroke-width="0.25"
         id="path824" />
    </pattern>
    <symbol
       id="*MODEL_SPACE" />
    <symbol
       id="*PAPER_SPACE" />
  </defs>
  <g
     inkscape:groupmode="layer"
     inkscape:label="0"
     id="g967"
     transform="translate(0,1122.5197)">
    <path
       d="M 384.92775,-120.47145 V 15.591541"
       style="fill:none;stroke:#000000;stroke-linecap:round"
       id="path839"
       inkscape:connector-curvature="0" />
    <path
       d="m 978.31358,-124.25098 v 28.346458"
       style="fill:none;stroke:#000000;stroke-linecap:round"
       id="path841"
       inkscape:connector-curvature="0" />
    <path
       d="M 978.31358,19.371068 V -8.975388"
       style="fill:none;stroke:#000000;stroke-linecap:round"
       id="path843"
       inkscape:connector-curvature="0" />
    <path
       d="m 989.65216,-124.25098 v 28.346458"
       style="fill:none;stroke:#000000;stroke-linecap:round"
       id="path845"
       inkscape:connector-curvature="0" />
    <path
       d="M 989.65216,19.371068 V -8.975388"
       style="fill:none;stroke:#000000;stroke-linecap:round"
       id="path847"
       inkscape:connector-curvature="0" />
    <path
       d="M 1246.66,-12.754916 V -92.124995"
       style="fill:none;stroke:#000000;stroke-linecap:round"
       id="path849"
       inkscape:connector-curvature="0" />
    <path
       d="m 1254.2191,-92.124995 v 79.370079"
       style="fill:none;stroke:#000000;stroke-linecap:round"
       id="path851"
       inkscape:connector-curvature="0" />
    <path
       d="M 1360.0459,-12.754916 V -92.124995"
       style="fill:none;stroke:#000000;stroke-linecap:round"
       id="path853"
       inkscape:connector-curvature="0" />
    <path
       d="m 1367.6049,-92.124995 v 79.370079"
       style="fill:none;stroke:#000000;stroke-linecap:round"
       id="path855"
       inkscape:connector-curvature="0" />
    <path
       d="M 993.43169,23.150596 H 2815.164"
       style="fill:none;stroke:#000000;stroke-linecap:round"
       id="path857"
       inkscape:connector-curvature="0" />
    <path
       d="m 2764.1404,-10.865152 h -64.252"
       style="fill:none;stroke:#000000;stroke-linecap:round"
       id="path859"
       inkscape:connector-curvature="0" />
    <path
       d="m 2159.416,-10.865152 h -3.7796"
       style="fill:none;stroke:#000000;stroke-linecap:round"
       id="path861"
       inkscape:connector-curvature="0" />
    <path
       d="m 2046.0301,-10.865152 h -3.7795"
       style="fill:none;stroke:#000000;stroke-linecap:round"
       id="path863"
       inkscape:connector-curvature="0" />
    <path
       d="m 1365.7152,-10.865152 h -3.7796"
       style="fill:none;stroke:#000000;stroke-linecap:round"
       id="path865"
       inkscape:connector-curvature="0" />
    <path
       d="m 1252.3293,-10.865152 h -3.7795"
       style="fill:none;stroke:#000000;stroke-linecap:round"
       id="path867"
       inkscape:connector-curvature="0" />
    <path
       d="m 2696.1089,-48.660428 h -86.9292"
       style="fill:none;stroke:#000000;stroke-linecap:round"
       id="path869"
       inkscape:connector-curvature="0" />
    <path
       d="m 2609.1797,-56.219483 h 86.9292"
       style="fill:none;stroke:#000000;stroke-linecap:round"
       id="path871"
       inkscape:connector-curvature="0" />
    <path
       d="m 1248.5498,-94.014758 h 3.7795"
       style="fill:none;stroke:#000000;stroke-linecap:round"
       id="path873"
       inkscape:connector-curvature="0" />
    <path
       d="m 1361.9356,-94.014758 h 3.7796"
       style="fill:none;stroke:#000000;stroke-linecap:round"
       id="path875"
       inkscape:connector-curvature="0" />
    <path
       d="m 2042.2506,-94.014758 h 3.7795"
       style="fill:none;stroke:#000000;stroke-linecap:round"
       id="path877"
       inkscape:connector-curvature="0" />
    <path
       d="m 2155.6364,-94.014758 h 3.7796"
       style="fill:none;stroke:#000000;stroke-linecap:round"
       id="path879"
       inkscape:connector-curvature="0" />
    <path
       d="m 2699.8884,-94.014758 h 64.252"
       style="fill:none;stroke:#000000;stroke-linecap:round"
       id="path881"
       inkscape:connector-curvature="0" />
    <path
       d="M 2815.164,-128.03051 H 993.43169"
       style="fill:none;stroke:#000000;stroke-linecap:round"
       id="path883"
       inkscape:connector-curvature="0" />
    <path
       d="M 2040.3608,-12.754916 V -92.124995"
       style="fill:none;stroke:#000000;stroke-linecap:round"
       id="path885"
       inkscape:connector-curvature="0" />
    <path
       d="m 2047.9199,-92.124995 v 79.370079"
       style="fill:none;stroke:#000000;stroke-linecap:round"
       id="path887"
       inkscape:connector-curvature="0" />
    <path
       d="M 2153.7467,-12.754916 V -92.124995"
       style="fill:none;stroke:#000000;stroke-linecap:round"
       id="path889"
       inkscape:connector-curvature="0" />
    <path
       d="m 2161.3057,-92.124995 v 79.370079"
       style="fill:none;stroke:#000000;stroke-linecap:round"
       id="path891"
       inkscape:connector-curvature="0" />
    <path
       d="m 2607.29,-50.550191 v -3.779528"
       style="fill:none;stroke:#000000;stroke-linecap:round"
       id="path893"
       inkscape:connector-curvature="0" />
    <path
       d="M 2697.9986,-12.754916 V -46.770664"
       style="fill:none;stroke:#000000;stroke-linecap:round"
       id="path895"
       inkscape:connector-curvature="0" />
    <path
       d="M 2697.9986,-58.109246 V -92.124995"
       style="fill:none;stroke:#000000;stroke-linecap:round"
       id="path897"
       inkscape:connector-curvature="0" />
    <path
       d="m 2766.0301,-92.124995 v 79.370079"
       style="fill:none;stroke:#000000;stroke-linecap:round"
       id="path899"
       inkscape:connector-curvature="0" />
    <path
       d="M 2822.723,15.591541 V -120.47145"
       style="fill:none;stroke:#000000;stroke-linecap:round"
       id="path901"
       inkscape:connector-curvature="0" />
    <path
       d="m 384.92775,15.591541 a 7.559055,7.559055 0 0 0 7.55906,7.559055"
       style="fill:none;stroke:#000000;stroke-linecap:round"
       id="path903"
       inkscape:connector-curvature="0" />
    <path
       d="m 974.53405,23.150596 a 3.779528,3.779528 0 0 0 3.77953,-3.779528"
       style="fill:none;stroke:#000000;stroke-linecap:round"
       id="path905"
       inkscape:connector-curvature="0" />
    <path
       d="m 989.65216,19.371068 a 3.779528,3.779528 0 0 0 3.77953,3.779528"
       style="fill:none;stroke:#000000;stroke-linecap:round"
       id="path907"
       inkscape:connector-curvature="0" />
    <path
       d="m 1365.7152,-10.865152 a 1.889764,1.889764 0 0 0 1.8897,-1.889764"
       style="fill:none;stroke:#000000;stroke-linecap:round"
       id="path909"
       inkscape:connector-curvature="0" />
    <path
       d="m 1252.3293,-10.865152 a 1.889764,1.889764 0 0 0 1.8898,-1.889764"
       style="fill:none;stroke:#000000;stroke-linecap:round"
       id="path911"
       inkscape:connector-curvature="0" />
    <path
       d="m 1246.66,-12.754916 a 1.889764,1.889764 0 0 0 1.8898,1.889764"
       style="fill:none;stroke:#000000;stroke-linecap:round"
       id="path913"
       inkscape:connector-curvature="0" />
    <path
       d="m 1360.0459,-12.754916 a 1.889764,1.889764 0 0 0 1.8897,1.889764"
       style="fill:none;stroke:#000000;stroke-linecap:round"
       id="path915"
       inkscape:connector-curvature="0" />
    <path
       d="m 392.48681,-128.03051 a 7.559055,7.559055 0 0 0 -7.55906,7.55906"
       style="fill:none;stroke:#000000;stroke-linecap:round"
       id="path917"
       inkscape:connector-curvature="0" />
    <path
       d="m 1248.5498,-94.014758 a 1.889764,1.889764 0 0 0 -1.8898,1.889763"
       style="fill:none;stroke:#000000;stroke-linecap:round"
       id="path919"
       inkscape:connector-curvature="0" />
    <path
       d="m 1361.9356,-94.014758 a 1.889764,1.889764 0 0 0 -1.8897,1.889763"
       style="fill:none;stroke:#000000;stroke-linecap:round"
       id="path921"
       inkscape:connector-curvature="0" />
    <path
       d="m 1254.2191,-92.124995 a 1.889764,1.889764 0 0 0 -1.8898,-1.889763"
       style="fill:none;stroke:#000000;stroke-linecap:round"
       id="path923"
       inkscape:connector-curvature="0" />
    <path
       d="m 1367.6049,-92.124995 a 1.889764,1.889764 0 0 0 -1.8897,-1.889763"
       style="fill:none;stroke:#000000;stroke-linecap:round"
       id="path925"
       inkscape:connector-curvature="0" />
    <path
       d="m 993.43169,-128.03051 a 3.779528,3.779528 0 0 0 -3.77953,3.77953"
       style="fill:none;stroke:#000000;stroke-linecap:round"
       id="path927"
       inkscape:connector-curvature="0" />
    <path
       d="m 978.31358,-124.25098 a 3.779528,3.779528 0 0 0 -3.77953,-3.77953"
       style="fill:none;stroke:#000000;stroke-linecap:round"
       id="path929"
       inkscape:connector-curvature="0" />
    <path
       d="m 2815.164,23.150596 a 7.559055,7.559055 0 0 0 7.559,-7.559055"
       style="fill:none;stroke:#000000;stroke-linecap:round"
       id="path931"
       inkscape:connector-curvature="0" />
    <path
       d="m 2607.29,-50.550191 a 1.889764,1.889764 0 0 0 1.8897,1.889763"
       style="fill:none;stroke:#000000;stroke-linecap:round"
       id="path933"
       inkscape:connector-curvature="0" />
    <path
       d="m 2697.9986,-12.754916 a 1.889764,1.889764 0 0 0 1.8898,1.889764"
       style="fill:none;stroke:#000000;stroke-linecap:round"
       id="path935"
       inkscape:connector-curvature="0" />
    <path
       d="m 2764.1404,-10.865152 a 1.889764,1.889764 0 0 0 1.8897,-1.889764"
       style="fill:none;stroke:#000000;stroke-linecap:round"
       id="path937"
       inkscape:connector-curvature="0" />
    <path
       d="m 2040.3608,-12.754916 a 1.889764,1.889764 0 0 0 1.8898,1.889764"
       style="fill:none;stroke:#000000;stroke-linecap:round"
       id="path939"
       inkscape:connector-curvature="0" />
    <path
       d="m 2153.7467,-12.754916 a 1.889764,1.889764 0 0 0 1.8897,1.889764"
       style="fill:none;stroke:#000000;stroke-linecap:round"
       id="path941"
       inkscape:connector-curvature="0" />
    <path
       d="m 2159.416,-10.865152 a 1.889764,1.889764 0 0 0 1.8897,-1.889764"
       style="fill:none;stroke:#000000;stroke-linecap:round"
       id="path943"
       inkscape:connector-curvature="0" />
    <path
       d="m 2046.0301,-10.865152 a 1.889764,1.889764 0 0 0 1.8898,-1.889764"
       style="fill:none;stroke:#000000;stroke-linecap:round"
       id="path945"
       inkscape:connector-curvature="0" />
    <path
       d="m 2697.9986,-46.770664 a 1.889764,1.889764 0 0 0 -1.8897,-1.889764"
       style="fill:none;stroke:#000000;stroke-linecap:round"
       id="path947"
       inkscape:connector-curvature="0" />
    <path
       d="m 2822.723,-120.47145 a 7.559055,7.559055 0 0 0 -7.559,-7.55906"
       style="fill:none;stroke:#000000;stroke-linecap:round"
       id="path949"
       inkscape:connector-curvature="0" />
    <path
       d="m 2042.2506,-94.014758 a 1.889764,1.889764 0 0 0 -1.8898,1.889763"
       style="fill:none;stroke:#000000;stroke-linecap:round"
       id="path951"
       inkscape:connector-curvature="0" />
    <path
       d="m 2047.9199,-92.124995 a 1.889764,1.889764 0 0 0 -1.8898,-1.889763"
       style="fill:none;stroke:#000000;stroke-linecap:round"
       id="path953"
       inkscape:connector-curvature="0" />
    <path
       d="m 2161.3057,-92.124995 a 1.889764,1.889764 0 0 0 -1.8897,-1.889763"
       style="fill:none;stroke:#000000;stroke-linecap:round"
       id="path955"
       inkscape:connector-curvature="0" />
    <path
       d="m 2155.6364,-94.014758 a 1.889764,1.889764 0 0 0 -1.8897,1.889763"
       style="fill:none;stroke:#000000;stroke-linecap:round"
       id="path957"
       inkscape:connector-curvature="0" />
    <path
       d="m 2609.1797,-56.219483 a 1.889764,1.889764 0 0 0 -1.8897,1.889764"
       style="fill:none;stroke:#000000;stroke-linecap:round"
       id="path959"
       inkscape:connector-curvature="0" />
    <path
       d="m 2699.8884,-94.014758 a 1.889764,1.889764 0 0 0 -1.8898,1.889763"
       style="fill:none;stroke:#000000;stroke-linecap:round"
       id="path961"
       inkscape:connector-curvature="0" />
    <path
       d="m 2766.0301,-92.124995 a 1.889764,1.889764 0 0 0 -1.8897,-1.889763"
       style="fill:none;stroke:#000000;stroke-linecap:round"
       id="path963"
       inkscape:connector-curvature="0" />
    <path
       d="m 2696.1089,-56.219483 a 1.889764,1.889764 0 0 0 1.8897,-1.889763"
       style="fill:none;stroke:#000000;stroke-linecap:round"
       id="path965"
       inkscape:connector-curvature="0" />
  </g>
  <g
     inkscape:groupmode="layer"
     inkscape:label="DEFAULT_1"
     id="g969"
     transform="translate(0,1122.5197)" />
  <g
     inkscape:groupmode="layer"
     inkscape:label="DEFAULT_2"
     id="g971"
     transform="translate(0,1122.5197)" />
  <g
     inkscape:groupmode="layer"
     inkscape:label="DEFAULT_3"
     id="g973"
     transform="translate(0,1122.5197)" />
  <g
     inkscape:groupmode="layer"
     inkscape:label="AXES"
     id="g1247"
     transform="translate(0,1122.5197)">
    <path
       d="m 434.06161,-124.25098 v 28.346458"
       style="fill:none;stroke:#000000;stroke-linecap:round"
       id="path975"
       inkscape:connector-curvature="0" />
    <path
       d="M 434.06161,19.371068 V -8.975388"
       style="fill:none;stroke:#000000;stroke-linecap:round"
       id="path977"
       inkscape:connector-curvature="0" />
    <path
       d="m 445.40019,-124.25098 v 28.346458"
       style="fill:none;stroke:#000000;stroke-linecap:round"
       id="path979"
       inkscape:connector-curvature="0" />
    <path
       d="M 445.40019,19.371068 V -8.975388"
       style="fill:none;stroke:#000000;stroke-linecap:round"
       id="path981"
       inkscape:connector-curvature="0" />
    <path
       d="m 479.41594,-124.25098 v 28.346458"
       style="fill:none;stroke:#000000;stroke-linecap:round"
       id="path983"
       inkscape:connector-curvature="0" />
    <path
       d="M 479.41594,19.371068 V -8.975388"
       style="fill:none;stroke:#000000;stroke-linecap:round"
       id="path985"
       inkscape:connector-curvature="0" />
    <path
       d="m 490.75452,-124.25098 v 28.346458"
       style="fill:none;stroke:#000000;stroke-linecap:round"
       id="path987"
       inkscape:connector-curvature="0" />
    <path
       d="M 490.75452,19.371068 V -8.975388"
       style="fill:none;stroke:#000000;stroke-linecap:round"
       id="path989"
       inkscape:connector-curvature="0" />
    <path
       d="m 524.77027,-124.25098 v 28.346458"
       style="fill:none;stroke:#000000;stroke-linecap:round"
       id="path991"
       inkscape:connector-curvature="0" />
    <path
       d="M 524.77027,19.371068 V -8.975388"
       style="fill:none;stroke:#000000;stroke-linecap:round"
       id="path993"
       inkscape:connector-curvature="0" />
    <path
       d="m 536.10886,-124.25098 v 28.346458"
       style="fill:none;stroke:#000000;stroke-linecap:round"
       id="path995"
       inkscape:connector-curvature="0" />
    <path
       d="M 536.10886,19.371068 V -8.975388"
       style="fill:none;stroke:#000000;stroke-linecap:round"
       id="path997"
       inkscape:connector-curvature="0" />
    <path
       d="m 570.1246,-124.25098 v 28.346458"
       style="fill:none;stroke:#000000;stroke-linecap:round"
       id="path999"
       inkscape:connector-curvature="0" />
    <path
       d="M 570.1246,19.371068 V -8.975388"
       style="fill:none;stroke:#000000;stroke-linecap:round"
       id="path1001"
       inkscape:connector-curvature="0" />
    <path
       d="m 581.46319,-124.25098 v 28.346458"
       style="fill:none;stroke:#000000;stroke-linecap:round"
       id="path1003"
       inkscape:connector-curvature="0" />
    <path
       d="M 581.46319,19.371068 V -8.975388"
       style="fill:none;stroke:#000000;stroke-linecap:round"
       id="path1005"
       inkscape:connector-curvature="0" />
    <path
       d="m 615.47894,-124.25098 v 28.346458"
       style="fill:none;stroke:#000000;stroke-linecap:round"
       id="path1007"
       inkscape:connector-curvature="0" />
    <path
       d="M 615.47894,19.371068 V -8.975388"
       style="fill:none;stroke:#000000;stroke-linecap:round"
       id="path1009"
       inkscape:connector-curvature="0" />
    <path
       d="m 626.81752,-124.25098 v 28.346458"
       style="fill:none;stroke:#000000;stroke-linecap:round"
       id="path1011"
       inkscape:connector-curvature="0" />
    <path
       d="M 626.81752,19.371068 V -8.975388"
       style="fill:none;stroke:#000000;stroke-linecap:round"
       id="path1013"
       inkscape:connector-curvature="0" />
    <path
       d="m 660.83327,-124.25098 v 28.346458"
       style="fill:none;stroke:#000000;stroke-linecap:round"
       id="path1015"
       inkscape:connector-curvature="0" />
    <path
       d="M 660.83327,19.371068 V -8.975388"
       style="fill:none;stroke:#000000;stroke-linecap:round"
       id="path1017"
       inkscape:connector-curvature="0" />
    <path
       d="m 672.17185,-124.25098 v 28.346458"
       style="fill:none;stroke:#000000;stroke-linecap:round"
       id="path1019"
       inkscape:connector-curvature="0" />
    <path
       d="M 672.17185,19.371068 V -8.975388"
       style="fill:none;stroke:#000000;stroke-linecap:round"
       id="path1021"
       inkscape:connector-curvature="0" />
    <path
       d="m 706.1876,-124.25098 v 28.346458"
       style="fill:none;stroke:#000000;stroke-linecap:round"
       id="path1023"
       inkscape:connector-curvature="0" />
    <path
       d="M 706.1876,19.371068 V -8.975388"
       style="fill:none;stroke:#000000;stroke-linecap:round"
       id="path1025"
       inkscape:connector-curvature="0" />
    <path
       d="m 717.52618,-124.25098 v 28.346458"
       style="fill:none;stroke:#000000;stroke-linecap:round"
       id="path1027"
       inkscape:connector-curvature="0" />
    <path
       d="M 717.52618,19.371068 V -8.975388"
       style="fill:none;stroke:#000000;stroke-linecap:round"
       id="path1029"
       inkscape:connector-curvature="0" />
    <path
       d="m 751.54193,-124.25098 v 28.346458"
       style="fill:none;stroke:#000000;stroke-linecap:round"
       id="path1031"
       inkscape:connector-curvature="0" />
    <path
       d="M 751.54193,19.371068 V -8.975388"
       style="fill:none;stroke:#000000;stroke-linecap:round"
       id="path1033"
       inkscape:connector-curvature="0" />
    <path
       d="m 762.88051,-124.25098 v 28.346458"
       style="fill:none;stroke:#000000;stroke-linecap:round"
       id="path1035"
       inkscape:connector-curvature="0" />
    <path
       d="M 762.88051,19.371068 V -8.975388"
       style="fill:none;stroke:#000000;stroke-linecap:round"
       id="path1037"
       inkscape:connector-curvature="0" />
    <path
       d="m 796.89626,-124.25098 v 28.346458"
       style="fill:none;stroke:#000000;stroke-linecap:round"
       id="path1039"
       inkscape:connector-curvature="0" />
    <path
       d="M 796.89626,19.371068 V -8.975388"
       style="fill:none;stroke:#000000;stroke-linecap:round"
       id="path1041"
       inkscape:connector-curvature="0" />
    <path
       d="m 808.23484,-124.25098 v 28.346458"
       style="fill:none;stroke:#000000;stroke-linecap:round"
       id="path1043"
       inkscape:connector-curvature="0" />
    <path
       d="M 808.23484,19.371068 V -8.975388"
       style="fill:none;stroke:#000000;stroke-linecap:round"
       id="path1045"
       inkscape:connector-curvature="0" />
    <path
       d="m 842.25059,-124.25098 v 28.346458"
       style="fill:none;stroke:#000000;stroke-linecap:round"
       id="path1047"
       inkscape:connector-curvature="0" />
    <path
       d="M 842.25059,19.371068 V -8.975388"
       style="fill:none;stroke:#000000;stroke-linecap:round"
       id="path1049"
       inkscape:connector-curvature="0" />
    <path
       d="m 853.58917,-124.25098 v 28.346458"
       style="fill:none;stroke:#000000;stroke-linecap:round"
       id="path1051"
       inkscape:connector-curvature="0" />
    <path
       d="M 853.58917,19.371068 V -8.975388"
       style="fill:none;stroke:#000000;stroke-linecap:round"
       id="path1053"
       inkscape:connector-curvature="0" />
    <path
       d="m 887.60492,-124.25098 v 28.346458"
       style="fill:none;stroke:#000000;stroke-linecap:round"
       id="path1055"
       inkscape:connector-curvature="0" />
    <path
       d="M 887.60492,19.371068 V -8.975388"
       style="fill:none;stroke:#000000;stroke-linecap:round"
       id="path1057"
       inkscape:connector-curvature="0" />
    <path
       d="m 898.9435,-124.25098 v 28.346458"
       style="fill:none;stroke:#000000;stroke-linecap:round"
       id="path1059"
       inkscape:connector-curvature="0" />
    <path
       d="M 898.9435,19.371068 V -8.975388"
       style="fill:none;stroke:#000000;stroke-linecap:round"
       id="path1061"
       inkscape:connector-curvature="0" />
    <path
       d="m 392.48681,23.150596 h 37.79527"
       style="fill:none;stroke:#000000;stroke-linecap:round"
       id="path1063"
       inkscape:connector-curvature="0" />
    <path
       d="m 449.17972,23.150596 h 26.45669"
       style="fill:none;stroke:#000000;stroke-linecap:round"
       id="path1065"
       inkscape:connector-curvature="0" />
    <path
       d="m 494.53405,23.150596 h 26.4567"
       style="fill:none;stroke:#000000;stroke-linecap:round"
       id="path1067"
       inkscape:connector-curvature="0" />
    <path
       d="m 539.88838,23.150596 h 26.4567"
       style="fill:none;stroke:#000000;stroke-linecap:round"
       id="path1069"
       inkscape:connector-curvature="0" />
    <path
       d="m 585.24271,23.150596 h 26.4567"
       style="fill:none;stroke:#000000;stroke-linecap:round"
       id="path1071"
       inkscape:connector-curvature="0" />
    <path
       d="m 630.59705,23.150596 h 26.45669"
       style="fill:none;stroke:#000000;stroke-linecap:round"
       id="path1073"
       inkscape:connector-curvature="0" />
    <path
       d="m 675.95138,23.150596 h 26.45669"
       style="fill:none;stroke:#000000;stroke-linecap:round"
       id="path1075"
       inkscape:connector-curvature="0" />
    <path
       d="M 721.30571,23.150596 H 747.7624"
       style="fill:none;stroke:#000000;stroke-linecap:round"
       id="path1077"
       inkscape:connector-curvature="0" />
    <path
       d="m 766.66004,23.150596 h 26.45669"
       style="fill:none;stroke:#000000;stroke-linecap:round"
       id="path1079"
       inkscape:connector-curvature="0" />
    <path
       d="m 812.01437,23.150596 h 26.45669"
       style="fill:none;stroke:#000000;stroke-linecap:round"
       id="path1081"
       inkscape:connector-curvature="0" />
    <path
       d="m 857.3687,23.150596 h 26.45669"
       style="fill:none;stroke:#000000;stroke-linecap:round"
       id="path1083"
       inkscape:connector-curvature="0" />
    <path
       d="m 902.72303,23.150596 h 26.45669"
       style="fill:none;stroke:#000000;stroke-linecap:round"
       id="path1085"
       inkscape:connector-curvature="0" />
    <path
       d="M 929.17972,-128.03051 H 902.72303"
       style="fill:none;stroke:#000000;stroke-linecap:round"
       id="path1087"
       inkscape:connector-curvature="0" />
    <path
       d="M 883.82539,-128.03051 H 857.3687"
       style="fill:none;stroke:#000000;stroke-linecap:round"
       id="path1089"
       inkscape:connector-curvature="0" />
    <path
       d="M 838.47106,-128.03051 H 812.01437"
       style="fill:none;stroke:#000000;stroke-linecap:round"
       id="path1091"
       inkscape:connector-curvature="0" />
    <path
       d="M 793.11673,-128.03051 H 766.66004"
       style="fill:none;stroke:#000000;stroke-linecap:round"
       id="path1093"
       inkscape:connector-curvature="0" />
    <path
       d="M 747.7624,-128.03051 H 721.30571"
       style="fill:none;stroke:#000000;stroke-linecap:round"
       id="path1095"
       inkscape:connector-curvature="0" />
    <path
       d="M 702.40807,-128.03051 H 675.95138"
       style="fill:none;stroke:#000000;stroke-linecap:round"
       id="path1097"
       inkscape:connector-curvature="0" />
    <path
       d="M 657.05374,-128.03051 H 630.59705"
       style="fill:none;stroke:#000000;stroke-linecap:round"
       id="path1099"
       inkscape:connector-curvature="0" />
    <path
       d="m 611.69941,-128.03051 h -26.4567"
       style="fill:none;stroke:#000000;stroke-linecap:round"
       id="path1101"
       inkscape:connector-curvature="0" />
    <path
       d="m 566.34508,-128.03051 h -26.4567"
       style="fill:none;stroke:#000000;stroke-linecap:round"
       id="path1103"
       inkscape:connector-curvature="0" />
    <path
       d="m 520.99075,-128.03051 h -26.4567"
       style="fill:none;stroke:#000000;stroke-linecap:round"
       id="path1105"
       inkscape:connector-curvature="0" />
    <path
       d="M 475.63641,-128.03051 H 449.17972"
       style="fill:none;stroke:#000000;stroke-linecap:round"
       id="path1107"
       inkscape:connector-curvature="0" />
    <path
       d="M 430.28208,-128.03051 H 392.48681"
       style="fill:none;stroke:#000000;stroke-linecap:round"
       id="path1109"
       inkscape:connector-curvature="0" />
    <path
       d="m 445.40019,19.371068 a 3.779528,3.779528 0 0 0 3.77953,3.779528"
       style="fill:none;stroke:#000000;stroke-linecap:round"
       id="path1111"
       inkscape:connector-curvature="0" />
    <path
       d="m 475.63641,23.150596 a 3.779528,3.779528 0 0 0 3.77953,-3.779528"
       style="fill:none;stroke:#000000;stroke-linecap:round"
       id="path1113"
       inkscape:connector-curvature="0" />
    <path
       d="m 490.75452,19.371068 a 3.779528,3.779528 0 0 0 3.77953,3.779528"
       style="fill:none;stroke:#000000;stroke-linecap:round"
       id="path1115"
       inkscape:connector-curvature="0" />
    <path
       d="m 520.99075,23.150596 a 3.779528,3.779528 0 0 0 3.77952,-3.779528"
       style="fill:none;stroke:#000000;stroke-linecap:round"
       id="path1117"
       inkscape:connector-curvature="0" />
    <path
       d="m 536.10886,19.371068 a 3.779528,3.779528 0 0 0 3.77952,3.779528"
       style="fill:none;stroke:#000000;stroke-linecap:round"
       id="path1119"
       inkscape:connector-curvature="0" />
    <path
       d="m 566.34508,23.150596 a 3.779528,3.779528 0 0 0 3.77952,-3.779528"
       style="fill:none;stroke:#000000;stroke-linecap:round"
       id="path1121"
       inkscape:connector-curvature="0" />
    <path
       d="m 581.46319,19.371068 a 3.779528,3.779528 0 0 0 3.77952,3.779528"
       style="fill:none;stroke:#000000;stroke-linecap:round"
       id="path1123"
       inkscape:connector-curvature="0" />
    <path
       d="m 611.69941,23.150596 a 3.779528,3.779528 0 0 0 3.77953,-3.779528"
       style="fill:none;stroke:#000000;stroke-linecap:round"
       id="path1125"
       inkscape:connector-curvature="0" />
    <path
       d="m 626.81752,19.371068 a 3.779528,3.779528 0 0 0 3.77953,3.779528"
       style="fill:none;stroke:#000000;stroke-linecap:round"
       id="path1127"
       inkscape:connector-curvature="0" />
    <path
       d="m 657.05374,23.150596 a 3.779528,3.779528 0 0 0 3.77953,-3.779528"
       style="fill:none;stroke:#000000;stroke-linecap:round"
       id="path1129"
       inkscape:connector-curvature="0" />
    <path
       d="m 672.17185,19.371068 a 3.779528,3.779528 0 0 0 3.77953,3.779528"
       style="fill:none;stroke:#000000;stroke-linecap:round"
       id="path1131"
       inkscape:connector-curvature="0" />
    <path
       d="m 702.40807,23.150596 a 3.779528,3.779528 0 0 0 3.77953,-3.779528"
       style="fill:none;stroke:#000000;stroke-linecap:round"
       id="path1133"
       inkscape:connector-curvature="0" />
    <path
       d="m 717.52618,19.371068 a 3.779528,3.779528 0 0 0 3.77953,3.779528"
       style="fill:none;stroke:#000000;stroke-linecap:round"
       id="path1135"
       inkscape:connector-curvature="0" />
    <path
       d="m 747.7624,23.150596 a 3.779528,3.779528 0 0 0 3.77953,-3.779528"
       style="fill:none;stroke:#000000;stroke-linecap:round"
       id="path1137"
       inkscape:connector-curvature="0" />
    <path
       d="m 762.88051,19.371068 a 3.779528,3.779528 0 0 0 3.77953,3.779528"
       style="fill:none;stroke:#000000;stroke-linecap:round"
       id="path1139"
       inkscape:connector-curvature="0" />
    <path
       d="m 793.11673,23.150596 a 3.779528,3.779528 0 0 0 3.77953,-3.779528"
       style="fill:none;stroke:#000000;stroke-linecap:round"
       id="path1141"
       inkscape:connector-curvature="0" />
    <path
       d="m 808.23484,19.371068 a 3.779528,3.779528 0 0 0 3.77953,3.779528"
       style="fill:none;stroke:#000000;stroke-linecap:round"
       id="path1143"
       inkscape:connector-curvature="0" />
    <path
       d="m 838.47106,23.150596 a 3.779528,3.779528 0 0 0 3.77953,-3.779528"
       style="fill:none;stroke:#000000;stroke-linecap:round"
       id="path1145"
       inkscape:connector-curvature="0" />
    <path
       d="m 853.58917,19.371068 a 3.779528,3.779528 0 0 0 3.77953,3.779528"
       style="fill:none;stroke:#000000;stroke-linecap:round"
       id="path1147"
       inkscape:connector-curvature="0" />
    <path
       d="m 430.28208,23.150596 a 3.779528,3.779528 0 0 0 3.77953,-3.779528"
       style="fill:none;stroke:#000000;stroke-linecap:round"
       id="path1149"
       inkscape:connector-curvature="0" />
    <path
       d="m 490.75452,-8.975388 a 5.669291,5.669291 0 0 0 -11.33858,0"
       style="fill:none;stroke:#000000;stroke-linecap:round"
       id="path1151"
       inkscape:connector-curvature="0" />
    <path
       d="m 536.10886,-8.975388 a 5.669295,5.669295 0 0 0 -11.33859,0"
       style="fill:none;stroke:#000000;stroke-linecap:round"
       id="path1153"
       inkscape:connector-curvature="0" />
    <path
       d="m 581.46319,-8.975388 a 5.669295,5.669295 0 0 0 -11.33859,0"
       style="fill:none;stroke:#000000;stroke-linecap:round"
       id="path1155"
       inkscape:connector-curvature="0" />
    <path
       d="m 626.81752,-8.975388 a 5.669291,5.669291 0 0 0 -11.33858,0"
       style="fill:none;stroke:#000000;stroke-linecap:round"
       id="path1157"
       inkscape:connector-curvature="0" />
    <path
       d="m 672.17185,-8.975388 a 5.6692915,5.6692915 0 0 0 -11.33858,0"
       style="fill:none;stroke:#000000;stroke-linecap:round"
       id="path1159"
       inkscape:connector-curvature="0" />
    <path
       d="m 717.52618,-8.975388 a 5.6692915,5.6692915 0 0 0 -11.33858,0"
       style="fill:none;stroke:#000000;stroke-linecap:round"
       id="path1161"
       inkscape:connector-curvature="0" />
    <path
       d="m 762.88051,-8.975388 a 5.6692915,5.6692915 0 0 0 -11.33858,0"
       style="fill:none;stroke:#000000;stroke-linecap:round"
       id="path1163"
       inkscape:connector-curvature="0" />
    <path
       d="m 808.23484,-8.975388 a 5.669291,5.669291 0 0 0 -11.33858,0"
       style="fill:none;stroke:#000000;stroke-linecap:round"
       id="path1165"
       inkscape:connector-curvature="0" />
    <path
       d="m 853.58917,-8.975388 a 5.6692915,5.6692915 0 0 0 -11.33858,0"
       style="fill:none;stroke:#000000;stroke-linecap:round"
       id="path1167"
       inkscape:connector-curvature="0" />
    <path
       d="m 445.40019,-8.975388 a 5.6692915,5.6692915 0 0 0 -11.33858,0"
       style="fill:none;stroke:#000000;stroke-linecap:round"
       id="path1169"
       inkscape:connector-curvature="0" />
    <path
       d="m 883.82539,23.150596 a 3.779528,3.779528 0 0 0 3.77953,-3.779528"
       style="fill:none;stroke:#000000;stroke-linecap:round"
       id="path1171"
       inkscape:connector-curvature="0" />
    <path
       d="m 898.9435,19.371068 a 3.779528,3.779528 0 0 0 3.77953,3.779528"
       style="fill:none;stroke:#000000;stroke-linecap:round"
       id="path1173"
       inkscape:connector-curvature="0" />
    <path
       d="m 898.9435,-8.975388 a 5.6692915,5.6692915 0 0 0 -11.33858,0"
       style="fill:none;stroke:#000000;stroke-linecap:round"
       id="path1175"
       inkscape:connector-curvature="0" />
    <path
       d="m 989.65216,-8.975388 a 5.6692915,5.6692915 0 0 0 -11.33858,0"
       style="fill:none;stroke:#000000;stroke-linecap:round"
       id="path1177"
       inkscape:connector-curvature="0" />
    <path
       d="m 842.25059,-95.904522 a 5.6692915,5.6692915 0 0 0 11.33858,0"
       style="fill:none;stroke:#000000;stroke-linecap:round"
       id="path1179"
       inkscape:connector-curvature="0" />
    <path
       d="m 796.89626,-95.904522 a 5.669291,5.669291 0 0 0 11.33858,0"
       style="fill:none;stroke:#000000;stroke-linecap:round"
       id="path1181"
       inkscape:connector-curvature="0" />
    <path
       d="m 751.54193,-95.904522 a 5.6692915,5.6692915 0 0 0 11.33858,0"
       style="fill:none;stroke:#000000;stroke-linecap:round"
       id="path1183"
       inkscape:connector-curvature="0" />
    <path
       d="m 706.1876,-95.904522 a 5.6692915,5.6692915 0 0 0 11.33858,0"
       style="fill:none;stroke:#000000;stroke-linecap:round"
       id="path1185"
       inkscape:connector-curvature="0" />
    <path
       d="m 660.83327,-95.904522 a 5.6692915,5.6692915 0 0 0 11.33858,0"
       style="fill:none;stroke:#000000;stroke-linecap:round"
       id="path1187"
       inkscape:connector-curvature="0" />
    <path
       d="m 615.47894,-95.904522 a 5.669291,5.669291 0 0 0 11.33858,0"
       style="fill:none;stroke:#000000;stroke-linecap:round"
       id="path1189"
       inkscape:connector-curvature="0" />
    <path
       d="m 570.1246,-95.904522 a 5.669295,5.669295 0 0 0 11.33859,0"
       style="fill:none;stroke:#000000;stroke-linecap:round"
       id="path1191"
       inkscape:connector-curvature="0" />
    <path
       d="m 524.77027,-95.904522 a 5.669295,5.669295 0 0 0 11.33859,0"
       style="fill:none;stroke:#000000;stroke-linecap:round"
       id="path1193"
       inkscape:connector-curvature="0" />
    <path
       d="m 479.41594,-95.904522 a 5.669291,5.669291 0 0 0 11.33858,0"
       style="fill:none;stroke:#000000;stroke-linecap:round"
       id="path1195"
       inkscape:connector-curvature="0" />
    <path
       d="m 434.06161,-95.904522 a 5.6692915,5.6692915 0 0 0 11.33858,0"
       style="fill:none;stroke:#000000;stroke-linecap:round"
       id="path1197"
       inkscape:connector-curvature="0" />
    <path
       d="m 857.3687,-128.03051 a 3.779528,3.779528 0 0 0 -3.77953,3.77953"
       style="fill:none;stroke:#000000;stroke-linecap:round"
       id="path1199"
       inkscape:connector-curvature="0" />
    <path
       d="m 842.25059,-124.25098 a 3.779528,3.779528 0 0 0 -3.77953,-3.77953"
       style="fill:none;stroke:#000000;stroke-linecap:round"
       id="path1201"
       inkscape:connector-curvature="0" />
    <path
       d="m 812.01437,-128.03051 a 3.779528,3.779528 0 0 0 -3.77953,3.77953"
       style="fill:none;stroke:#000000;stroke-linecap:round"
       id="path1203"
       inkscape:connector-curvature="0" />
    <path
       d="m 796.89626,-124.25098 a 3.779528,3.779528 0 0 0 -3.77953,-3.77953"
       style="fill:none;stroke:#000000;stroke-linecap:round"
       id="path1205"
       inkscape:connector-curvature="0" />
    <path
       d="m 766.66004,-128.03051 a 3.779528,3.779528 0 0 0 -3.77953,3.77953"
       style="fill:none;stroke:#000000;stroke-linecap:round"
       id="path1207"
       inkscape:connector-curvature="0" />
    <path
       d="m 751.54193,-124.25098 a 3.779528,3.779528 0 0 0 -3.77953,-3.77953"
       style="fill:none;stroke:#000000;stroke-linecap:round"
       id="path1209"
       inkscape:connector-curvature="0" />
    <path
       d="m 721.30571,-128.03051 a 3.779528,3.779528 0 0 0 -3.77953,3.77953"
       style="fill:none;stroke:#000000;stroke-linecap:round"
       id="path1211"
       inkscape:connector-curvature="0" />
    <path
       d="m 706.1876,-124.25098 a 3.779528,3.779528 0 0 0 -3.77953,-3.77953"
       style="fill:none;stroke:#000000;stroke-linecap:round"
       id="path1213"
       inkscape:connector-curvature="0" />
    <path
       d="m 675.95138,-128.03051 a 3.779528,3.779528 0 0 0 -3.77953,3.77953"
       style="fill:none;stroke:#000000;stroke-linecap:round"
       id="path1215"
       inkscape:connector-curvature="0" />
    <path
       d="m 660.83327,-124.25098 a 3.779528,3.779528 0 0 0 -3.77953,-3.77953"
       style="fill:none;stroke:#000000;stroke-linecap:round"
       id="path1217"
       inkscape:connector-curvature="0" />
    <path
       d="m 630.59705,-128.03051 a 3.779528,3.779528 0 0 0 -3.77953,3.77953"
       style="fill:none;stroke:#000000;stroke-linecap:round"
       id="path1219"
       inkscape:connector-curvature="0" />
    <path
       d="m 615.47894,-124.25098 a 3.779528,3.779528 0 0 0 -3.77953,-3.77953"
       style="fill:none;stroke:#000000;stroke-linecap:round"
       id="path1221"
       inkscape:connector-curvature="0" />
    <path
       d="m 585.24271,-128.03051 a 3.779528,3.779528 0 0 0 -3.77952,3.77953"
       style="fill:none;stroke:#000000;stroke-linecap:round"
       id="path1223"
       inkscape:connector-curvature="0" />
    <path
       d="m 570.1246,-124.25098 a 3.779528,3.779528 0 0 0 -3.77952,-3.77953"
       style="fill:none;stroke:#000000;stroke-linecap:round"
       id="path1225"
       inkscape:connector-curvature="0" />
    <path
       d="m 539.88838,-128.03051 a 3.779528,3.779528 0 0 0 -3.77952,3.77953"
       style="fill:none;stroke:#000000;stroke-linecap:round"
       id="path1227"
       inkscape:connector-curvature="0" />
    <path
       d="m 524.77027,-124.25098 a 3.779528,3.779528 0 0 0 -3.77952,-3.77953"
       style="fill:none;stroke:#000000;stroke-linecap:round"
       id="path1229"
       inkscape:connector-curvature="0" />
    <path
       d="m 494.53405,-128.03051 a 3.779528,3.779528 0 0 0 -3.77953,3.77953"
       style="fill:none;stroke:#000000;stroke-linecap:round"
       id="path1231"
       inkscape:connector-curvature="0" />
    <path
       d="m 479.41594,-124.25098 a 3.779528,3.779528 0 0 0 -3.77953,-3.77953"
       style="fill:none;stroke:#000000;stroke-linecap:round"
       id="path1233"
       inkscape:connector-curvature="0" />
    <path
       d="m 449.17972,-128.03051 a 3.779528,3.779528 0 0 0 -3.77953,3.77953"
       style="fill:none;stroke:#000000;stroke-linecap:round"
       id="path1235"
       inkscape:connector-curvature="0" />
    <path
       d="m 434.06161,-124.25098 a 3.779528,3.779528 0 0 0 -3.77953,-3.77953"
       style="fill:none;stroke:#000000;stroke-linecap:round"
       id="path1237"
       inkscape:connector-curvature="0" />
    <path
       d="m 978.31358,-95.904522 a 5.6692915,5.6692915 0 0 0 11.33858,0"
       style="fill:none;stroke:#000000;stroke-linecap:round"
       id="path1239"
       inkscape:connector-curvature="0" />
    <path
       d="m 887.60492,-95.904522 a 5.6692915,5.6692915 0 0 0 11.33858,0"
       style="fill:none;stroke:#000000;stroke-linecap:round"
       id="path1241"
       inkscape:connector-curvature="0" />
    <path
       d="m 902.72303,-128.03051 a 3.779528,3.779528 0 0 0 -3.77953,3.77953"
       style="fill:none;stroke:#000000;stroke-linecap:round"
       id="path1243"
       inkscape:connector-curvature="0" />
    <path
       d="m 887.60492,-124.25098 a 3.779528,3.779528 0 0 0 -3.77953,-3.77953"
       style="fill:none;stroke:#000000;stroke-linecap:round"
       id="path1245"
       inkscape:connector-curvature="0" />
  </g>
  <g
     inkscape:groupmode="layer"
     inkscape:label="COPIE_GEOM"
     id="g1273"
     transform="translate(0,1122.5197)">
    <path
       d="m 932.95925,-124.25098 v 28.346458"
       style="fill:none;stroke:#000000;stroke-linecap:round"
       id="path1249"
       inkscape:connector-curvature="0" />
    <path
       d="M 932.95925,19.371068 V -8.975388"
       style="fill:none;stroke:#000000;stroke-linecap:round"
       id="path1251"
       inkscape:connector-curvature="0" />
    <path
       d="m 944.29783,-124.25098 v 28.346458"
       style="fill:none;stroke:#000000;stroke-linecap:round"
       id="path1253"
       inkscape:connector-curvature="0" />
    <path
       d="M 944.29783,19.371068 V -8.975388"
       style="fill:none;stroke:#000000;stroke-linecap:round"
       id="path1255"
       inkscape:connector-curvature="0" />
    <path
       d="m 948.07736,23.150596 h 26.45669"
       style="fill:none;stroke:#000000;stroke-linecap:round"
       id="path1257"
       inkscape:connector-curvature="0" />
    <path
       d="M 974.53405,-128.03051 H 948.07736"
       style="fill:none;stroke:#000000;stroke-linecap:round"
       id="path1259"
       inkscape:connector-curvature="0" />
    <path
       d="m 929.17972,23.150596 a 3.779528,3.779528 0 0 0 3.77953,-3.779528"
       style="fill:none;stroke:#000000;stroke-linecap:round"
       id="path1261"
       inkscape:connector-curvature="0" />
    <path
       d="m 944.29783,19.371068 a 3.779528,3.779528 0 0 0 3.77953,3.779528"
       style="fill:none;stroke:#000000;stroke-linecap:round"
       id="path1263"
       inkscape:connector-curvature="0" />
    <path
       d="m 944.29783,-8.975388 a 5.669291,5.669291 0 0 0 -11.33858,0"
       style="fill:none;stroke:#000000;stroke-linecap:round"
       id="path1265"
       inkscape:connector-curvature="0" />
    <path
       d="m 932.95925,-95.904522 a 5.669291,5.669291 0 0 0 11.33858,0"
       style="fill:none;stroke:#000000;stroke-linecap:round"
       id="path1267"
       inkscape:connector-curvature="0" />
    <path
       d="m 948.07736,-128.03051 a 3.779528,3.779528 0 0 0 -3.77953,3.77953"
       style="fill:none;stroke:#000000;stroke-linecap:round"
       id="path1269"
       inkscape:connector-curvature="0" />
    <path
       d="m 932.95925,-124.25098 a 3.779528,3.779528 0 0 0 -3.77953,-3.77953"
       style="fill:none;stroke:#000000;stroke-linecap:round"
       id="path1271"
       inkscape:connector-curvature="0" />
  </g>
  <g
     inkscape:groupmode="layer"
     inkscape:label="COSMETIC"
     id="g1275"
     transform="translate(0,1122.5197)" />
  <g
     inkscape:groupmode="layer"
     inkscape:label="COURBES"
     id="g1277"
     transform="translate(0,1122.5197)" />
  <g
     inkscape:groupmode="layer"
     inkscape:label="FILETAGES"
     id="g1279"
     transform="translate(0,1122.5197)" />
  <g
     inkscape:groupmode="layer"
     inkscape:label="PLANS"
     id="g1281"
     transform="translate(0,1122.5197)" />
  <g
     inkscape:groupmode="layer"
     inkscape:label="PLANS_BASE_PRT"
     id="g1283"
     transform="translate(0,1122.5197)" />
  <g
     inkscape:groupmode="layer"
     inkscape:label="PLANS_COUPES"
     id="g1285"
     transform="translate(0,1122.5197)" />
  <g
     inkscape:groupmode="layer"
     inkscape:label="POINTS"
     id="g1287"
     transform="translate(0,1122.5197)" />
  <g
     inkscape:groupmode="layer"
     inkscape:label="REPERES"
     id="g1289"
     transform="translate(0,1122.5197)" />
  <g
     inkscape:groupmode="layer"
     inkscape:label="SOLIDE"
     id="g1291"
     transform="translate(0,1122.5197)" />
  <g
     inkscape:groupmode="layer"
     inkscape:label="SURFACES"
     id="g1293"
     transform="translate(0,1122.5197)" />
</svg>
