  0
SECTION
  2
HEADER
  9
$ACADVER
  1
AC1014
  9
$HANDSEED
  5
FFFF
  9
$MEASUREMENT
 70
     1
  0
ENDSEC
  0
SECTION
  2
TABLES
  0
TABLE
  2
VPORT
  5
8
330
0
100
AcDbSymbolTable
 70
     4
  0
VPORT
  5
2E
330
8
100
AcDbSymbolTableRecord
100
AcDbViewportTableRecord
  2
*ACTIVE
 70
     0
 10
0.0
 20
0.0
 11
1.0
 21
1.0
 12
210.0
 22
148.5
 13
0.0
 23
0.0
 14
10.0
 24
10.0
 15
10.0
 25
10.0
 16
0.0
 26
0.0
 36
1.0
 17
0.0
 27
0.0
 37
0.0
 40
341.0
 41
1.24
 42
50.0
 43
0.0
 44
0.0
 50
0.0
 51
0.0
 71
     0
 72
   100
 73
     1
 74
     3
 75
     0
 76
     0
 77
     0
 78
     0
  0
ENDTAB
  0
TABLE
  2
LTYPE
  5
5
330
0
100
AcDbSymbolTable
 70
     1
  0
LTYPE
  5
14
330
5
100
AcDbSymbolTableRecord
100
AcDbLinetypeTableRecord
  2
BYBLOCK
 70
     0
  3

 72
    65
 73
     0
 40
0.0
  0
LTYPE
  5
15
330
5
100
AcDbSymbolTableRecord
100
AcDbLinetypeTableRecord
  2
BYLAYER
 70
     0
  3

 72
    65
 73
     0
 40
0.0
  0
LTYPE
  5
16
330
5
100
AcDbSymbolTableRecord
100
AcDbLinetypeTableRecord
  2
CONTINUOUS
 70
     0
  3
Solid line
 72
    65
 73
     0
 40
0.0
  0
ENDTAB
  0
TABLE
  2
LAYER
  5
2
100
AcDbSymbolTable
 70
15
  0
LAYER
  5
50
100
AcDbSymbolTableRecord
100
AcDbLayerTableRecord
  2
0
 70
0
  6
CONTINUOUS
  0
LAYER
  5
51
100
AcDbSymbolTableRecord
100
AcDbLayerTableRecord
  2
DEFAULT_1
 70
0
  6
CONTINUOUS
  0
LAYER
  5
52
100
AcDbSymbolTableRecord
100
AcDbLayerTableRecord
  2
DEFAULT_2
 70
0
  6
CONTINUOUS
  0
LAYER
  5
53
100
AcDbSymbolTableRecord
100
AcDbLayerTableRecord
  2
DEFAULT_3
 70
0
  6
CONTINUOUS
  0
LAYER
  5
54
100
AcDbSymbolTableRecord
100
AcDbLayerTableRecord
  2
AXES
 70
0
  6
CONTINUOUS
  0
LAYER
  5
55
100
AcDbSymbolTableRecord
100
AcDbLayerTableRecord
  2
COSMETIC
 70
0
  6
CONTINUOUS
  0
LAYER
  5
56
100
AcDbSymbolTableRecord
100
AcDbLayerTableRecord
  2
COURBES
 70
0
  6
CONTINUOUS
  0
LAYER
  5
57
100
AcDbSymbolTableRecord
100
AcDbLayerTableRecord
  2
FILETAGES
 70
0
  6
CONTINUOUS
  0
LAYER
  5
58
100
AcDbSymbolTableRecord
100
AcDbLayerTableRecord
  2
PLANS
 70
0
  6
CONTINUOUS
  0
LAYER
  5
59
100
AcDbSymbolTableRecord
100
AcDbLayerTableRecord
  2
PLANS_BASE_PRT
 70
0
  6
CONTINUOUS
  0
LAYER
  5
5a
100
AcDbSymbolTableRecord
100
AcDbLayerTableRecord
  2
PLANS_COUPES
 70
0
  6
CONTINUOUS
  0
LAYER
  5
5b
100
AcDbSymbolTableRecord
100
AcDbLayerTableRecord
  2
POINTS
 70
0
  6
CONTINUOUS
  0
LAYER
  5
5c
100
AcDbSymbolTableRecord
100
AcDbLayerTableRecord
  2
REPERES
 70
0
  6
CONTINUOUS
  0
LAYER
  5
5d
100
AcDbSymbolTableRecord
100
AcDbLayerTableRecord
  2
SOLIDE
 70
0
  6
CONTINUOUS
  0
LAYER
  5
5e
100
AcDbSymbolTableRecord
100
AcDbLayerTableRecord
  2
SURFACES
 70
0
  6
CONTINUOUS
  0
ENDTAB
  0
TABLE
  2
STYLE
  5
3
330
0
100
AcDbSymbolTable
 70
     1
  0
STYLE
  5
11
330
3
100
AcDbSymbolTableRecord
100
AcDbTextStyleTableRecord
  2
STANDARD
 70
     0
 40
0.0
 41
1.0
 50
0.0
 71
     0
 42
2.5
  3
txt
  4

  0
ENDTAB
  0
TABLE
  2
VIEW
  5
6
330
0
100
AcDbSymbolTable
 70
     0
  0
ENDTAB
  0
TABLE
  2
UCS
  5
7
330
0
100
AcDbSymbolTable
 70
     0
  0
ENDTAB
  0
TABLE
  2
APPID
  5
9
330
0
100
AcDbSymbolTable
 70
     2
  0
APPID
  5
12
330
9
100
AcDbSymbolTableRecord
100
AcDbRegAppTableRecord
  2
ACAD
 70
     0
  0
ENDTAB
  0
TABLE
  2
DIMSTYLE
  5
A
330
0
100
AcDbSymbolTable
 70
     1
  0
DIMSTYLE
105
27
330
A
100
AcDbSymbolTableRecord
100
AcDbDimStyleTableRecord
  2
ISO-25
 70
     0
  3

  4

  5

  6

  7

 40
1.0
 41
2.5
 42
0.625
 43
3.75
 44
1.25
 45
0.0
 46
0.0
 47
0.0
 48
0.0
140
2.5
141
2.5
142
0.0
143
0.03937007874016
144
1.0
145
0.0
146
1.0
147
0.625
 71
     0
 72
     0
 73
     0
 74
     0
 75
     0
 76
     0
 77
     1
 78
     8
170
     0
171
     3
172
     1
173
     0
174
     0
175
     0
176
     0
177
     0
178
     0
270
     2
271
     2
272
     2
273
     2
274
     3
340
11
275
     0
280
     0
281
     0
282
     0
283
     0
284
     8
285
     0
286
     0
287
     3
288
     0
  0
ENDTAB
  0
TABLE
  2
BLOCK_RECORD
  5
1
330
0
100
AcDbSymbolTable
 70
     1
  0
BLOCK_RECORD
  5
1F
330
1
100
AcDbSymbolTableRecord
100
AcDbBlockTableRecord
  2
*MODEL_SPACE
  0
BLOCK_RECORD
  5
1B
330
1
100
AcDbSymbolTableRecord
100
AcDbBlockTableRecord
  2
*PAPER_SPACE
  0
ENDTAB
  0
ENDSEC
  0
SECTION
  2
BLOCKS
  0
BLOCK
  5
20
330
1F
100
AcDbEntity
  8
0
100
AcDbBlockBegin
  2
*MODEL_SPACE
 70
     0
 10
0.0
 20
0.0
 30
0.0
  3
*MODEL_SPACE
  1

  0
ENDBLK
  5
21
330
1F
100
AcDbEntity
  8
0
100
AcDbBlockEnd
  0
BLOCK
  5
1C
330
1B
100
AcDbEntity
 67
     1
  8
0
100
AcDbBlockBegin
  2
*PAPER_SPACE
  1

  0
ENDBLK
  5
1D
330
1B
100
AcDbEntity
 67
     1
  8
0
100
AcDbBlockEnd
  0
ENDSEC
  0
SECTION
  2
ENTITIES
  0
LWPOLYLINE
  5
100
100
AcDbEntity
  8
0
 62
5
100
AcDbPolyline
 90
2
 70
0
 10
14.677252
 20
767.590423
 30
0.0
 10
14.677252
 20
722.236091
 30
0.0
  0
LWPOLYLINE
  5
101
100
AcDbEntity
  8
0
 62
5
100
AcDbPolyline
 90
2
 70
0
 10
52.447552
 20
562.179754
 30
0.0
 10
13.098854
 20
454.070104
 30
0.0
  0
LWPOLYLINE
  5
102
100
AcDbEntity
  8
0
 62
5
100
AcDbPolyline
 90
2
 70
0
 10
156.409537
 20
637.517741
 30
0.0
 10
77.375010
 20
591.887134
 30
0.0
  0
LWPOLYLINE
  5
103
100
AcDbEntity
  8
0
 62
5
100
AcDbPolyline
 90
2
 70
0
 10
1035.144750
 20
637.517741
 30
0.0
 10
1114.179300
 20
591.887134
 30
0.0
  0
LWPOLYLINE
  5
104
100
AcDbEntity
  8
0
 62
5
100
AcDbPolyline
 90
2
 70
0
 10
1176.877050
 20
767.590423
 30
0.0
 10
1176.877050
 20
722.236091
 30
0.0
  0
SPLINE
  5
105
100
AcDbEntity
  8
0
 62
5
100
AcDbSpline
 70
8
 71
3
 72
8
 73
4
 74
0
 40
0
 40
0
 40
0
 40
0
 40
1
 40
1
 40
1
 40
1
 10
103.409520
 20
240.674141
 30
0.0
 10
416.667043
 20
100.395295
 30
0.0
 10
774.886611
 20
100.394477
 30
0.0
 10
1088.144775
 20
240.671891
 30
0.0
  0
SPLINE
  5
106
100
AcDbEntity
  8
0
 62
5
100
AcDbSpline
 70
8
 71
3
 72
8
 73
4
 74
0
 40
0
 40
0
 40
0
 40
0
 40
1
 40
1
 40
1
 40
1
 10
13.098854
 20
454.070104
 30
0.0
 10
-17.404895
 20
370.261746
 30
0.0
 10
22.011310
 20
277.124806
 30
0.0
 10
103.409520
 20
240.674141
 30
0.0
  0
SPLINE
  5
107
100
AcDbEntity
  8
0
 62
5
100
AcDbSpline
 70
8
 71
3
 72
8
 73
4
 74
0
 40
0
 40
0
 40
0
 40
0
 40
1
 40
1
 40
1
 40
1
 10
1088.144775
 20
240.671906
 30
0.0
 10
1169.543403
 20
277.122339
 30
0.0
 10
1208.959957
 20
370.259559
 30
0.0
 10
1178.456100
 20
454.068184
 30
0.0
  0
SPLINE
  5
108
100
AcDbEntity
  8
0
 62
5
100
AcDbSpline
 70
8
 71
3
 72
8
 73
4
 74
0
 40
0
 40
0
 40
0
 40
0
 40
1
 40
1
 40
1
 40
1
 10
77.375010
 20
591.887134
 30
0.0
 10
65.832057
 20
585.222808
 30
0.0
 10
57.006221
 20
574.704590
 30
0.0
 10
52.447552
 20
562.179754
 30
0.0
  0
SPLINE
  5
109
100
AcDbEntity
  8
0
 62
5
100
AcDbSpline
 70
8
 71
3
 72
8
 73
4
 74
0
 40
0
 40
0
 40
0
 40
0
 40
1
 40
1
 40
1
 40
1
 10
1139.106750
 20
562.179754
 30
0.0
 10
1134.548082
 20
574.704588
 30
0.0
 10
1125.722250
 20
585.222807
 30
0.0
 10
1114.179300
 20
591.887134
 30
0.0
  0
SPLINE
  5
10a
100
AcDbEntity
  8
0
 62
5
100
AcDbSpline
 70
8
 71
3
 72
8
 73
4
 74
0
 40
0
 40
0
 40
0
 40
0
 40
1
 40
1
 40
1
 40
1
 10
1020.971550
 20
662.066494
 30
0.0
 10
1020.971544
 20
651.939286
 30
0.0
 10
1026.374336
 20
642.581355
 30
0.0
 10
1035.144750
 20
637.517741
 30
0.0
  0
SPLINE
  5
10b
100
AcDbEntity
  8
0
 62
5
100
AcDbSpline
 70
8
 71
3
 72
8
 73
4
 74
0
 40
0
 40
0
 40
0
 40
0
 40
1
 40
1
 40
1
 40
1
 10
156.409537
 20
637.517741
 30
0.0
 10
165.179963
 20
642.581348
 30
0.0
 10
170.582767
 20
651.939280
 30
0.0
 10
170.582767
 20
662.066494
 30
0.0
  0
SPLINE
  5
10c
100
AcDbEntity
  8
0
 62
5
100
AcDbSpline
 70
8
 71
3
 72
8
 73
4
 74
0
 40
0
 40
0
 40
0
 40
0
 40
1
 40
1
 40
1
 40
1
 10
1171.207725
 20
716.566804
 30
0.0
 10
1172.711320
 20
716.566795
 30
0.0
 10
1174.153334
 20
717.164089
 30
0.0
 10
1175.216540
 20
718.227287
 30
0.0
  0
SPLINE
  5
10d
100
AcDbEntity
  8
0
 62
5
100
AcDbSpline
 70
8
 71
3
 72
8
 73
4
 74
0
 40
0
 40
0
 40
0
 40
0
 40
1
 40
1
 40
1
 40
1
 10
1175.216540
 20
718.227287
 30
0.0
 10
1176.279745
 20
719.290486
 30
0.0
 10
1176.877049
 20
720.732496
 30
0.0
 10
1176.877050
 20
722.236091
 30
0.0
  0
SPLINE
  5
10e
100
AcDbEntity
  8
0
 62
5
100
AcDbSpline
 70
8
 71
3
 72
8
 73
4
 74
0
 40
0
 40
0
 40
0
 40
0
 40
1
 40
1
 40
1
 40
1
 10
1176.877050
 20
767.590423
 30
0.0
 10
1176.877049
 20
769.094018
 30
0.0
 10
1176.279745
 20
770.536029
 30
0.0
 10
1175.216540
 20
771.599227
 30
0.0
  0
SPLINE
  5
10f
100
AcDbEntity
  8
0
 62
5
100
AcDbSpline
 70
8
 71
3
 72
8
 73
4
 74
0
 40
0
 40
0
 40
0
 40
0
 40
1
 40
1
 40
1
 40
1
 10
1175.216540
 20
771.599227
 30
0.0
 10
1174.153334
 20
772.662426
 30
0.0
 10
1172.711320
 20
773.259720
 30
0.0
 10
1171.207725
 20
773.259711
 30
0.0
  0
SPLINE
  5
110
100
AcDbEntity
  8
0
 62
5
100
AcDbSpline
 70
8
 71
3
 72
8
 73
4
 74
0
 40
0
 40
0
 40
0
 40
0
 40
1
 40
1
 40
1
 40
1
 10
20.346547
 20
773.259711
 30
0.0
 10
18.842957
 20
773.259712
 30
0.0
 10
17.400950
 20
772.662414
 30
0.0
 10
16.337751
 20
771.599217
 30
0.0
  0
SPLINE
  5
111
100
AcDbEntity
  8
0
 62
5
100
AcDbSpline
 70
8
 71
3
 72
8
 73
4
 74
0
 40
0
 40
0
 40
0
 40
0
 40
1
 40
1
 40
1
 40
1
 10
16.337751
 20
771.599217
 30
0.0
 10
15.274552
 20
770.536019
 30
0.0
 10
14.677253
 20
769.094013
 30
0.0
 10
14.677252
 20
767.590423
 30
0.0
  0
SPLINE
  5
112
100
AcDbEntity
  8
0
 62
5
100
AcDbSpline
 70
8
 71
3
 72
8
 73
4
 74
0
 40
0
 40
0
 40
0
 40
0
 40
1
 40
1
 40
1
 40
1
 10
14.677252
 20
722.236091
 30
0.0
 10
14.677253
 20
720.732502
 30
0.0
 10
15.274552
 20
719.290496
 30
0.0
 10
16.337751
 20
718.227298
 30
0.0
  0
SPLINE
  5
113
100
AcDbEntity
  8
0
 62
5
100
AcDbSpline
 70
8
 71
3
 72
8
 73
4
 74
0
 40
0
 40
0
 40
0
 40
0
 40
1
 40
1
 40
1
 40
1
 10
16.337751
 20
718.227298
 30
0.0
 10
17.400950
 20
717.164100
 30
0.0
 10
18.842957
 20
716.566803
 30
0.0
 10
20.346547
 20
716.566804
 30
0.0
  0
LWPOLYLINE
  5
114
100
AcDbEntity
  8
0
 62
5
100
AcDbPolyline
 90
2
 70
0
 10
1139.106750
 20
562.179754
 30
0.0
 10
1178.456100
 20
454.068184
 30
0.0
  0
LWPOLYLINE
  5
115
100
AcDbEntity
  8
AXES
 62
5
100
AcDbPolyline
 90
2
 70
0
 10
170.582767
 20
716.566804
 30
0.0
 10
170.582767
 20
662.066494
 30
0.0
  0
LWPOLYLINE
  5
116
100
AcDbEntity
  8
AXES
 62
5
100
AcDbPolyline
 90
2
 70
0
 10
1171.207725
 20
716.566804
 30
0.0
 10
1029.475425
 20
716.566804
 30
0.0
  0
LWPOLYLINE
  5
117
100
AcDbEntity
  8
AXES
 62
5
100
AcDbPolyline
 90
2
 70
0
 10
20.346547
 20
716.566804
 30
0.0
 10
162.078825
 20
716.566804
 30
0.0
  0
LWPOLYLINE
  5
118
100
AcDbEntity
  8
AXES
 62
5
100
AcDbPolyline
 90
2
 70
0
 10
1171.207725
 20
773.259711
 30
0.0
 10
1114.514850
 20
773.259711
 30
0.0
  0
LWPOLYLINE
  5
119
100
AcDbEntity
  8
AXES
 62
5
100
AcDbPolyline
 90
2
 70
0
 10
1106.010900
 20
773.259711
 30
0.0
 10
85.543395
 20
773.259711
 30
0.0
  0
LWPOLYLINE
  5
11a
100
AcDbEntity
  8
AXES
 62
5
100
AcDbPolyline
 90
2
 70
0
 10
77.039460
 20
773.259711
 30
0.0
 10
20.346547
 20
773.259711
 30
0.0
  0
SPLINE
  5
11b
100
AcDbEntity
  8
AXES
 62
5
100
AcDbSpline
 70
8
 71
3
 72
8
 73
4
 74
0
 40
0
 40
0
 40
0
 40
0
 40
1
 40
1
 40
1
 40
1
 10
1106.010900
 20
773.259711
 30
0.0
 10
1106.010900
 20
771.740627
 30
0.0
 10
1106.821322
 20
770.336935
 30
0.0
 10
1108.136888
 20
769.577393
 30
0.0
  0
SPLINE
  5
11c
100
AcDbEntity
  8
AXES
 62
5
100
AcDbSpline
 70
8
 71
3
 72
8
 73
4
 74
0
 40
0
 40
0
 40
0
 40
0
 40
1
 40
1
 40
1
 40
1
 10
1108.136888
 20
769.577393
 30
0.0
 10
1109.452453
 20
768.817850
 30
0.0
 10
1111.073297
 20
768.817850
 30
0.0
 10
1112.388863
 20
769.577393
 30
0.0
  0
SPLINE
  5
11d
100
AcDbEntity
  8
AXES
 62
5
100
AcDbSpline
 70
8
 71
3
 72
8
 73
4
 74
0
 40
0
 40
0
 40
0
 40
0
 40
1
 40
1
 40
1
 40
1
 10
1112.388863
 20
769.577393
 30
0.0
 10
1113.704428
 20
770.336935
 30
0.0
 10
1114.514850
 20
771.740627
 30
0.0
 10
1114.514850
 20
773.259711
 30
0.0
  0
SPLINE
  5
11e
100
AcDbEntity
  8
AXES
 62
5
100
AcDbSpline
 70
8
 71
3
 72
8
 73
4
 74
0
 40
0
 40
0
 40
0
 40
0
 40
1
 40
1
 40
1
 40
1
 10
77.039460
 20
773.259711
 30
0.0
 10
77.041167
 20
770.912622
 30
0.0
 10
78.944338
 20
769.010835
 30
0.0
 10
81.291428
 20
769.010835
 30
0.0
  0
SPLINE
  5
11f
100
AcDbEntity
  8
AXES
 62
5
100
AcDbSpline
 70
8
 71
3
 72
8
 73
4
 74
0
 40
0
 40
0
 40
0
 40
0
 40
1
 40
1
 40
1
 40
1
 10
81.291428
 20
769.010835
 30
0.0
 10
83.638517
 20
769.010835
 30
0.0
 10
85.541688
 20
770.912622
 30
0.0
 10
85.543395
 20
773.259711
 30
0.0
  0
SPLINE
  5
120
100
AcDbEntity
  8
AXES
 62
5
100
AcDbSpline
 70
8
 71
3
 72
8
 73
4
 74
0
 40
0
 40
0
 40
0
 40
0
 40
1
 40
1
 40
1
 40
1
 10
170.582768
 20
716.566804
 30
0.0
 10
170.582768
 20
718.085887
 30
0.0
 10
169.772346
 20
719.489577
 30
0.0
 10
168.456782
 20
720.249119
 30
0.0
  0
SPLINE
  5
121
100
AcDbEntity
  8
AXES
 62
5
100
AcDbSpline
 70
8
 71
3
 72
8
 73
4
 74
0
 40
0
 40
0
 40
0
 40
0
 40
1
 40
1
 40
1
 40
1
 10
168.456782
 20
720.249119
 30
0.0
 10
167.141217
 20
721.008660
 30
0.0
 10
165.520375
 20
721.008660
 30
0.0
 10
164.204811
 20
720.249119
 30
0.0
  0
SPLINE
  5
122
100
AcDbEntity
  8
AXES
 62
5
100
AcDbSpline
 70
8
 71
3
 72
8
 73
4
 74
0
 40
0
 40
0
 40
0
 40
0
 40
1
 40
1
 40
1
 40
1
 10
164.204811
 20
720.249119
 30
0.0
 10
162.889246
 20
719.489577
 30
0.0
 10
162.078825
 20
718.085887
 30
0.0
 10
162.078825
 20
716.566804
 30
0.0
  0
SPLINE
  5
123
100
AcDbEntity
  8
AXES
 62
5
100
AcDbSpline
 70
8
 71
3
 72
8
 73
4
 74
0
 40
0
 40
0
 40
0
 40
0
 40
1
 40
1
 40
1
 40
1
 10
1029.475425
 20
716.566804
 30
0.0
 10
1029.466464
 20
718.908733
 30
0.0
 10
1027.565434
 20
720.802503
 30
0.0
 10
1025.223487
 20
720.802503
 30
0.0
  0
SPLINE
  5
124
100
AcDbEntity
  8
AXES
 62
5
100
AcDbSpline
 70
8
 71
3
 72
8
 73
4
 74
0
 40
0
 40
0
 40
0
 40
0
 40
1
 40
1
 40
1
 40
1
 10
1025.223487
 20
720.802503
 30
0.0
 10
1022.881541
 20
720.802503
 30
0.0
 10
1020.980511
 20
718.908733
 30
0.0
 10
1020.971550
 20
716.566804
 30
0.0
  0
LWPOLYLINE
  5
125
100
AcDbEntity
  8
AXES
 62
5
100
AcDbPolyline
 90
2
 70
0
 10
1020.971550
 20
716.566804
 30
0.0
 10
1020.971550
 20
662.066494
 30
0.0
  0
ENDSEC
  0
SECTION
  2
OBJECTS
  0
DICTIONARY
  5
C
330
0
100
AcDbDictionary
  3
ACAD_GROUP
350
D
  3
ACAD_MLINESTYLE
350
17
  0
DICTIONARY
  5
D
330
C
100
AcDbDictionary
  0
DICTIONARY
  5
1A
330
C
100
AcDbDictionary
  0
DICTIONARY
  5
17
330
C
100
AcDbDictionary
  3
STANDARD
350
18
  0
DICTIONARY
  5
19
330
C
100
AcDbDictionary
  0
ENDSEC
  0
EOF
