  0
SECTION
  2
HEADER
  9
$ACADVER
  1
AC1014
  9
$HANDSEED
  5
FFFF
  9
$MEASUREMENT
 70
     1
  0
ENDSEC
  0
SECTION
  2
TABLES
  0
TABLE
  2
VPORT
  5
8
330
0
100
AcDbSymbolTable
 70
     4
  0
VPORT
  5
2E
330
8
100
AcDbSymbolTableRecord
100
AcDbViewportTableRecord
  2
*ACTIVE
 70
     0
 10
0.0
 20
0.0
 11
1.0
 21
1.0
 12
210.0
 22
148.5
 13
0.0
 23
0.0
 14
10.0
 24
10.0
 15
10.0
 25
10.0
 16
0.0
 26
0.0
 36
1.0
 17
0.0
 27
0.0
 37
0.0
 40
341.0
 41
1.24
 42
50.0
 43
0.0
 44
0.0
 50
0.0
 51
0.0
 71
     0
 72
   100
 73
     1
 74
     3
 75
     0
 76
     0
 77
     0
 78
     0
  0
ENDTAB
  0
TABLE
  2
LTYPE
  5
5
330
0
100
AcDbSymbolTable
 70
     1
  0
LTYPE
  5
14
330
5
100
AcDbSymbolTableRecord
100
AcDbLinetypeTableRecord
  2
BYBLOCK
 70
     0
  3

 72
    65
 73
     0
 40
0.0
  0
LTYPE
  5
15
330
5
100
AcDbSymbolTableRecord
100
AcDbLinetypeTableRecord
  2
BYLAYER
 70
     0
  3

 72
    65
 73
     0
 40
0.0
  0
LTYPE
  5
16
330
5
100
AcDbSymbolTableRecord
100
AcDbLinetypeTableRecord
  2
CONTINUOUS
 70
     0
  3
Solid line
 72
    65
 73
     0
 40
0.0
  0
ENDTAB
  0
TABLE
  2
LAYER
  5
2
100
AcDbSymbolTable
 70
16
  0
LAYER
  5
50
100
AcDbSymbolTableRecord
100
AcDbLayerTableRecord
  2
0
 70
0
  6
CONTINUOUS
  0
LAYER
  5
51
100
AcDbSymbolTableRecord
100
AcDbLayerTableRecord
  2
DEFAULT_1
 70
0
  6
CONTINUOUS
  0
LAYER
  5
52
100
AcDbSymbolTableRecord
100
AcDbLayerTableRecord
  2
DEFAULT_2
 70
0
  6
CONTINUOUS
  0
LAYER
  5
53
100
AcDbSymbolTableRecord
100
AcDbLayerTableRecord
  2
DEFAULT_3
 70
0
  6
CONTINUOUS
  0
LAYER
  5
54
100
AcDbSymbolTableRecord
100
AcDbLayerTableRecord
  2
AXES
 70
0
  6
CONTINUOUS
  0
LAYER
  5
55
100
AcDbSymbolTableRecord
100
AcDbLayerTableRecord
  2
COPIE_GEOM
 70
0
  6
CONTINUOUS
  0
LAYER
  5
56
100
AcDbSymbolTableRecord
100
AcDbLayerTableRecord
  2
COSMETIC
 70
0
  6
CONTINUOUS
  0
LAYER
  5
57
100
AcDbSymbolTableRecord
100
AcDbLayerTableRecord
  2
COURBES
 70
0
  6
CONTINUOUS
  0
LAYER
  5
58
100
AcDbSymbolTableRecord
100
AcDbLayerTableRecord
  2
FILETAGES
 70
0
  6
CONTINUOUS
  0
LAYER
  5
59
100
AcDbSymbolTableRecord
100
AcDbLayerTableRecord
  2
PLANS
 70
0
  6
CONTINUOUS
  0
LAYER
  5
5a
100
AcDbSymbolTableRecord
100
AcDbLayerTableRecord
  2
PLANS_BASE_PRT
 70
0
  6
CONTINUOUS
  0
LAYER
  5
5b
100
AcDbSymbolTableRecord
100
AcDbLayerTableRecord
  2
PLANS_COUPES
 70
0
  6
CONTINUOUS
  0
LAYER
  5
5c
100
AcDbSymbolTableRecord
100
AcDbLayerTableRecord
  2
POINTS
 70
0
  6
CONTINUOUS
  0
LAYER
  5
5d
100
AcDbSymbolTableRecord
100
AcDbLayerTableRecord
  2
REPERES
 70
0
  6
CONTINUOUS
  0
LAYER
  5
5e
100
AcDbSymbolTableRecord
100
AcDbLayerTableRecord
  2
SOLIDE
 70
0
  6
CONTINUOUS
  0
LAYER
  5
5f
100
AcDbSymbolTableRecord
100
AcDbLayerTableRecord
  2
SURFACES
 70
0
  6
CONTINUOUS
  0
ENDTAB
  0
TABLE
  2
STYLE
  5
3
330
0
100
AcDbSymbolTable
 70
     1
  0
STYLE
  5
11
330
3
100
AcDbSymbolTableRecord
100
AcDbTextStyleTableRecord
  2
STANDARD
 70
     0
 40
0.0
 41
1.0
 50
0.0
 71
     0
 42
2.5
  3
txt
  4

  0
ENDTAB
  0
TABLE
  2
VIEW
  5
6
330
0
100
AcDbSymbolTable
 70
     0
  0
ENDTAB
  0
TABLE
  2
UCS
  5
7
330
0
100
AcDbSymbolTable
 70
     0
  0
ENDTAB
  0
TABLE
  2
APPID
  5
9
330
0
100
AcDbSymbolTable
 70
     2
  0
APPID
  5
12
330
9
100
AcDbSymbolTableRecord
100
AcDbRegAppTableRecord
  2
ACAD
 70
     0
  0
ENDTAB
  0
TABLE
  2
DIMSTYLE
  5
A
330
0
100
AcDbSymbolTable
 70
     1
  0
DIMSTYLE
105
27
330
A
100
AcDbSymbolTableRecord
100
AcDbDimStyleTableRecord
  2
ISO-25
 70
     0
  3

  4

  5

  6

  7

 40
1.0
 41
2.5
 42
0.625
 43
3.75
 44
1.25
 45
0.0
 46
0.0
 47
0.0
 48
0.0
140
2.5
141
2.5
142
0.0
143
0.03937007874016
144
1.0
145
0.0
146
1.0
147
0.625
 71
     0
 72
     0
 73
     0
 74
     0
 75
     0
 76
     0
 77
     1
 78
     8
170
     0
171
     3
172
     1
173
     0
174
     0
175
     0
176
     0
177
     0
178
     0
270
     2
271
     2
272
     2
273
     2
274
     3
340
11
275
     0
280
     0
281
     0
282
     0
283
     0
284
     8
285
     0
286
     0
287
     3
288
     0
  0
ENDTAB
  0
TABLE
  2
BLOCK_RECORD
  5
1
330
0
100
AcDbSymbolTable
 70
     1
  0
BLOCK_RECORD
  5
1F
330
1
100
AcDbSymbolTableRecord
100
AcDbBlockTableRecord
  2
*MODEL_SPACE
  0
BLOCK_RECORD
  5
1B
330
1
100
AcDbSymbolTableRecord
100
AcDbBlockTableRecord
  2
*PAPER_SPACE
  0
ENDTAB
  0
ENDSEC
  0
SECTION
  2
BLOCKS
  0
BLOCK
  5
20
330
1F
100
AcDbEntity
  8
0
100
AcDbBlockBegin
  2
*MODEL_SPACE
 70
     0
 10
0.0
 20
0.0
 30
0.0
  3
*MODEL_SPACE
  1

  0
ENDBLK
  5
21
330
1F
100
AcDbEntity
  8
0
100
AcDbBlockEnd
  0
BLOCK
  5
1C
330
1B
100
AcDbEntity
 67
     1
  8
0
100
AcDbBlockBegin
  2
*PAPER_SPACE
  1

  0
ENDBLK
  5
1D
330
1B
100
AcDbEntity
 67
     1
  8
0
100
AcDbBlockEnd
  0
ENDSEC
  0
SECTION
  2
ENTITIES
  0
LWPOLYLINE
  5
100
100
AcDbEntity
  8
0
 62
5
100
AcDbPolyline
 90
2
 70
0
 10
229.819935
 20
932.243340
 30
0.0
 10
229.819935
 20
830.196097
 30
0.0
  0
LWPOLYLINE
  5
101
100
AcDbEntity
  8
0
 62
5
100
AcDbPolyline
 90
2
 70
0
 10
674.859307
 20
935.077988
 30
0.0
 10
674.859307
 20
913.818144
 30
0.0
  0
LWPOLYLINE
  5
102
100
AcDbEntity
  8
0
 62
5
100
AcDbPolyline
 90
2
 70
0
 10
674.859307
 20
827.361452
 30
0.0
 10
674.859307
 20
848.621294
 30
0.0
  0
LWPOLYLINE
  5
103
100
AcDbEntity
  8
0
 62
5
100
AcDbPolyline
 90
2
 70
0
 10
683.363242
 20
935.077988
 30
0.0
 10
683.363242
 20
913.818144
 30
0.0
  0
LWPOLYLINE
  5
104
100
AcDbEntity
  8
0
 62
5
100
AcDbPolyline
 90
2
 70
0
 10
683.363242
 20
827.361452
 30
0.0
 10
683.363242
 20
848.621294
 30
0.0
  0
LWPOLYLINE
  5
105
100
AcDbEntity
  8
0
 62
1
100
AcDbPolyline
 90
2
 70
0
 10
861.945900
 20
854.290585
 30
0.0
 10
861.945900
 20
908.148853
 30
0.0
  0
LWPOLYLINE
  5
106
100
AcDbEntity
  8
0
 62
1
100
AcDbPolyline
 90
2
 70
0
 10
867.615225
 20
908.148853
 30
0.0
 10
867.615225
 20
854.290585
 30
0.0
  0
LWPOLYLINE
  5
107
100
AcDbEntity
  8
0
 62
1
100
AcDbPolyline
 90
2
 70
0
 10
946.985325
 20
854.290585
 30
0.0
 10
946.985325
 20
908.148853
 30
0.0
  0
LWPOLYLINE
  5
108
100
AcDbEntity
  8
0
 62
1
100
AcDbPolyline
 90
2
 70
0
 10
952.654575
 20
908.148853
 30
0.0
 10
952.654575
 20
854.290585
 30
0.0
  0
LWPOLYLINE
  5
109
100
AcDbEntity
  8
0
 62
5
100
AcDbPolyline
 90
2
 70
0
 10
686.197890
 20
824.526806
 30
0.0
 10
2038.323900
 20
824.526806
 30
0.0
  0
LWPOLYLINE
  5
10a
100
AcDbEntity
  8
0
 62
1
100
AcDbPolyline
 90
2
 70
0
 10
2012.812050
 20
850.038617
 30
0.0
 10
1967.457750
 20
850.038617
 30
0.0
  0
LWPOLYLINE
  5
10b
100
AcDbEntity
  8
0
 62
1
100
AcDbPolyline
 90
2
 70
0
 10
1961.788425
 20
878.385074
 30
0.0
 10
1899.426225
 20
878.385074
 30
0.0
  0
LWPOLYLINE
  5
10c
100
AcDbEntity
  8
0
 62
1
100
AcDbPolyline
 90
2
 70
0
 10
1899.426225
 20
884.054365
 30
0.0
 10
1961.788425
 20
884.054365
 30
0.0
  0
LWPOLYLINE
  5
10d
100
AcDbEntity
  8
0
 62
1
100
AcDbPolyline
 90
2
 70
0
 10
1967.457750
 20
912.400821
 30
0.0
 10
2012.812050
 20
912.400821
 30
0.0
  0
LWPOLYLINE
  5
10e
100
AcDbEntity
  8
0
 62
5
100
AcDbPolyline
 90
2
 70
0
 10
2038.323900
 20
937.912635
 30
0.0
 10
686.197890
 20
937.912635
 30
0.0
  0
LWPOLYLINE
  5
10f
100
AcDbEntity
  8
0
 62
1
100
AcDbPolyline
 90
2
 70
0
 10
1457.221500
 20
854.290585
 30
0.0
 10
1457.221500
 20
908.148853
 30
0.0
  0
LWPOLYLINE
  5
110
100
AcDbEntity
  8
0
 62
1
100
AcDbPolyline
 90
2
 70
0
 10
1462.890825
 20
908.148853
 30
0.0
 10
1462.890825
 20
854.290585
 30
0.0
  0
LWPOLYLINE
  5
111
100
AcDbEntity
  8
0
 62
1
100
AcDbPolyline
 90
2
 70
0
 10
1542.260850
 20
854.290585
 30
0.0
 10
1542.260850
 20
908.148853
 30
0.0
  0
LWPOLYLINE
  5
112
100
AcDbEntity
  8
0
 62
1
100
AcDbPolyline
 90
2
 70
0
 10
1547.930175
 20
908.148853
 30
0.0
 10
1547.930175
 20
854.290585
 30
0.0
  0
LWPOLYLINE
  5
113
100
AcDbEntity
  8
0
 62
1
100
AcDbPolyline
 90
2
 70
0
 10
1964.623050
 20
852.873263
 30
0.0
 10
1964.623050
 20
875.550428
 30
0.0
  0
LWPOLYLINE
  5
114
100
AcDbEntity
  8
0
 62
1
100
AcDbPolyline
 90
2
 70
0
 10
1964.623050
 20
886.889010
 30
0.0
 10
1964.623050
 20
909.566176
 30
0.0
  0
LWPOLYLINE
  5
115
100
AcDbEntity
  8
0
 62
1
100
AcDbPolyline
 90
2
 70
0
 10
2015.646675
 20
909.566176
 30
0.0
 10
2015.646675
 20
852.873263
 30
0.0
  0
SPLINE
  5
116
100
AcDbEntity
  8
0
 62
5
100
AcDbSpline
 70
8
 71
3
 72
8
 73
4
 74
0
 40
0
 40
0
 40
0
 40
0
 40
1
 40
1
 40
1
 40
1
 10
229.819935
 20
830.196097
 30
0.0
 10
229.819935
 20
828.692507
 30
0.0
 10
230.417234
 20
827.250500
 30
0.0
 10
231.480433
 20
826.187301
 30
0.0
  0
SPLINE
  5
117
100
AcDbEntity
  8
0
 62
5
100
AcDbSpline
 70
8
 71
3
 72
8
 73
4
 74
0
 40
0
 40
0
 40
0
 40
0
 40
1
 40
1
 40
1
 40
1
 10
231.480433
 20
826.187301
 30
0.0
 10
232.543632
 20
825.124103
 30
0.0
 10
233.985640
 20
824.526805
 30
0.0
 10
235.489230
 20
824.526806
 30
0.0
  0
SPLINE
  5
118
100
AcDbEntity
  8
0
 62
5
100
AcDbSpline
 70
8
 71
3
 72
8
 73
4
 74
0
 40
0
 40
0
 40
0
 40
0
 40
1
 40
1
 40
1
 40
1
 10
672.024660
 20
824.526806
 30
0.0
 10
672.776455
 20
824.526805
 30
0.0
 10
673.497459
 20
824.825454
 30
0.0
 10
674.029058
 20
825.357054
 30
0.0
  0
SPLINE
  5
119
100
AcDbEntity
  8
0
 62
5
100
AcDbSpline
 70
8
 71
3
 72
8
 73
4
 74
0
 40
0
 40
0
 40
0
 40
0
 40
1
 40
1
 40
1
 40
1
 10
674.029058
 20
825.357054
 30
0.0
 10
674.560658
 20
825.888653
 30
0.0
 10
674.859307
 20
826.609656
 30
0.0
 10
674.859307
 20
827.361452
 30
0.0
  0
SPLINE
  5
11a
100
AcDbEntity
  8
0
 62
5
100
AcDbSpline
 70
8
 71
3
 72
8
 73
4
 74
0
 40
0
 40
0
 40
0
 40
0
 40
1
 40
1
 40
1
 40
1
 10
683.363242
 20
827.361452
 30
0.0
 10
683.363242
 20
826.609656
 30
0.0
 10
683.661892
 20
825.888653
 30
0.0
 10
684.193492
 20
825.357054
 30
0.0
  0
SPLINE
  5
11b
100
AcDbEntity
  8
0
 62
5
100
AcDbSpline
 70
8
 71
3
 72
8
 73
4
 74
0
 40
0
 40
0
 40
0
 40
0
 40
1
 40
1
 40
1
 40
1
 10
684.193492
 20
825.357054
 30
0.0
 10
684.725091
 20
824.825454
 30
0.0
 10
685.446095
 20
824.526805
 30
0.0
 10
686.197890
 20
824.526806
 30
0.0
  0
SPLINE
  5
11c
100
AcDbEntity
  8
0
 62
1
100
AcDbSpline
 70
8
 71
3
 72
8
 73
4
 74
0
 40
0
 40
0
 40
0
 40
0
 40
1
 40
1
 40
1
 40
1
 10
946.985325
 20
854.290585
 30
0.0
 10
946.991335
 20
852.729324
 30
0.0
 10
948.258678
 20
851.466850
 30
0.0
 10
949.819950
 20
851.466850
 30
0.0
  0
SPLINE
  5
11d
100
AcDbEntity
  8
0
 62
1
100
AcDbSpline
 70
8
 71
3
 72
8
 73
4
 74
0
 40
0
 40
0
 40
0
 40
0
 40
1
 40
1
 40
1
 40
1
 10
949.819950
 20
851.466850
 30
0.0
 10
951.381222
 20
851.466850
 30
0.0
 10
952.648565
 20
852.729324
 30
0.0
 10
952.654575
 20
854.290585
 30
0.0
  0
SPLINE
  5
11e
100
AcDbEntity
  8
0
 62
1
100
AcDbSpline
 70
8
 71
3
 72
8
 73
4
 74
0
 40
0
 40
0
 40
0
 40
0
 40
1
 40
1
 40
1
 40
1
 10
861.945900
 20
854.290585
 30
0.0
 10
861.945900
 20
853.277857
 30
0.0
 10
862.486184
 20
852.342059
 30
0.0
 10
863.363231
 20
851.835695
 30
0.0
  0
SPLINE
  5
11f
100
AcDbEntity
  8
0
 62
1
100
AcDbSpline
 70
8
 71
3
 72
8
 73
4
 74
0
 40
0
 40
0
 40
0
 40
0
 40
1
 40
1
 40
1
 40
1
 10
863.363231
 20
851.835695
 30
0.0
 10
864.240279
 20
851.329331
 30
0.0
 10
865.320846
 20
851.329331
 30
0.0
 10
866.197894
 20
851.835695
 30
0.0
  0
SPLINE
  5
120
100
AcDbEntity
  8
0
 62
1
100
AcDbSpline
 70
8
 71
3
 72
8
 73
4
 74
0
 40
0
 40
0
 40
0
 40
0
 40
1
 40
1
 40
1
 40
1
 10
866.197894
 20
851.835695
 30
0.0
 10
867.074941
 20
852.342059
 30
0.0
 10
867.615225
 20
853.277857
 30
0.0
 10
867.615225
 20
854.290585
 30
0.0
  0
SPLINE
  5
121
100
AcDbEntity
  8
0
 62
5
100
AcDbSpline
 70
8
 71
3
 72
8
 73
4
 74
0
 40
0
 40
0
 40
0
 40
0
 40
1
 40
1
 40
1
 40
1
 10
235.489230
 20
937.912635
 30
0.0
 10
233.985639
 20
937.912636
 30
0.0
 10
232.543631
 20
937.315337
 30
0.0
 10
231.480432
 20
936.252138
 30
0.0
  0
SPLINE
  5
122
100
AcDbEntity
  8
0
 62
5
100
AcDbSpline
 70
8
 71
3
 72
8
 73
4
 74
0
 40
0
 40
0
 40
0
 40
0
 40
1
 40
1
 40
1
 40
1
 10
231.480432
 20
936.252138
 30
0.0
 10
230.417233
 20
935.188939
 30
0.0
 10
229.819934
 20
933.746931
 30
0.0
 10
229.819935
 20
932.243340
 30
0.0
  0
SPLINE
  5
123
100
AcDbEntity
  8
0
 62
1
100
AcDbSpline
 70
8
 71
3
 72
8
 73
4
 74
0
 40
0
 40
0
 40
0
 40
0
 40
1
 40
1
 40
1
 40
1
 10
952.654575
 20
908.148853
 30
0.0
 10
952.648565
 20
909.710114
 30
0.0
 10
951.381222
 20
910.972588
 30
0.0
 10
949.819950
 20
910.972588
 30
0.0
  0
SPLINE
  5
124
100
AcDbEntity
  8
0
 62
1
100
AcDbSpline
 70
8
 71
3
 72
8
 73
4
 74
0
 40
0
 40
0
 40
0
 40
0
 40
1
 40
1
 40
1
 40
1
 10
949.819950
 20
910.972588
 30
0.0
 10
948.258678
 20
910.972588
 30
0.0
 10
946.991335
 20
909.710114
 30
0.0
 10
946.985325
 20
908.148853
 30
0.0
  0
SPLINE
  5
125
100
AcDbEntity
  8
0
 62
1
100
AcDbSpline
 70
8
 71
3
 72
8
 73
4
 74
0
 40
0
 40
0
 40
0
 40
0
 40
1
 40
1
 40
1
 40
1
 10
867.615225
 20
908.148853
 30
0.0
 10
867.615225
 20
909.161580
 30
0.0
 10
867.074941
 20
910.097379
 30
0.0
 10
866.197894
 20
910.603743
 30
0.0
  0
SPLINE
  5
126
100
AcDbEntity
  8
0
 62
1
100
AcDbSpline
 70
8
 71
3
 72
8
 73
4
 74
0
 40
0
 40
0
 40
0
 40
0
 40
1
 40
1
 40
1
 40
1
 10
866.197894
 20
910.603743
 30
0.0
 10
865.320846
 20
911.110106
 30
0.0
 10
864.240279
 20
911.110106
 30
0.0
 10
863.363231
 20
910.603743
 30
0.0
  0
SPLINE
  5
127
100
AcDbEntity
  8
0
 62
1
100
AcDbSpline
 70
8
 71
3
 72
8
 73
4
 74
0
 40
0
 40
0
 40
0
 40
0
 40
1
 40
1
 40
1
 40
1
 10
863.363231
 20
910.603743
 30
0.0
 10
862.486184
 20
910.097379
 30
0.0
 10
861.945900
 20
909.161580
 30
0.0
 10
861.945900
 20
908.148853
 30
0.0
  0
SPLINE
  5
128
100
AcDbEntity
  8
0
 62
5
100
AcDbSpline
 70
8
 71
3
 72
8
 73
4
 74
0
 40
0
 40
0
 40
0
 40
0
 40
1
 40
1
 40
1
 40
1
 10
686.197890
 20
937.912635
 30
0.0
 10
685.446095
 20
937.912635
 30
0.0
 10
684.725091
 20
937.613986
 30
0.0
 10
684.193491
 20
937.082387
 30
0.0
  0
SPLINE
  5
129
100
AcDbEntity
  8
0
 62
5
100
AcDbSpline
 70
8
 71
3
 72
8
 73
4
 74
0
 40
0
 40
0
 40
0
 40
0
 40
1
 40
1
 40
1
 40
1
 10
684.193491
 20
937.082387
 30
0.0
 10
683.661891
 20
936.550787
 30
0.0
 10
683.363242
 20
935.829783
 30
0.0
 10
683.363242
 20
935.077988
 30
0.0
  0
SPLINE
  5
12a
100
AcDbEntity
  8
0
 62
5
100
AcDbSpline
 70
8
 71
3
 72
8
 73
4
 74
0
 40
0
 40
0
 40
0
 40
0
 40
1
 40
1
 40
1
 40
1
 10
674.859307
 20
935.077988
 30
0.0
 10
674.859308
 20
935.829783
 30
0.0
 10
674.560659
 20
936.550787
 30
0.0
 10
674.029059
 20
937.082387
 30
0.0
  0
SPLINE
  5
12b
100
AcDbEntity
  8
0
 62
5
100
AcDbSpline
 70
8
 71
3
 72
8
 73
4
 74
0
 40
0
 40
0
 40
0
 40
0
 40
1
 40
1
 40
1
 40
1
 10
674.029059
 20
937.082387
 30
0.0
 10
673.497459
 20
937.613986
 30
0.0
 10
672.776455
 20
937.912635
 30
0.0
 10
672.024660
 20
937.912635
 30
0.0
  0
SPLINE
  5
12c
100
AcDbEntity
  8
0
 62
5
100
AcDbSpline
 70
8
 71
3
 72
8
 73
4
 74
0
 40
0
 40
0
 40
0
 40
0
 40
1
 40
1
 40
1
 40
1
 10
2038.323900
 20
824.526806
 30
0.0
 10
2041.454947
 20
824.526828
 30
0.0
 10
2043.993150
 20
827.065050
 30
0.0
 10
2043.993150
 20
830.196097
 30
0.0
  0
SPLINE
  5
12d
100
AcDbEntity
  8
0
 62
1
100
AcDbSpline
 70
8
 71
3
 72
8
 73
4
 74
0
 40
0
 40
0
 40
0
 40
0
 40
1
 40
1
 40
1
 40
1
 10
1964.623050
 20
852.873263
 30
0.0
 10
1964.623050
 20
852.121458
 30
0.0
 10
1964.921707
 20
851.400447
 30
0.0
 10
1965.453318
 20
850.868846
 30
0.0
  0
SPLINE
  5
12e
100
AcDbEntity
  8
0
 62
1
100
AcDbSpline
 70
8
 71
3
 72
8
 73
4
 74
0
 40
0
 40
0
 40
0
 40
0
 40
1
 40
1
 40
1
 40
1
 10
1965.453318
 20
850.868846
 30
0.0
 10
1965.984929
 20
850.337245
 30
0.0
 10
1966.705946
 20
850.038602
 30
0.0
 10
1967.457750
 20
850.038617
 30
0.0
  0
SPLINE
  5
12f
100
AcDbEntity
  8
0
 62
1
100
AcDbSpline
 70
8
 71
3
 72
8
 73
4
 74
0
 40
0
 40
0
 40
0
 40
0
 40
1
 40
1
 40
1
 40
1
 10
2012.812050
 20
850.038617
 30
0.0
 10
2014.377574
 20
850.038628
 30
0.0
 10
2015.646675
 20
851.307739
 30
0.0
 10
2015.646675
 20
852.873263
 30
0.0
  0
SPLINE
  5
130
100
AcDbEntity
  8
0
 62
1
100
AcDbSpline
 70
8
 71
3
 72
8
 73
4
 74
0
 40
0
 40
0
 40
0
 40
0
 40
1
 40
1
 40
1
 40
1
 10
1964.623050
 20
875.550428
 30
0.0
 10
1964.623050
 20
877.115951
 30
0.0
 10
1963.353949
 20
878.385062
 30
0.0
 10
1961.788425
 20
878.385074
 30
0.0
  0
SPLINE
  5
131
100
AcDbEntity
  8
0
 62
1
100
AcDbSpline
 70
8
 71
3
 72
8
 73
4
 74
0
 40
0
 40
0
 40
0
 40
0
 40
1
 40
1
 40
1
 40
1
 10
1542.260850
 20
854.290585
 30
0.0
 10
1542.260850
 20
853.277857
 30
0.0
 10
1542.801134
 20
852.342059
 30
0.0
 10
1543.678181
 20
851.835695
 30
0.0
  0
SPLINE
  5
132
100
AcDbEntity
  8
0
 62
1
100
AcDbSpline
 70
8
 71
3
 72
8
 73
4
 74
0
 40
0
 40
0
 40
0
 40
0
 40
1
 40
1
 40
1
 40
1
 10
1543.678181
 20
851.835695
 30
0.0
 10
1544.555229
 20
851.329331
 30
0.0
 10
1545.635796
 20
851.329331
 30
0.0
 10
1546.512844
 20
851.835695
 30
0.0
  0
SPLINE
  5
133
100
AcDbEntity
  8
0
 62
1
100
AcDbSpline
 70
8
 71
3
 72
8
 73
4
 74
0
 40
0
 40
0
 40
0
 40
0
 40
1
 40
1
 40
1
 40
1
 10
1546.512844
 20
851.835695
 30
0.0
 10
1547.389891
 20
852.342059
 30
0.0
 10
1547.930175
 20
853.277857
 30
0.0
 10
1547.930175
 20
854.290585
 30
0.0
  0
SPLINE
  5
134
100
AcDbEntity
  8
0
 62
1
100
AcDbSpline
 70
8
 71
3
 72
8
 73
4
 74
0
 40
0
 40
0
 40
0
 40
0
 40
1
 40
1
 40
1
 40
1
 10
1457.221500
 20
854.290585
 30
0.0
 10
1457.221500
 20
853.277857
 30
0.0
 10
1457.761784
 20
852.342059
 30
0.0
 10
1458.638831
 20
851.835695
 30
0.0
  0
SPLINE
  5
135
100
AcDbEntity
  8
0
 62
1
100
AcDbSpline
 70
8
 71
3
 72
8
 73
4
 74
0
 40
0
 40
0
 40
0
 40
0
 40
1
 40
1
 40
1
 40
1
 10
1458.638831
 20
851.835695
 30
0.0
 10
1459.515879
 20
851.329331
 30
0.0
 10
1460.596446
 20
851.329331
 30
0.0
 10
1461.473494
 20
851.835695
 30
0.0
  0
SPLINE
  5
136
100
AcDbEntity
  8
0
 62
1
100
AcDbSpline
 70
8
 71
3
 72
8
 73
4
 74
0
 40
0
 40
0
 40
0
 40
0
 40
1
 40
1
 40
1
 40
1
 10
1461.473494
 20
851.835695
 30
0.0
 10
1462.350541
 20
852.342059
 30
0.0
 10
1462.890825
 20
853.277857
 30
0.0
 10
1462.890825
 20
854.290585
 30
0.0
  0
SPLINE
  5
137
100
AcDbEntity
  8
0
 62
5
100
AcDbSpline
 70
8
 71
3
 72
8
 73
4
 74
0
 40
0
 40
0
 40
0
 40
0
 40
1
 40
1
 40
1
 40
1
 10
2043.993150
 20
932.243340
 30
0.0
 10
2043.993152
 20
935.374389
 30
0.0
 10
2041.454948
 20
937.912612
 30
0.0
 10
2038.323900
 20
937.912635
 30
0.0
  0
SPLINE
  5
138
100
AcDbEntity
  8
0
 62
1
100
AcDbSpline
 70
8
 71
3
 72
8
 73
4
 74
0
 40
0
 40
0
 40
0
 40
0
 40
1
 40
1
 40
1
 40
1
 10
1967.457750
 20
912.400821
 30
0.0
 10
1966.705946
 20
912.400835
 30
0.0
 10
1965.984929
 20
912.102192
 30
0.0
 10
1965.453318
 20
911.570592
 30
0.0
  0
SPLINE
  5
139
100
AcDbEntity
  8
0
 62
1
100
AcDbSpline
 70
8
 71
3
 72
8
 73
4
 74
0
 40
0
 40
0
 40
0
 40
0
 40
1
 40
1
 40
1
 40
1
 10
1965.453318
 20
911.570592
 30
0.0
 10
1964.921707
 20
911.038991
 30
0.0
 10
1964.623050
 20
910.317980
 30
0.0
 10
1964.623050
 20
909.566176
 30
0.0
  0
SPLINE
  5
13a
100
AcDbEntity
  8
0
 62
1
100
AcDbSpline
 70
8
 71
3
 72
8
 73
4
 74
0
 40
0
 40
0
 40
0
 40
0
 40
1
 40
1
 40
1
 40
1
 10
2015.646675
 20
909.566176
 30
0.0
 10
2015.646675
 20
911.131699
 30
0.0
 10
2014.377573
 20
912.400809
 30
0.0
 10
2012.812050
 20
912.400821
 30
0.0
  0
SPLINE
  5
13b
100
AcDbEntity
  8
0
 62
1
100
AcDbSpline
 70
8
 71
3
 72
8
 73
4
 74
0
 40
0
 40
0
 40
0
 40
0
 40
1
 40
1
 40
1
 40
1
 10
1899.426225
 20
884.054365
 30
0.0
 10
1897.861263
 20
884.053560
 30
0.0
 10
1896.593037
 20
882.784682
 30
0.0
 10
1896.593037
 20
881.219719
 30
0.0
  0
SPLINE
  5
13c
100
AcDbEntity
  8
0
 62
1
100
AcDbSpline
 70
8
 71
3
 72
8
 73
4
 74
0
 40
0
 40
0
 40
0
 40
0
 40
1
 40
1
 40
1
 40
1
 10
1896.593037
 20
881.219719
 30
0.0
 10
1896.593037
 20
879.654757
 30
0.0
 10
1897.861263
 20
878.385879
 30
0.0
 10
1899.426225
 20
878.385074
 30
0.0
  0
SPLINE
  5
13d
100
AcDbEntity
  8
0
 62
1
100
AcDbSpline
 70
8
 71
3
 72
8
 73
4
 74
0
 40
0
 40
0
 40
0
 40
0
 40
1
 40
1
 40
1
 40
1
 10
1961.788425
 20
884.054365
 30
0.0
 10
1963.353948
 20
884.054376
 30
0.0
 10
1964.623050
 20
885.323487
 30
0.0
 10
1964.623050
 20
886.889010
 30
0.0
  0
SPLINE
  5
13e
100
AcDbEntity
  8
0
 62
1
100
AcDbSpline
 70
8
 71
3
 72
8
 73
4
 74
0
 40
0
 40
0
 40
0
 40
0
 40
1
 40
1
 40
1
 40
1
 10
1547.930175
 20
908.148853
 30
0.0
 10
1547.930175
 20
909.161580
 30
0.0
 10
1547.389891
 20
910.097379
 30
0.0
 10
1546.512844
 20
910.603743
 30
0.0
  0
SPLINE
  5
13f
100
AcDbEntity
  8
0
 62
1
100
AcDbSpline
 70
8
 71
3
 72
8
 73
4
 74
0
 40
0
 40
0
 40
0
 40
0
 40
1
 40
1
 40
1
 40
1
 10
1546.512844
 20
910.603743
 30
0.0
 10
1545.635796
 20
911.110106
 30
0.0
 10
1544.555229
 20
911.110106
 30
0.0
 10
1543.678181
 20
910.603743
 30
0.0
  0
SPLINE
  5
140
100
AcDbEntity
  8
0
 62
1
100
AcDbSpline
 70
8
 71
3
 72
8
 73
4
 74
0
 40
0
 40
0
 40
0
 40
0
 40
1
 40
1
 40
1
 40
1
 10
1543.678181
 20
910.603743
 30
0.0
 10
1542.801134
 20
910.097379
 30
0.0
 10
1542.260850
 20
909.161580
 30
0.0
 10
1542.260850
 20
908.148853
 30
0.0
  0
SPLINE
  5
141
100
AcDbEntity
  8
0
 62
1
100
AcDbSpline
 70
8
 71
3
 72
8
 73
4
 74
0
 40
0
 40
0
 40
0
 40
0
 40
1
 40
1
 40
1
 40
1
 10
1462.890825
 20
908.148853
 30
0.0
 10
1462.890825
 20
909.161580
 30
0.0
 10
1462.350541
 20
910.097379
 30
0.0
 10
1461.473494
 20
910.603743
 30
0.0
  0
SPLINE
  5
142
100
AcDbEntity
  8
0
 62
1
100
AcDbSpline
 70
8
 71
3
 72
8
 73
4
 74
0
 40
0
 40
0
 40
0
 40
0
 40
1
 40
1
 40
1
 40
1
 10
1461.473494
 20
910.603743
 30
0.0
 10
1460.596446
 20
911.110106
 30
0.0
 10
1459.515879
 20
911.110106
 30
0.0
 10
1458.638831
 20
910.603743
 30
0.0
  0
SPLINE
  5
143
100
AcDbEntity
  8
0
 62
1
100
AcDbSpline
 70
8
 71
3
 72
8
 73
4
 74
0
 40
0
 40
0
 40
0
 40
0
 40
1
 40
1
 40
1
 40
1
 10
1458.638831
 20
910.603743
 30
0.0
 10
1457.761784
 20
910.097379
 30
0.0
 10
1457.221500
 20
909.161580
 30
0.0
 10
1457.221500
 20
908.148853
 30
0.0
  0
LWPOLYLINE
  5
144
100
AcDbEntity
  8
0
 62
5
100
AcDbPolyline
 90
2
 70
0
 10
2043.993150
 20
830.196097
 30
0.0
 10
2043.993150
 20
932.243340
 30
0.0
  0
LWPOLYLINE
  5
145
100
AcDbEntity
  8
AXES
 62
5
100
AcDbPolyline
 90
2
 70
0
 10
266.670330
 20
935.077988
 30
0.0
 10
266.670330
 20
913.818144
 30
0.0
  0
LWPOLYLINE
  5
146
100
AcDbEntity
  8
AXES
 62
5
100
AcDbPolyline
 90
2
 70
0
 10
266.670330
 20
827.361452
 30
0.0
 10
266.670330
 20
848.621294
 30
0.0
  0
LWPOLYLINE
  5
147
100
AcDbEntity
  8
AXES
 62
5
100
AcDbPolyline
 90
2
 70
0
 10
275.174265
 20
935.077988
 30
0.0
 10
275.174265
 20
913.818144
 30
0.0
  0
LWPOLYLINE
  5
148
100
AcDbEntity
  8
AXES
 62
5
100
AcDbPolyline
 90
2
 70
0
 10
275.174265
 20
827.361452
 30
0.0
 10
275.174265
 20
848.621294
 30
0.0
  0
LWPOLYLINE
  5
149
100
AcDbEntity
  8
AXES
 62
5
100
AcDbPolyline
 90
2
 70
0
 10
300.686078
 20
935.077988
 30
0.0
 10
300.686078
 20
913.818144
 30
0.0
  0
LWPOLYLINE
  5
14a
100
AcDbEntity
  8
AXES
 62
5
100
AcDbPolyline
 90
2
 70
0
 10
300.686078
 20
827.361452
 30
0.0
 10
300.686078
 20
848.621294
 30
0.0
  0
LWPOLYLINE
  5
14b
100
AcDbEntity
  8
AXES
 62
5
100
AcDbPolyline
 90
2
 70
0
 10
309.190013
 20
935.077988
 30
0.0
 10
309.190013
 20
913.818144
 30
0.0
  0
LWPOLYLINE
  5
14c
100
AcDbEntity
  8
AXES
 62
5
100
AcDbPolyline
 90
2
 70
0
 10
309.190013
 20
827.361452
 30
0.0
 10
309.190013
 20
848.621294
 30
0.0
  0
LWPOLYLINE
  5
14d
100
AcDbEntity
  8
AXES
 62
5
100
AcDbPolyline
 90
2
 70
0
 10
334.701825
 20
935.077988
 30
0.0
 10
334.701825
 20
913.818144
 30
0.0
  0
LWPOLYLINE
  5
14e
100
AcDbEntity
  8
AXES
 62
5
100
AcDbPolyline
 90
2
 70
0
 10
334.701825
 20
827.361452
 30
0.0
 10
334.701825
 20
848.621294
 30
0.0
  0
LWPOLYLINE
  5
14f
100
AcDbEntity
  8
AXES
 62
5
100
AcDbPolyline
 90
2
 70
0
 10
343.205760
 20
935.077988
 30
0.0
 10
343.205760
 20
913.818144
 30
0.0
  0
LWPOLYLINE
  5
150
100
AcDbEntity
  8
AXES
 62
5
100
AcDbPolyline
 90
2
 70
0
 10
343.205760
 20
827.361452
 30
0.0
 10
343.205760
 20
848.621294
 30
0.0
  0
LWPOLYLINE
  5
151
100
AcDbEntity
  8
AXES
 62
5
100
AcDbPolyline
 90
2
 70
0
 10
368.717572
 20
935.077988
 30
0.0
 10
368.717572
 20
913.818144
 30
0.0
  0
LWPOLYLINE
  5
152
100
AcDbEntity
  8
AXES
 62
5
100
AcDbPolyline
 90
2
 70
0
 10
368.717572
 20
827.361452
 30
0.0
 10
368.717572
 20
848.621294
 30
0.0
  0
LWPOLYLINE
  5
153
100
AcDbEntity
  8
AXES
 62
5
100
AcDbPolyline
 90
2
 70
0
 10
377.221515
 20
935.077988
 30
0.0
 10
377.221515
 20
913.818144
 30
0.0
  0
LWPOLYLINE
  5
154
100
AcDbEntity
  8
AXES
 62
5
100
AcDbPolyline
 90
2
 70
0
 10
377.221515
 20
827.361452
 30
0.0
 10
377.221515
 20
848.621294
 30
0.0
  0
LWPOLYLINE
  5
155
100
AcDbEntity
  8
AXES
 62
5
100
AcDbPolyline
 90
2
 70
0
 10
402.733320
 20
935.077988
 30
0.0
 10
402.733320
 20
913.818144
 30
0.0
  0
LWPOLYLINE
  5
156
100
AcDbEntity
  8
AXES
 62
5
100
AcDbPolyline
 90
2
 70
0
 10
402.733320
 20
827.361452
 30
0.0
 10
402.733320
 20
848.621294
 30
0.0
  0
LWPOLYLINE
  5
157
100
AcDbEntity
  8
AXES
 62
5
100
AcDbPolyline
 90
2
 70
0
 10
411.237263
 20
935.077988
 30
0.0
 10
411.237263
 20
913.818144
 30
0.0
  0
LWPOLYLINE
  5
158
100
AcDbEntity
  8
AXES
 62
5
100
AcDbPolyline
 90
2
 70
0
 10
411.237263
 20
827.361452
 30
0.0
 10
411.237263
 20
848.621294
 30
0.0
  0
LWPOLYLINE
  5
159
100
AcDbEntity
  8
AXES
 62
5
100
AcDbPolyline
 90
2
 70
0
 10
436.749068
 20
935.077988
 30
0.0
 10
436.749068
 20
913.818144
 30
0.0
  0
LWPOLYLINE
  5
15a
100
AcDbEntity
  8
AXES
 62
5
100
AcDbPolyline
 90
2
 70
0
 10
436.749068
 20
827.361452
 30
0.0
 10
436.749068
 20
848.621294
 30
0.0
  0
LWPOLYLINE
  5
15b
100
AcDbEntity
  8
AXES
 62
5
100
AcDbPolyline
 90
2
 70
0
 10
445.253010
 20
935.077988
 30
0.0
 10
445.253010
 20
913.818144
 30
0.0
  0
LWPOLYLINE
  5
15c
100
AcDbEntity
  8
AXES
 62
5
100
AcDbPolyline
 90
2
 70
0
 10
445.253010
 20
827.361452
 30
0.0
 10
445.253010
 20
848.621294
 30
0.0
  0
LWPOLYLINE
  5
15d
100
AcDbEntity
  8
AXES
 62
5
100
AcDbPolyline
 90
2
 70
0
 10
470.764815
 20
935.077988
 30
0.0
 10
470.764815
 20
913.818144
 30
0.0
  0
LWPOLYLINE
  5
15e
100
AcDbEntity
  8
AXES
 62
5
100
AcDbPolyline
 90
2
 70
0
 10
470.764815
 20
827.361452
 30
0.0
 10
470.764815
 20
848.621294
 30
0.0
  0
LWPOLYLINE
  5
15f
100
AcDbEntity
  8
AXES
 62
5
100
AcDbPolyline
 90
2
 70
0
 10
479.268757
 20
935.077988
 30
0.0
 10
479.268757
 20
913.818144
 30
0.0
  0
LWPOLYLINE
  5
160
100
AcDbEntity
  8
AXES
 62
5
100
AcDbPolyline
 90
2
 70
0
 10
479.268757
 20
827.361452
 30
0.0
 10
479.268757
 20
848.621294
 30
0.0
  0
LWPOLYLINE
  5
161
100
AcDbEntity
  8
AXES
 62
5
100
AcDbPolyline
 90
2
 70
0
 10
504.780570
 20
935.077988
 30
0.0
 10
504.780570
 20
913.818144
 30
0.0
  0
LWPOLYLINE
  5
162
100
AcDbEntity
  8
AXES
 62
5
100
AcDbPolyline
 90
2
 70
0
 10
504.780570
 20
827.361452
 30
0.0
 10
504.780570
 20
848.621294
 30
0.0
  0
LWPOLYLINE
  5
163
100
AcDbEntity
  8
AXES
 62
5
100
AcDbPolyline
 90
2
 70
0
 10
513.284505
 20
935.077988
 30
0.0
 10
513.284505
 20
913.818144
 30
0.0
  0
LWPOLYLINE
  5
164
100
AcDbEntity
  8
AXES
 62
5
100
AcDbPolyline
 90
2
 70
0
 10
513.284505
 20
827.361452
 30
0.0
 10
513.284505
 20
848.621294
 30
0.0
  0
LWPOLYLINE
  5
165
100
AcDbEntity
  8
AXES
 62
5
100
AcDbPolyline
 90
2
 70
0
 10
538.796317
 20
935.077988
 30
0.0
 10
538.796317
 20
913.818144
 30
0.0
  0
LWPOLYLINE
  5
166
100
AcDbEntity
  8
AXES
 62
5
100
AcDbPolyline
 90
2
 70
0
 10
538.796317
 20
827.361452
 30
0.0
 10
538.796317
 20
848.621294
 30
0.0
  0
LWPOLYLINE
  5
167
100
AcDbEntity
  8
AXES
 62
5
100
AcDbPolyline
 90
2
 70
0
 10
547.300252
 20
935.077988
 30
0.0
 10
547.300252
 20
913.818144
 30
0.0
  0
LWPOLYLINE
  5
168
100
AcDbEntity
  8
AXES
 62
5
100
AcDbPolyline
 90
2
 70
0
 10
547.300252
 20
827.361452
 30
0.0
 10
547.300252
 20
848.621294
 30
0.0
  0
LWPOLYLINE
  5
169
100
AcDbEntity
  8
AXES
 62
5
100
AcDbPolyline
 90
2
 70
0
 10
572.812065
 20
935.077988
 30
0.0
 10
572.812065
 20
913.818144
 30
0.0
  0
LWPOLYLINE
  5
16a
100
AcDbEntity
  8
AXES
 62
5
100
AcDbPolyline
 90
2
 70
0
 10
572.812065
 20
827.361452
 30
0.0
 10
572.812065
 20
848.621294
 30
0.0
  0
LWPOLYLINE
  5
16b
100
AcDbEntity
  8
AXES
 62
5
100
AcDbPolyline
 90
2
 70
0
 10
581.316000
 20
935.077988
 30
0.0
 10
581.316000
 20
913.818144
 30
0.0
  0
LWPOLYLINE
  5
16c
100
AcDbEntity
  8
AXES
 62
5
100
AcDbPolyline
 90
2
 70
0
 10
581.316000
 20
827.361452
 30
0.0
 10
581.316000
 20
848.621294
 30
0.0
  0
LWPOLYLINE
  5
16d
100
AcDbEntity
  8
AXES
 62
5
100
AcDbPolyline
 90
2
 70
0
 10
606.827812
 20
935.077988
 30
0.0
 10
606.827812
 20
913.818144
 30
0.0
  0
LWPOLYLINE
  5
16e
100
AcDbEntity
  8
AXES
 62
5
100
AcDbPolyline
 90
2
 70
0
 10
606.827812
 20
827.361452
 30
0.0
 10
606.827812
 20
848.621294
 30
0.0
  0
LWPOLYLINE
  5
16f
100
AcDbEntity
  8
AXES
 62
5
100
AcDbPolyline
 90
2
 70
0
 10
615.331748
 20
935.077988
 30
0.0
 10
615.331748
 20
913.818144
 30
0.0
  0
LWPOLYLINE
  5
170
100
AcDbEntity
  8
AXES
 62
5
100
AcDbPolyline
 90
2
 70
0
 10
615.331748
 20
827.361452
 30
0.0
 10
615.331748
 20
848.621294
 30
0.0
  0
LWPOLYLINE
  5
171
100
AcDbEntity
  8
AXES
 62
5
100
AcDbPolyline
 90
2
 70
0
 10
235.489230
 20
824.526806
 30
0.0
 10
263.835683
 20
824.526806
 30
0.0
  0
LWPOLYLINE
  5
172
100
AcDbEntity
  8
AXES
 62
5
100
AcDbPolyline
 90
2
 70
0
 10
278.008912
 20
824.526806
 30
0.0
 10
297.851430
 20
824.526806
 30
0.0
  0
LWPOLYLINE
  5
173
100
AcDbEntity
  8
AXES
 62
5
100
AcDbPolyline
 90
2
 70
0
 10
312.024660
 20
824.526806
 30
0.0
 10
331.867177
 20
824.526806
 30
0.0
  0
LWPOLYLINE
  5
174
100
AcDbEntity
  8
AXES
 62
5
100
AcDbPolyline
 90
2
 70
0
 10
346.040408
 20
824.526806
 30
0.0
 10
365.882925
 20
824.526806
 30
0.0
  0
LWPOLYLINE
  5
175
100
AcDbEntity
  8
AXES
 62
5
100
AcDbPolyline
 90
2
 70
0
 10
380.056155
 20
824.526806
 30
0.0
 10
399.898680
 20
824.526806
 30
0.0
  0
LWPOLYLINE
  5
176
100
AcDbEntity
  8
AXES
 62
5
100
AcDbPolyline
 90
2
 70
0
 10
414.071902
 20
824.526806
 30
0.0
 10
433.914427
 20
824.526806
 30
0.0
  0
LWPOLYLINE
  5
177
100
AcDbEntity
  8
AXES
 62
5
100
AcDbPolyline
 90
2
 70
0
 10
448.087650
 20
824.526806
 30
0.0
 10
467.930175
 20
824.526806
 30
0.0
  0
LWPOLYLINE
  5
178
100
AcDbEntity
  8
AXES
 62
5
100
AcDbPolyline
 90
2
 70
0
 10
482.103398
 20
824.526806
 30
0.0
 10
501.945922
 20
824.526806
 30
0.0
  0
LWPOLYLINE
  5
179
100
AcDbEntity
  8
AXES
 62
5
100
AcDbPolyline
 90
2
 70
0
 10
516.119152
 20
824.526806
 30
0.0
 10
535.961670
 20
824.526806
 30
0.0
  0
LWPOLYLINE
  5
17a
100
AcDbEntity
  8
AXES
 62
5
100
AcDbPolyline
 90
2
 70
0
 10
550.134900
 20
824.526806
 30
0.0
 10
569.977418
 20
824.526806
 30
0.0
  0
LWPOLYLINE
  5
17b
100
AcDbEntity
  8
AXES
 62
5
100
AcDbPolyline
 90
2
 70
0
 10
584.150647
 20
824.526806
 30
0.0
 10
603.993165
 20
824.526806
 30
0.0
  0
LWPOLYLINE
  5
17c
100
AcDbEntity
  8
AXES
 62
5
100
AcDbPolyline
 90
2
 70
0
 10
618.166395
 20
824.526806
 30
0.0
 10
638.008912
 20
824.526806
 30
0.0
  0
LWPOLYLINE
  5
17d
100
AcDbEntity
  8
AXES
 62
5
100
AcDbPolyline
 90
2
 70
0
 10
638.008912
 20
937.912635
 30
0.0
 10
618.166395
 20
937.912635
 30
0.0
  0
LWPOLYLINE
  5
17e
100
AcDbEntity
  8
AXES
 62
5
100
AcDbPolyline
 90
2
 70
0
 10
603.993165
 20
937.912635
 30
0.0
 10
584.150647
 20
937.912635
 30
0.0
  0
LWPOLYLINE
  5
17f
100
AcDbEntity
  8
AXES
 62
5
100
AcDbPolyline
 90
2
 70
0
 10
569.977418
 20
937.912635
 30
0.0
 10
550.134900
 20
937.912635
 30
0.0
  0
LWPOLYLINE
  5
180
100
AcDbEntity
  8
AXES
 62
5
100
AcDbPolyline
 90
2
 70
0
 10
535.961670
 20
937.912635
 30
0.0
 10
516.119152
 20
937.912635
 30
0.0
  0
LWPOLYLINE
  5
181
100
AcDbEntity
  8
AXES
 62
5
100
AcDbPolyline
 90
2
 70
0
 10
501.945922
 20
937.912635
 30
0.0
 10
482.103398
 20
937.912635
 30
0.0
  0
LWPOLYLINE
  5
182
100
AcDbEntity
  8
AXES
 62
5
100
AcDbPolyline
 90
2
 70
0
 10
467.930175
 20
937.912635
 30
0.0
 10
448.087650
 20
937.912635
 30
0.0
  0
LWPOLYLINE
  5
183
100
AcDbEntity
  8
AXES
 62
5
100
AcDbPolyline
 90
2
 70
0
 10
433.914427
 20
937.912635
 30
0.0
 10
414.071902
 20
937.912635
 30
0.0
  0
LWPOLYLINE
  5
184
100
AcDbEntity
  8
AXES
 62
5
100
AcDbPolyline
 90
2
 70
0
 10
399.898680
 20
937.912635
 30
0.0
 10
380.056155
 20
937.912635
 30
0.0
  0
LWPOLYLINE
  5
185
100
AcDbEntity
  8
AXES
 62
5
100
AcDbPolyline
 90
2
 70
0
 10
365.882925
 20
937.912635
 30
0.0
 10
346.040408
 20
937.912635
 30
0.0
  0
LWPOLYLINE
  5
186
100
AcDbEntity
  8
AXES
 62
5
100
AcDbPolyline
 90
2
 70
0
 10
331.867178
 20
937.912635
 30
0.0
 10
312.024660
 20
937.912635
 30
0.0
  0
LWPOLYLINE
  5
187
100
AcDbEntity
  8
AXES
 62
5
100
AcDbPolyline
 90
2
 70
0
 10
297.851430
 20
937.912635
 30
0.0
 10
278.008912
 20
937.912635
 30
0.0
  0
SPLINE
  5
188
100
AcDbEntity
  8
AXES
 62
5
100
AcDbSpline
 70
8
 71
3
 72
8
 73
4
 74
0
 40
0
 40
0
 40
0
 40
0
 40
1
 40
1
 40
1
 40
1
 10
275.174265
 20
827.361452
 30
0.0
 10
275.174265
 20
826.609656
 30
0.0
 10
275.472915
 20
825.888653
 30
0.0
 10
276.004514
 20
825.357054
 30
0.0
  0
SPLINE
  5
189
100
AcDbEntity
  8
AXES
 62
5
100
AcDbSpline
 70
8
 71
3
 72
8
 73
4
 74
0
 40
0
 40
0
 40
0
 40
0
 40
1
 40
1
 40
1
 40
1
 10
276.004514
 20
825.357054
 30
0.0
 10
276.536114
 20
824.825454
 30
0.0
 10
277.257117
 20
824.526805
 30
0.0
 10
278.008913
 20
824.526806
 30
0.0
  0
SPLINE
  5
18a
100
AcDbEntity
  8
AXES
 62
5
100
AcDbSpline
 70
8
 71
3
 72
8
 73
4
 74
0
 40
0
 40
0
 40
0
 40
0
 40
1
 40
1
 40
1
 40
1
 10
297.851430
 20
824.526806
 30
0.0
 10
298.603225
 20
824.526805
 30
0.0
 10
299.324229
 20
824.825454
 30
0.0
 10
299.855828
 20
825.357054
 30
0.0
  0
SPLINE
  5
18b
100
AcDbEntity
  8
AXES
 62
5
100
AcDbSpline
 70
8
 71
3
 72
8
 73
4
 74
0
 40
0
 40
0
 40
0
 40
0
 40
1
 40
1
 40
1
 40
1
 10
299.855828
 20
825.357054
 30
0.0
 10
300.387428
 20
825.888653
 30
0.0
 10
300.686078
 20
826.609656
 30
0.0
 10
300.686078
 20
827.361452
 30
0.0
  0
SPLINE
  5
18c
100
AcDbEntity
  8
AXES
 62
5
100
AcDbSpline
 70
8
 71
3
 72
8
 73
4
 74
0
 40
0
 40
0
 40
0
 40
0
 40
1
 40
1
 40
1
 40
1
 10
309.190013
 20
827.361452
 30
0.0
 10
309.190013
 20
826.609656
 30
0.0
 10
309.488662
 20
825.888653
 30
0.0
 10
310.020262
 20
825.357054
 30
0.0
  0
SPLINE
  5
18d
100
AcDbEntity
  8
AXES
 62
5
100
AcDbSpline
 70
8
 71
3
 72
8
 73
4
 74
0
 40
0
 40
0
 40
0
 40
0
 40
1
 40
1
 40
1
 40
1
 10
310.020262
 20
825.357054
 30
0.0
 10
310.551861
 20
824.825454
 30
0.0
 10
311.272865
 20
824.526805
 30
0.0
 10
312.024660
 20
824.526806
 30
0.0
  0
SPLINE
  5
18e
100
AcDbEntity
  8
AXES
 62
5
100
AcDbSpline
 70
8
 71
3
 72
8
 73
4
 74
0
 40
0
 40
0
 40
0
 40
0
 40
1
 40
1
 40
1
 40
1
 10
331.867178
 20
824.526806
 30
0.0
 10
332.618973
 20
824.526805
 30
0.0
 10
333.339976
 20
824.825454
 30
0.0
 10
333.871576
 20
825.357054
 30
0.0
  0
SPLINE
  5
18f
100
AcDbEntity
  8
AXES
 62
5
100
AcDbSpline
 70
8
 71
3
 72
8
 73
4
 74
0
 40
0
 40
0
 40
0
 40
0
 40
1
 40
1
 40
1
 40
1
 10
333.871576
 20
825.357054
 30
0.0
 10
334.403175
 20
825.888653
 30
0.0
 10
334.701825
 20
826.609656
 30
0.0
 10
334.701825
 20
827.361452
 30
0.0
  0
SPLINE
  5
190
100
AcDbEntity
  8
AXES
 62
5
100
AcDbSpline
 70
8
 71
3
 72
8
 73
4
 74
0
 40
0
 40
0
 40
0
 40
0
 40
1
 40
1
 40
1
 40
1
 10
343.205760
 20
827.361452
 30
0.0
 10
343.205760
 20
826.609656
 30
0.0
 10
343.504410
 20
825.888653
 30
0.0
 10
344.036009
 20
825.357054
 30
0.0
  0
SPLINE
  5
191
100
AcDbEntity
  8
AXES
 62
5
100
AcDbSpline
 70
8
 71
3
 72
8
 73
4
 74
0
 40
0
 40
0
 40
0
 40
0
 40
1
 40
1
 40
1
 40
1
 10
344.036009
 20
825.357054
 30
0.0
 10
344.567609
 20
824.825454
 30
0.0
 10
345.288612
 20
824.526805
 30
0.0
 10
346.040408
 20
824.526806
 30
0.0
  0
SPLINE
  5
192
100
AcDbEntity
  8
AXES
 62
5
100
AcDbSpline
 70
8
 71
3
 72
8
 73
4
 74
0
 40
0
 40
0
 40
0
 40
0
 40
1
 40
1
 40
1
 40
1
 10
365.882925
 20
824.526806
 30
0.0
 10
366.634720
 20
824.526805
 30
0.0
 10
367.355724
 20
824.825454
 30
0.0
 10
367.887323
 20
825.357054
 30
0.0
  0
SPLINE
  5
193
100
AcDbEntity
  8
AXES
 62
5
100
AcDbSpline
 70
8
 71
3
 72
8
 73
4
 74
0
 40
0
 40
0
 40
0
 40
0
 40
1
 40
1
 40
1
 40
1
 10
367.887323
 20
825.357054
 30
0.0
 10
368.418923
 20
825.888653
 30
0.0
 10
368.717573
 20
826.609656
 30
0.0
 10
368.717573
 20
827.361452
 30
0.0
  0
SPLINE
  5
194
100
AcDbEntity
  8
AXES
 62
5
100
AcDbSpline
 70
8
 71
3
 72
8
 73
4
 74
0
 40
0
 40
0
 40
0
 40
0
 40
1
 40
1
 40
1
 40
1
 10
377.221515
 20
827.361452
 30
0.0
 10
377.221515
 20
825.795922
 30
0.0
 10
378.490626
 20
824.526809
 30
0.0
 10
380.056155
 20
824.526806
 30
0.0
  0
SPLINE
  5
195
100
AcDbEntity
  8
AXES
 62
5
100
AcDbSpline
 70
8
 71
3
 72
8
 73
4
 74
0
 40
0
 40
0
 40
0
 40
0
 40
1
 40
1
 40
1
 40
1
 10
399.898680
 20
824.526806
 30
0.0
 10
401.464209
 20
824.526809
 30
0.0
 10
402.733320
 20
825.795922
 30
0.0
 10
402.733320
 20
827.361452
 30
0.0
  0
SPLINE
  5
196
100
AcDbEntity
  8
AXES
 62
5
100
AcDbSpline
 70
8
 71
3
 72
8
 73
4
 74
0
 40
0
 40
0
 40
0
 40
0
 40
1
 40
1
 40
1
 40
1
 10
411.237263
 20
827.361452
 30
0.0
 10
411.237263
 20
825.795922
 30
0.0
 10
412.506373
 20
824.526809
 30
0.0
 10
414.071903
 20
824.526806
 30
0.0
  0
SPLINE
  5
197
100
AcDbEntity
  8
AXES
 62
5
100
AcDbSpline
 70
8
 71
3
 72
8
 73
4
 74
0
 40
0
 40
0
 40
0
 40
0
 40
1
 40
1
 40
1
 40
1
 10
433.914427
 20
824.526806
 30
0.0
 10
435.479957
 20
824.526809
 30
0.0
 10
436.749068
 20
825.795922
 30
0.0
 10
436.749068
 20
827.361452
 30
0.0
  0
SPLINE
  5
198
100
AcDbEntity
  8
AXES
 62
5
100
AcDbSpline
 70
8
 71
3
 72
8
 73
4
 74
0
 40
0
 40
0
 40
0
 40
0
 40
1
 40
1
 40
1
 40
1
 10
445.253010
 20
827.361452
 30
0.0
 10
445.253010
 20
825.795922
 30
0.0
 10
446.522121
 20
824.526809
 30
0.0
 10
448.087650
 20
824.526806
 30
0.0
  0
SPLINE
  5
199
100
AcDbEntity
  8
AXES
 62
5
100
AcDbSpline
 70
8
 71
3
 72
8
 73
4
 74
0
 40
0
 40
0
 40
0
 40
0
 40
1
 40
1
 40
1
 40
1
 10
467.930175
 20
824.526806
 30
0.0
 10
469.495704
 20
824.526809
 30
0.0
 10
470.764815
 20
825.795922
 30
0.0
 10
470.764815
 20
827.361452
 30
0.0
  0
SPLINE
  5
19a
100
AcDbEntity
  8
AXES
 62
5
100
AcDbSpline
 70
8
 71
3
 72
8
 73
4
 74
0
 40
0
 40
0
 40
0
 40
0
 40
1
 40
1
 40
1
 40
1
 10
479.268757
 20
827.361452
 30
0.0
 10
479.268757
 20
825.795922
 30
0.0
 10
480.537868
 20
824.526809
 30
0.0
 10
482.103398
 20
824.526806
 30
0.0
  0
SPLINE
  5
19b
100
AcDbEntity
  8
AXES
 62
5
100
AcDbSpline
 70
8
 71
3
 72
8
 73
4
 74
0
 40
0
 40
0
 40
0
 40
0
 40
1
 40
1
 40
1
 40
1
 10
501.945923
 20
824.526806
 30
0.0
 10
502.697718
 20
824.526805
 30
0.0
 10
503.418721
 20
824.825454
 30
0.0
 10
503.950321
 20
825.357054
 30
0.0
  0
SPLINE
  5
19c
100
AcDbEntity
  8
AXES
 62
5
100
AcDbSpline
 70
8
 71
3
 72
8
 73
4
 74
0
 40
0
 40
0
 40
0
 40
0
 40
1
 40
1
 40
1
 40
1
 10
503.950321
 20
825.357054
 30
0.0
 10
504.481920
 20
825.888653
 30
0.0
 10
504.780570
 20
826.609656
 30
0.0
 10
504.780570
 20
827.361452
 30
0.0
  0
SPLINE
  5
19d
100
AcDbEntity
  8
AXES
 62
5
100
AcDbSpline
 70
8
 71
3
 72
8
 73
4
 74
0
 40
0
 40
0
 40
0
 40
0
 40
1
 40
1
 40
1
 40
1
 10
513.284505
 20
827.361452
 30
0.0
 10
513.284505
 20
826.609656
 30
0.0
 10
513.583155
 20
825.888653
 30
0.0
 10
514.114754
 20
825.357054
 30
0.0
  0
SPLINE
  5
19e
100
AcDbEntity
  8
AXES
 62
5
100
AcDbSpline
 70
8
 71
3
 72
8
 73
4
 74
0
 40
0
 40
0
 40
0
 40
0
 40
1
 40
1
 40
1
 40
1
 10
514.114754
 20
825.357054
 30
0.0
 10
514.646354
 20
824.825454
 30
0.0
 10
515.367357
 20
824.526805
 30
0.0
 10
516.119152
 20
824.526806
 30
0.0
  0
SPLINE
  5
19f
100
AcDbEntity
  8
AXES
 62
5
100
AcDbSpline
 70
8
 71
3
 72
8
 73
4
 74
0
 40
0
 40
0
 40
0
 40
0
 40
1
 40
1
 40
1
 40
1
 10
535.961670
 20
824.526806
 30
0.0
 10
536.713465
 20
824.526805
 30
0.0
 10
537.434469
 20
824.825454
 30
0.0
 10
537.966068
 20
825.357054
 30
0.0
  0
SPLINE
  5
1a0
100
AcDbEntity
  8
AXES
 62
5
100
AcDbSpline
 70
8
 71
3
 72
8
 73
4
 74
0
 40
0
 40
0
 40
0
 40
0
 40
1
 40
1
 40
1
 40
1
 10
537.966068
 20
825.357054
 30
0.0
 10
538.497668
 20
825.888653
 30
0.0
 10
538.796317
 20
826.609656
 30
0.0
 10
538.796317
 20
827.361452
 30
0.0
  0
SPLINE
  5
1a1
100
AcDbEntity
  8
AXES
 62
5
100
AcDbSpline
 70
8
 71
3
 72
8
 73
4
 74
0
 40
0
 40
0
 40
0
 40
0
 40
1
 40
1
 40
1
 40
1
 10
547.300253
 20
827.361452
 30
0.0
 10
547.300253
 20
826.609656
 30
0.0
 10
547.598902
 20
825.888653
 30
0.0
 10
548.130502
 20
825.357054
 30
0.0
  0
SPLINE
  5
1a2
100
AcDbEntity
  8
AXES
 62
5
100
AcDbSpline
 70
8
 71
3
 72
8
 73
4
 74
0
 40
0
 40
0
 40
0
 40
0
 40
1
 40
1
 40
1
 40
1
 10
548.130502
 20
825.357054
 30
0.0
 10
548.662101
 20
824.825454
 30
0.0
 10
549.383105
 20
824.526805
 30
0.0
 10
550.134900
 20
824.526806
 30
0.0
  0
SPLINE
  5
1a3
100
AcDbEntity
  8
AXES
 62
5
100
AcDbSpline
 70
8
 71
3
 72
8
 73
4
 74
0
 40
0
 40
0
 40
0
 40
0
 40
1
 40
1
 40
1
 40
1
 10
569.977418
 20
824.526806
 30
0.0
 10
570.729213
 20
824.526805
 30
0.0
 10
571.450216
 20
824.825454
 30
0.0
 10
571.981816
 20
825.357054
 30
0.0
  0
SPLINE
  5
1a4
100
AcDbEntity
  8
AXES
 62
5
100
AcDbSpline
 70
8
 71
3
 72
8
 73
4
 74
0
 40
0
 40
0
 40
0
 40
0
 40
1
 40
1
 40
1
 40
1
 10
571.981816
 20
825.357054
 30
0.0
 10
572.513415
 20
825.888653
 30
0.0
 10
572.812065
 20
826.609656
 30
0.0
 10
572.812065
 20
827.361452
 30
0.0
  0
SPLINE
  5
1a5
100
AcDbEntity
  8
AXES
 62
5
100
AcDbSpline
 70
8
 71
3
 72
8
 73
4
 74
0
 40
0
 40
0
 40
0
 40
0
 40
1
 40
1
 40
1
 40
1
 10
581.316000
 20
827.361452
 30
0.0
 10
581.316000
 20
826.609656
 30
0.0
 10
581.614650
 20
825.888653
 30
0.0
 10
582.146249
 20
825.357054
 30
0.0
  0
SPLINE
  5
1a6
100
AcDbEntity
  8
AXES
 62
5
100
AcDbSpline
 70
8
 71
3
 72
8
 73
4
 74
0
 40
0
 40
0
 40
0
 40
0
 40
1
 40
1
 40
1
 40
1
 10
582.146249
 20
825.357054
 30
0.0
 10
582.677849
 20
824.825454
 30
0.0
 10
583.398852
 20
824.526805
 30
0.0
 10
584.150648
 20
824.526806
 30
0.0
  0
SPLINE
  5
1a7
100
AcDbEntity
  8
AXES
 62
5
100
AcDbSpline
 70
8
 71
3
 72
8
 73
4
 74
0
 40
0
 40
0
 40
0
 40
0
 40
1
 40
1
 40
1
 40
1
 10
263.835683
 20
824.526806
 30
0.0
 10
264.587478
 20
824.526805
 30
0.0
 10
265.308481
 20
824.825454
 30
0.0
 10
265.840081
 20
825.357054
 30
0.0
  0
SPLINE
  5
1a8
100
AcDbEntity
  8
AXES
 62
5
100
AcDbSpline
 70
8
 71
3
 72
8
 73
4
 74
0
 40
0
 40
0
 40
0
 40
0
 40
1
 40
1
 40
1
 40
1
 10
265.840081
 20
825.357054
 30
0.0
 10
266.371680
 20
825.888653
 30
0.0
 10
266.670330
 20
826.609656
 30
0.0
 10
266.670330
 20
827.361452
 30
0.0
  0
SPLINE
  5
1a9
100
AcDbEntity
  8
AXES
 62
5
100
AcDbSpline
 70
8
 71
3
 72
8
 73
4
 74
0
 40
0
 40
0
 40
0
 40
0
 40
1
 40
1
 40
1
 40
1
 10
309.190013
 20
848.621294
 30
0.0
 10
309.188305
 20
850.968383
 30
0.0
 10
307.285135
 20
852.870169
 30
0.0
 10
304.938045
 20
852.870169
 30
0.0
  0
SPLINE
  5
1aa
100
AcDbEntity
  8
AXES
 62
5
100
AcDbSpline
 70
8
 71
3
 72
8
 73
4
 74
0
 40
0
 40
0
 40
0
 40
0
 40
1
 40
1
 40
1
 40
1
 10
304.938045
 20
852.870169
 30
0.0
 10
302.590955
 20
852.870169
 30
0.0
 10
300.687785
 20
850.968383
 30
0.0
 10
300.686078
 20
848.621294
 30
0.0
  0
SPLINE
  5
1ab
100
AcDbEntity
  8
AXES
 62
5
100
AcDbSpline
 70
8
 71
3
 72
8
 73
4
 74
0
 40
0
 40
0
 40
0
 40
0
 40
1
 40
1
 40
1
 40
1
 10
343.205760
 20
848.621294
 30
0.0
 10
343.204053
 20
850.968383
 30
0.0
 10
341.300882
 20
852.870169
 30
0.0
 10
338.953792
 20
852.870169
 30
0.0
  0
SPLINE
  5
1ac
100
AcDbEntity
  8
AXES
 62
5
100
AcDbSpline
 70
8
 71
3
 72
8
 73
4
 74
0
 40
0
 40
0
 40
0
 40
0
 40
1
 40
1
 40
1
 40
1
 10
338.953792
 20
852.870169
 30
0.0
 10
336.606703
 20
852.870169
 30
0.0
 10
334.703532
 20
850.968383
 30
0.0
 10
334.701825
 20
848.621294
 30
0.0
  0
SPLINE
  5
1ad
100
AcDbEntity
  8
AXES
 62
5
100
AcDbSpline
 70
8
 71
3
 72
8
 73
4
 74
0
 40
0
 40
0
 40
0
 40
0
 40
1
 40
1
 40
1
 40
1
 10
377.221515
 20
848.621294
 30
0.0
 10
377.221515
 20
850.140377
 30
0.0
 10
376.411094
 20
851.544067
 30
0.0
 10
375.095529
 20
852.303609
 30
0.0
  0
SPLINE
  5
1ae
100
AcDbEntity
  8
AXES
 62
5
100
AcDbSpline
 70
8
 71
3
 72
8
 73
4
 74
0
 40
0
 40
0
 40
0
 40
0
 40
1
 40
1
 40
1
 40
1
 10
375.095529
 20
852.303609
 30
0.0
 10
373.779965
 20
853.063150
 30
0.0
 10
372.159123
 20
853.063150
 30
0.0
 10
370.843558
 20
852.303609
 30
0.0
  0
SPLINE
  5
1af
100
AcDbEntity
  8
AXES
 62
5
100
AcDbSpline
 70
8
 71
3
 72
8
 73
4
 74
0
 40
0
 40
0
 40
0
 40
0
 40
1
 40
1
 40
1
 40
1
 10
370.843558
 20
852.303609
 30
0.0
 10
369.527994
 20
851.544067
 30
0.0
 10
368.717573
 20
850.140377
 30
0.0
 10
368.717573
 20
848.621294
 30
0.0
  0
SPLINE
  5
1b0
100
AcDbEntity
  8
AXES
 62
5
100
AcDbSpline
 70
8
 71
3
 72
8
 73
4
 74
0
 40
0
 40
0
 40
0
 40
0
 40
1
 40
1
 40
1
 40
1
 10
411.237263
 20
848.621294
 30
0.0
 10
411.237262
 20
850.969592
 30
0.0
 10
409.333590
 20
852.873264
 30
0.0
 10
406.985291
 20
852.873264
 30
0.0
  0
SPLINE
  5
1b1
100
AcDbEntity
  8
AXES
 62
5
100
AcDbSpline
 70
8
 71
3
 72
8
 73
4
 74
0
 40
0
 40
0
 40
0
 40
0
 40
1
 40
1
 40
1
 40
1
 10
406.985291
 20
852.873264
 30
0.0
 10
404.636993
 20
852.873264
 30
0.0
 10
402.733320
 20
850.969592
 30
0.0
 10
402.733320
 20
848.621294
 30
0.0
  0
SPLINE
  5
1b2
100
AcDbEntity
  8
AXES
 62
5
100
AcDbSpline
 70
8
 71
3
 72
8
 73
4
 74
0
 40
0
 40
0
 40
0
 40
0
 40
1
 40
1
 40
1
 40
1
 10
445.253010
 20
848.621294
 30
0.0
 10
445.253010
 20
850.969592
 30
0.0
 10
443.349337
 20
852.873264
 30
0.0
 10
441.001039
 20
852.873264
 30
0.0
  0
SPLINE
  5
1b3
100
AcDbEntity
  8
AXES
 62
5
100
AcDbSpline
 70
8
 71
3
 72
8
 73
4
 74
0
 40
0
 40
0
 40
0
 40
0
 40
1
 40
1
 40
1
 40
1
 10
441.001039
 20
852.873264
 30
0.0
 10
438.652740
 20
852.873264
 30
0.0
 10
436.749068
 20
850.969592
 30
0.0
 10
436.749068
 20
848.621294
 30
0.0
  0
SPLINE
  5
1b4
100
AcDbEntity
  8
AXES
 62
5
100
AcDbSpline
 70
8
 71
3
 72
8
 73
4
 74
0
 40
0
 40
0
 40
0
 40
0
 40
1
 40
1
 40
1
 40
1
 10
479.268757
 20
848.621294
 30
0.0
 10
479.268757
 20
850.140377
 30
0.0
 10
478.458336
 20
851.544067
 30
0.0
 10
477.142772
 20
852.303609
 30
0.0
  0
SPLINE
  5
1b5
100
AcDbEntity
  8
AXES
 62
5
100
AcDbSpline
 70
8
 71
3
 72
8
 73
4
 74
0
 40
0
 40
0
 40
0
 40
0
 40
1
 40
1
 40
1
 40
1
 10
477.142772
 20
852.303609
 30
0.0
 10
475.827207
 20
853.063150
 30
0.0
 10
474.206365
 20
853.063150
 30
0.0
 10
472.890801
 20
852.303609
 30
0.0
  0
SPLINE
  5
1b6
100
AcDbEntity
  8
AXES
 62
5
100
AcDbSpline
 70
8
 71
3
 72
8
 73
4
 74
0
 40
0
 40
0
 40
0
 40
0
 40
1
 40
1
 40
1
 40
1
 10
472.890801
 20
852.303609
 30
0.0
 10
471.575236
 20
851.544067
 30
0.0
 10
470.764815
 20
850.140377
 30
0.0
 10
470.764815
 20
848.621294
 30
0.0
  0
SPLINE
  5
1b7
100
AcDbEntity
  8
AXES
 62
5
100
AcDbSpline
 70
8
 71
3
 72
8
 73
4
 74
0
 40
0
 40
0
 40
0
 40
0
 40
1
 40
1
 40
1
 40
1
 10
513.284505
 20
848.621294
 30
0.0
 10
513.283111
 20
850.968604
 30
0.0
 10
511.379849
 20
852.870736
 30
0.0
 10
509.032538
 20
852.870736
 30
0.0
  0
SPLINE
  5
1b8
100
AcDbEntity
  8
AXES
 62
5
100
AcDbSpline
 70
8
 71
3
 72
8
 73
4
 74
0
 40
0
 40
0
 40
0
 40
0
 40
1
 40
1
 40
1
 40
1
 10
509.032538
 20
852.870736
 30
0.0
 10
506.685226
 20
852.870736
 30
0.0
 10
504.781964
 20
850.968604
 30
0.0
 10
504.780570
 20
848.621294
 30
0.0
  0
SPLINE
  5
1b9
100
AcDbEntity
  8
AXES
 62
5
100
AcDbSpline
 70
8
 71
3
 72
8
 73
4
 74
0
 40
0
 40
0
 40
0
 40
0
 40
1
 40
1
 40
1
 40
1
 10
547.300253
 20
848.621294
 30
0.0
 10
547.298545
 20
850.968383
 30
0.0
 10
545.395375
 20
852.870169
 30
0.0
 10
543.048285
 20
852.870169
 30
0.0
  0
SPLINE
  5
1ba
100
AcDbEntity
  8
AXES
 62
5
100
AcDbSpline
 70
8
 71
3
 72
8
 73
4
 74
0
 40
0
 40
0
 40
0
 40
0
 40
1
 40
1
 40
1
 40
1
 10
543.048285
 20
852.870169
 30
0.0
 10
540.701195
 20
852.870169
 30
0.0
 10
538.798025
 20
850.968383
 30
0.0
 10
538.796317
 20
848.621294
 30
0.0
  0
SPLINE
  5
1bb
100
AcDbEntity
  8
AXES
 62
5
100
AcDbSpline
 70
8
 71
3
 72
8
 73
4
 74
0
 40
0
 40
0
 40
0
 40
0
 40
1
 40
1
 40
1
 40
1
 10
581.316000
 20
848.621294
 30
0.0
 10
581.314293
 20
850.968383
 30
0.0
 10
579.411122
 20
852.870169
 30
0.0
 10
577.064032
 20
852.870169
 30
0.0
  0
SPLINE
  5
1bc
100
AcDbEntity
  8
AXES
 62
5
100
AcDbSpline
 70
8
 71
3
 72
8
 73
4
 74
0
 40
0
 40
0
 40
0
 40
0
 40
1
 40
1
 40
1
 40
1
 10
577.064032
 20
852.870169
 30
0.0
 10
574.716943
 20
852.870169
 30
0.0
 10
572.813772
 20
850.968383
 30
0.0
 10
572.812065
 20
848.621294
 30
0.0
  0
SPLINE
  5
1bd
100
AcDbEntity
  8
AXES
 62
5
100
AcDbSpline
 70
8
 71
3
 72
8
 73
4
 74
0
 40
0
 40
0
 40
0
 40
0
 40
1
 40
1
 40
1
 40
1
 10
275.174265
 20
848.621294
 30
0.0
 10
275.172871
 20
850.968604
 30
0.0
 10
273.269609
 20
852.870736
 30
0.0
 10
270.922298
 20
852.870736
 30
0.0
  0
SPLINE
  5
1be
100
AcDbEntity
  8
AXES
 62
5
100
AcDbSpline
 70
8
 71
3
 72
8
 73
4
 74
0
 40
0
 40
0
 40
0
 40
0
 40
1
 40
1
 40
1
 40
1
 10
270.922298
 20
852.870736
 30
0.0
 10
268.574986
 20
852.870736
 30
0.0
 10
266.671724
 20
850.968604
 30
0.0
 10
266.670330
 20
848.621294
 30
0.0
  0
SPLINE
  5
1bf
100
AcDbEntity
  8
AXES
 62
5
100
AcDbSpline
 70
8
 71
3
 72
8
 73
4
 74
0
 40
0
 40
0
 40
0
 40
0
 40
1
 40
1
 40
1
 40
1
 10
603.993165
 20
824.526806
 30
0.0
 10
604.744960
 20
824.526805
 30
0.0
 10
605.465964
 20
824.825454
 30
0.0
 10
605.997563
 20
825.357054
 30
0.0
  0
SPLINE
  5
1c0
100
AcDbEntity
  8
AXES
 62
5
100
AcDbSpline
 70
8
 71
3
 72
8
 73
4
 74
0
 40
0
 40
0
 40
0
 40
0
 40
1
 40
1
 40
1
 40
1
 10
605.997563
 20
825.357054
 30
0.0
 10
606.529163
 20
825.888653
 30
0.0
 10
606.827812
 20
826.609656
 30
0.0
 10
606.827812
 20
827.361452
 30
0.0
  0
SPLINE
  5
1c1
100
AcDbEntity
  8
AXES
 62
5
100
AcDbSpline
 70
8
 71
3
 72
8
 73
4
 74
0
 40
0
 40
0
 40
0
 40
0
 40
1
 40
1
 40
1
 40
1
 10
615.331748
 20
827.361452
 30
0.0
 10
615.331748
 20
826.609656
 30
0.0
 10
615.630397
 20
825.888653
 30
0.0
 10
616.161997
 20
825.357054
 30
0.0
  0
SPLINE
  5
1c2
100
AcDbEntity
  8
AXES
 62
5
100
AcDbSpline
 70
8
 71
3
 72
8
 73
4
 74
0
 40
0
 40
0
 40
0
 40
0
 40
1
 40
1
 40
1
 40
1
 10
616.161997
 20
825.357054
 30
0.0
 10
616.693596
 20
824.825454
 30
0.0
 10
617.414600
 20
824.526805
 30
0.0
 10
618.166395
 20
824.526806
 30
0.0
  0
SPLINE
  5
1c3
100
AcDbEntity
  8
AXES
 62
5
100
AcDbSpline
 70
8
 71
3
 72
8
 73
4
 74
0
 40
0
 40
0
 40
0
 40
0
 40
1
 40
1
 40
1
 40
1
 10
615.331748
 20
848.621294
 30
0.0
 10
615.330040
 20
850.968383
 30
0.0
 10
613.426870
 20
852.870169
 30
0.0
 10
611.079780
 20
852.870169
 30
0.0
  0
SPLINE
  5
1c4
100
AcDbEntity
  8
AXES
 62
5
100
AcDbSpline
 70
8
 71
3
 72
8
 73
4
 74
0
 40
0
 40
0
 40
0
 40
0
 40
1
 40
1
 40
1
 40
1
 10
611.079780
 20
852.870169
 30
0.0
 10
608.732690
 20
852.870169
 30
0.0
 10
606.829520
 20
850.968383
 30
0.0
 10
606.827812
 20
848.621294
 30
0.0
  0
SPLINE
  5
1c5
100
AcDbEntity
  8
AXES
 62
5
100
AcDbSpline
 70
8
 71
3
 72
8
 73
4
 74
0
 40
0
 40
0
 40
0
 40
0
 40
1
 40
1
 40
1
 40
1
 10
683.363242
 20
848.621294
 30
0.0
 10
683.361535
 20
850.968383
 30
0.0
 10
681.458365
 20
852.870169
 30
0.0
 10
679.111275
 20
852.870169
 30
0.0
  0
SPLINE
  5
1c6
100
AcDbEntity
  8
AXES
 62
5
100
AcDbSpline
 70
8
 71
3
 72
8
 73
4
 74
0
 40
0
 40
0
 40
0
 40
0
 40
1
 40
1
 40
1
 40
1
 10
679.111275
 20
852.870169
 30
0.0
 10
676.764185
 20
852.870169
 30
0.0
 10
674.861015
 20
850.968383
 30
0.0
 10
674.859307
 20
848.621294
 30
0.0
  0
SPLINE
  5
1c7
100
AcDbEntity
  8
AXES
 62
5
100
AcDbSpline
 70
8
 71
3
 72
8
 73
4
 74
0
 40
0
 40
0
 40
0
 40
0
 40
1
 40
1
 40
1
 40
1
 10
572.812065
 20
913.818144
 30
0.0
 10
572.813772
 20
911.471055
 30
0.0
 10
574.716943
 20
909.569269
 30
0.0
 10
577.064032
 20
909.569269
 30
0.0
  0
SPLINE
  5
1c8
100
AcDbEntity
  8
AXES
 62
5
100
AcDbSpline
 70
8
 71
3
 72
8
 73
4
 74
0
 40
0
 40
0
 40
0
 40
0
 40
1
 40
1
 40
1
 40
1
 10
577.064032
 20
909.569269
 30
0.0
 10
579.411122
 20
909.569269
 30
0.0
 10
581.314293
 20
911.471055
 30
0.0
 10
581.316000
 20
913.818144
 30
0.0
  0
SPLINE
  5
1c9
100
AcDbEntity
  8
AXES
 62
5
100
AcDbSpline
 70
8
 71
3
 72
8
 73
4
 74
0
 40
0
 40
0
 40
0
 40
0
 40
1
 40
1
 40
1
 40
1
 10
538.796317
 20
913.818144
 30
0.0
 10
538.798025
 20
911.471055
 30
0.0
 10
540.701195
 20
909.569269
 30
0.0
 10
543.048285
 20
909.569269
 30
0.0
  0
SPLINE
  5
1ca
100
AcDbEntity
  8
AXES
 62
5
100
AcDbSpline
 70
8
 71
3
 72
8
 73
4
 74
0
 40
0
 40
0
 40
0
 40
0
 40
1
 40
1
 40
1
 40
1
 10
543.048285
 20
909.569269
 30
0.0
 10
545.395375
 20
909.569269
 30
0.0
 10
547.298545
 20
911.471055
 30
0.0
 10
547.300253
 20
913.818144
 30
0.0
  0
SPLINE
  5
1cb
100
AcDbEntity
  8
AXES
 62
5
100
AcDbSpline
 70
8
 71
3
 72
8
 73
4
 74
0
 40
0
 40
0
 40
0
 40
0
 40
1
 40
1
 40
1
 40
1
 10
504.780570
 20
913.818144
 30
0.0
 10
504.781964
 20
911.470833
 30
0.0
 10
506.685226
 20
909.568701
 30
0.0
 10
509.032538
 20
909.568701
 30
0.0
  0
SPLINE
  5
1cc
100
AcDbEntity
  8
AXES
 62
5
100
AcDbSpline
 70
8
 71
3
 72
8
 73
4
 74
0
 40
0
 40
0
 40
0
 40
0
 40
1
 40
1
 40
1
 40
1
 10
509.032538
 20
909.568701
 30
0.0
 10
511.379849
 20
909.568701
 30
0.0
 10
513.283111
 20
911.470833
 30
0.0
 10
513.284505
 20
913.818144
 30
0.0
  0
SPLINE
  5
1cd
100
AcDbEntity
  8
AXES
 62
5
100
AcDbSpline
 70
8
 71
3
 72
8
 73
4
 74
0
 40
0
 40
0
 40
0
 40
0
 40
1
 40
1
 40
1
 40
1
 10
470.764815
 20
913.818144
 30
0.0
 10
470.764815
 20
912.299061
 30
0.0
 10
471.575236
 20
910.895370
 30
0.0
 10
472.890801
 20
910.135829
 30
0.0
  0
SPLINE
  5
1ce
100
AcDbEntity
  8
AXES
 62
5
100
AcDbSpline
 70
8
 71
3
 72
8
 73
4
 74
0
 40
0
 40
0
 40
0
 40
0
 40
1
 40
1
 40
1
 40
1
 10
472.890801
 20
910.135829
 30
0.0
 10
474.206365
 20
909.376287
 30
0.0
 10
475.827207
 20
909.376287
 30
0.0
 10
477.142772
 20
910.135829
 30
0.0
  0
SPLINE
  5
1cf
100
AcDbEntity
  8
AXES
 62
5
100
AcDbSpline
 70
8
 71
3
 72
8
 73
4
 74
0
 40
0
 40
0
 40
0
 40
0
 40
1
 40
1
 40
1
 40
1
 10
477.142772
 20
910.135829
 30
0.0
 10
478.458336
 20
910.895370
 30
0.0
 10
479.268757
 20
912.299061
 30
0.0
 10
479.268757
 20
913.818144
 30
0.0
  0
SPLINE
  5
1d0
100
AcDbEntity
  8
AXES
 62
5
100
AcDbSpline
 70
8
 71
3
 72
8
 73
4
 74
0
 40
0
 40
0
 40
0
 40
0
 40
1
 40
1
 40
1
 40
1
 10
436.749068
 20
913.818144
 30
0.0
 10
436.749068
 20
911.469845
 30
0.0
 10
438.652740
 20
909.566173
 30
0.0
 10
441.001039
 20
909.566173
 30
0.0
  0
SPLINE
  5
1d1
100
AcDbEntity
  8
AXES
 62
5
100
AcDbSpline
 70
8
 71
3
 72
8
 73
4
 74
0
 40
0
 40
0
 40
0
 40
0
 40
1
 40
1
 40
1
 40
1
 10
441.001039
 20
909.566173
 30
0.0
 10
443.349337
 20
909.566173
 30
0.0
 10
445.253010
 20
911.469845
 30
0.0
 10
445.253010
 20
913.818144
 30
0.0
  0
SPLINE
  5
1d2
100
AcDbEntity
  8
AXES
 62
5
100
AcDbSpline
 70
8
 71
3
 72
8
 73
4
 74
0
 40
0
 40
0
 40
0
 40
0
 40
1
 40
1
 40
1
 40
1
 10
402.733320
 20
913.818144
 30
0.0
 10
402.733320
 20
912.299061
 30
0.0
 10
403.543741
 20
910.895370
 30
0.0
 10
404.859306
 20
910.135829
 30
0.0
  0
SPLINE
  5
1d3
100
AcDbEntity
  8
AXES
 62
5
100
AcDbSpline
 70
8
 71
3
 72
8
 73
4
 74
0
 40
0
 40
0
 40
0
 40
0
 40
1
 40
1
 40
1
 40
1
 10
404.859306
 20
910.135829
 30
0.0
 10
406.174870
 20
909.376287
 30
0.0
 10
407.795712
 20
909.376287
 30
0.0
 10
409.111277
 20
910.135829
 30
0.0
  0
SPLINE
  5
1d4
100
AcDbEntity
  8
AXES
 62
5
100
AcDbSpline
 70
8
 71
3
 72
8
 73
4
 74
0
 40
0
 40
0
 40
0
 40
0
 40
1
 40
1
 40
1
 40
1
 10
409.111277
 20
910.135829
 30
0.0
 10
410.426841
 20
910.895370
 30
0.0
 10
411.237262
 20
912.299061
 30
0.0
 10
411.237262
 20
913.818144
 30
0.0
  0
SPLINE
  5
1d5
100
AcDbEntity
  8
AXES
 62
5
100
AcDbSpline
 70
8
 71
3
 72
8
 73
4
 74
0
 40
0
 40
0
 40
0
 40
0
 40
1
 40
1
 40
1
 40
1
 10
368.717573
 20
913.818144
 30
0.0
 10
368.717573
 20
912.299061
 30
0.0
 10
369.527994
 20
910.895370
 30
0.0
 10
370.843558
 20
910.135829
 30
0.0
  0
SPLINE
  5
1d6
100
AcDbEntity
  8
AXES
 62
5
100
AcDbSpline
 70
8
 71
3
 72
8
 73
4
 74
0
 40
0
 40
0
 40
0
 40
0
 40
1
 40
1
 40
1
 40
1
 10
370.843558
 20
910.135829
 30
0.0
 10
372.159123
 20
909.376287
 30
0.0
 10
373.779965
 20
909.376287
 30
0.0
 10
375.095529
 20
910.135829
 30
0.0
  0
SPLINE
  5
1d7
100
AcDbEntity
  8
AXES
 62
5
100
AcDbSpline
 70
8
 71
3
 72
8
 73
4
 74
0
 40
0
 40
0
 40
0
 40
0
 40
1
 40
1
 40
1
 40
1
 10
375.095529
 20
910.135829
 30
0.0
 10
376.411094
 20
910.895370
 30
0.0
 10
377.221515
 20
912.299061
 30
0.0
 10
377.221515
 20
913.818144
 30
0.0
  0
SPLINE
  5
1d8
100
AcDbEntity
  8
AXES
 62
5
100
AcDbSpline
 70
8
 71
3
 72
8
 73
4
 74
0
 40
0
 40
0
 40
0
 40
0
 40
1
 40
1
 40
1
 40
1
 10
334.701825
 20
913.818144
 30
0.0
 10
334.703532
 20
911.471055
 30
0.0
 10
336.606703
 20
909.569269
 30
0.0
 10
338.953792
 20
909.569269
 30
0.0
  0
SPLINE
  5
1d9
100
AcDbEntity
  8
AXES
 62
5
100
AcDbSpline
 70
8
 71
3
 72
8
 73
4
 74
0
 40
0
 40
0
 40
0
 40
0
 40
1
 40
1
 40
1
 40
1
 10
338.953792
 20
909.569269
 30
0.0
 10
341.300882
 20
909.569269
 30
0.0
 10
343.204053
 20
911.471055
 30
0.0
 10
343.205760
 20
913.818144
 30
0.0
  0
SPLINE
  5
1da
100
AcDbEntity
  8
AXES
 62
5
100
AcDbSpline
 70
8
 71
3
 72
8
 73
4
 74
0
 40
0
 40
0
 40
0
 40
0
 40
1
 40
1
 40
1
 40
1
 10
300.686077
 20
913.818144
 30
0.0
 10
300.687785
 20
911.471055
 30
0.0
 10
302.590955
 20
909.569269
 30
0.0
 10
304.938045
 20
909.569269
 30
0.0
  0
SPLINE
  5
1db
100
AcDbEntity
  8
AXES
 62
5
100
AcDbSpline
 70
8
 71
3
 72
8
 73
4
 74
0
 40
0
 40
0
 40
0
 40
0
 40
1
 40
1
 40
1
 40
1
 10
304.938045
 20
909.569269
 30
0.0
 10
307.285135
 20
909.569269
 30
0.0
 10
309.188305
 20
911.471055
 30
0.0
 10
309.190012
 20
913.818144
 30
0.0
  0
SPLINE
  5
1dc
100
AcDbEntity
  8
AXES
 62
5
100
AcDbSpline
 70
8
 71
3
 72
8
 73
4
 74
0
 40
0
 40
0
 40
0
 40
0
 40
1
 40
1
 40
1
 40
1
 10
266.670330
 20
913.818144
 30
0.0
 10
266.671724
 20
911.470833
 30
0.0
 10
268.574986
 20
909.568701
 30
0.0
 10
270.922298
 20
909.568701
 30
0.0
  0
SPLINE
  5
1dd
100
AcDbEntity
  8
AXES
 62
5
100
AcDbSpline
 70
8
 71
3
 72
8
 73
4
 74
0
 40
0
 40
0
 40
0
 40
0
 40
1
 40
1
 40
1
 40
1
 10
270.922298
 20
909.568701
 30
0.0
 10
273.269609
 20
909.568701
 30
0.0
 10
275.172871
 20
911.470833
 30
0.0
 10
275.174265
 20
913.818144
 30
0.0
  0
SPLINE
  5
1de
100
AcDbEntity
  8
AXES
 62
5
100
AcDbSpline
 70
8
 71
3
 72
8
 73
4
 74
0
 40
0
 40
0
 40
0
 40
0
 40
1
 40
1
 40
1
 40
1
 10
584.150648
 20
937.912635
 30
0.0
 10
583.398852
 20
937.912635
 30
0.0
 10
582.677848
 20
937.613986
 30
0.0
 10
582.146249
 20
937.082387
 30
0.0
  0
SPLINE
  5
1df
100
AcDbEntity
  8
AXES
 62
5
100
AcDbSpline
 70
8
 71
3
 72
8
 73
4
 74
0
 40
0
 40
0
 40
0
 40
0
 40
1
 40
1
 40
1
 40
1
 10
582.146249
 20
937.082387
 30
0.0
 10
581.614649
 20
936.550787
 30
0.0
 10
581.316000
 20
935.829783
 30
0.0
 10
581.316000
 20
935.077988
 30
0.0
  0
SPLINE
  5
1e0
100
AcDbEntity
  8
AXES
 62
5
100
AcDbSpline
 70
8
 71
3
 72
8
 73
4
 74
0
 40
0
 40
0
 40
0
 40
0
 40
1
 40
1
 40
1
 40
1
 10
572.812065
 20
935.077988
 30
0.0
 10
572.812065
 20
935.829783
 30
0.0
 10
572.513416
 20
936.550787
 30
0.0
 10
571.981816
 20
937.082387
 30
0.0
  0
SPLINE
  5
1e1
100
AcDbEntity
  8
AXES
 62
5
100
AcDbSpline
 70
8
 71
3
 72
8
 73
4
 74
0
 40
0
 40
0
 40
0
 40
0
 40
1
 40
1
 40
1
 40
1
 10
571.981816
 20
937.082387
 30
0.0
 10
571.450217
 20
937.613986
 30
0.0
 10
570.729213
 20
937.912635
 30
0.0
 10
569.977418
 20
937.912635
 30
0.0
  0
SPLINE
  5
1e2
100
AcDbEntity
  8
AXES
 62
5
100
AcDbSpline
 70
8
 71
3
 72
8
 73
4
 74
0
 40
0
 40
0
 40
0
 40
0
 40
1
 40
1
 40
1
 40
1
 10
550.134900
 20
937.912635
 30
0.0
 10
549.383105
 20
937.912635
 30
0.0
 10
548.662101
 20
937.613986
 30
0.0
 10
548.130501
 20
937.082387
 30
0.0
  0
SPLINE
  5
1e3
100
AcDbEntity
  8
AXES
 62
5
100
AcDbSpline
 70
8
 71
3
 72
8
 73
4
 74
0
 40
0
 40
0
 40
0
 40
0
 40
1
 40
1
 40
1
 40
1
 10
548.130501
 20
937.082387
 30
0.0
 10
547.598901
 20
936.550787
 30
0.0
 10
547.300252
 20
935.829783
 30
0.0
 10
547.300253
 20
935.077988
 30
0.0
  0
SPLINE
  5
1e4
100
AcDbEntity
  8
AXES
 62
5
100
AcDbSpline
 70
8
 71
3
 72
8
 73
4
 74
0
 40
0
 40
0
 40
0
 40
0
 40
1
 40
1
 40
1
 40
1
 10
538.796317
 20
935.077988
 30
0.0
 10
538.796318
 20
935.829783
 30
0.0
 10
538.497669
 20
936.550787
 30
0.0
 10
537.966069
 20
937.082387
 30
0.0
  0
SPLINE
  5
1e5
100
AcDbEntity
  8
AXES
 62
5
100
AcDbSpline
 70
8
 71
3
 72
8
 73
4
 74
0
 40
0
 40
0
 40
0
 40
0
 40
1
 40
1
 40
1
 40
1
 10
537.966069
 20
937.082387
 30
0.0
 10
537.434469
 20
937.613986
 30
0.0
 10
536.713465
 20
937.912635
 30
0.0
 10
535.961670
 20
937.912635
 30
0.0
  0
SPLINE
  5
1e6
100
AcDbEntity
  8
AXES
 62
5
100
AcDbSpline
 70
8
 71
3
 72
8
 73
4
 74
0
 40
0
 40
0
 40
0
 40
0
 40
1
 40
1
 40
1
 40
1
 10
516.119152
 20
937.912635
 30
0.0
 10
515.367357
 20
937.912635
 30
0.0
 10
514.646353
 20
937.613986
 30
0.0
 10
514.114754
 20
937.082387
 30
0.0
  0
SPLINE
  5
1e7
100
AcDbEntity
  8
AXES
 62
5
100
AcDbSpline
 70
8
 71
3
 72
8
 73
4
 74
0
 40
0
 40
0
 40
0
 40
0
 40
1
 40
1
 40
1
 40
1
 10
514.114754
 20
937.082387
 30
0.0
 10
513.583154
 20
936.550787
 30
0.0
 10
513.284505
 20
935.829783
 30
0.0
 10
513.284505
 20
935.077988
 30
0.0
  0
SPLINE
  5
1e8
100
AcDbEntity
  8
AXES
 62
5
100
AcDbSpline
 70
8
 71
3
 72
8
 73
4
 74
0
 40
0
 40
0
 40
0
 40
0
 40
1
 40
1
 40
1
 40
1
 10
504.780570
 20
935.077988
 30
0.0
 10
504.780570
 20
935.829783
 30
0.0
 10
504.481921
 20
936.550787
 30
0.0
 10
503.950321
 20
937.082387
 30
0.0
  0
SPLINE
  5
1e9
100
AcDbEntity
  8
AXES
 62
5
100
AcDbSpline
 70
8
 71
3
 72
8
 73
4
 74
0
 40
0
 40
0
 40
0
 40
0
 40
1
 40
1
 40
1
 40
1
 10
503.950321
 20
937.082387
 30
0.0
 10
503.418722
 20
937.613986
 30
0.0
 10
502.697718
 20
937.912635
 30
0.0
 10
501.945923
 20
937.912635
 30
0.0
  0
SPLINE
  5
1ea
100
AcDbEntity
  8
AXES
 62
5
100
AcDbSpline
 70
8
 71
3
 72
8
 73
4
 74
0
 40
0
 40
0
 40
0
 40
0
 40
1
 40
1
 40
1
 40
1
 10
482.103398
 20
937.912635
 30
0.0
 10
480.537868
 20
937.912632
 30
0.0
 10
479.268757
 20
936.643518
 30
0.0
 10
479.268757
 20
935.077988
 30
0.0
  0
SPLINE
  5
1eb
100
AcDbEntity
  8
AXES
 62
5
100
AcDbSpline
 70
8
 71
3
 72
8
 73
4
 74
0
 40
0
 40
0
 40
0
 40
0
 40
1
 40
1
 40
1
 40
1
 10
470.764815
 20
935.077988
 30
0.0
 10
470.764816
 20
936.643518
 30
0.0
 10
469.495705
 20
937.912632
 30
0.0
 10
467.930175
 20
937.912635
 30
0.0
  0
SPLINE
  5
1ec
100
AcDbEntity
  8
AXES
 62
5
100
AcDbSpline
 70
8
 71
3
 72
8
 73
4
 74
0
 40
0
 40
0
 40
0
 40
0
 40
1
 40
1
 40
1
 40
1
 10
448.087650
 20
937.912635
 30
0.0
 10
446.522120
 20
937.912632
 30
0.0
 10
445.253009
 20
936.643518
 30
0.0
 10
445.253010
 20
935.077988
 30
0.0
  0
SPLINE
  5
1ed
100
AcDbEntity
  8
AXES
 62
5
100
AcDbSpline
 70
8
 71
3
 72
8
 73
4
 74
0
 40
0
 40
0
 40
0
 40
0
 40
1
 40
1
 40
1
 40
1
 10
436.749068
 20
935.077988
 30
0.0
 10
436.749068
 20
936.643518
 30
0.0
 10
435.479957
 20
937.912632
 30
0.0
 10
433.914427
 20
937.912635
 30
0.0
  0
SPLINE
  5
1ee
100
AcDbEntity
  8
AXES
 62
5
100
AcDbSpline
 70
8
 71
3
 72
8
 73
4
 74
0
 40
0
 40
0
 40
0
 40
0
 40
1
 40
1
 40
1
 40
1
 10
414.071902
 20
937.912635
 30
0.0
 10
412.506373
 20
937.912632
 30
0.0
 10
411.237262
 20
936.643518
 30
0.0
 10
411.237262
 20
935.077988
 30
0.0
  0
SPLINE
  5
1ef
100
AcDbEntity
  8
AXES
 62
5
100
AcDbSpline
 70
8
 71
3
 72
8
 73
4
 74
0
 40
0
 40
0
 40
0
 40
0
 40
1
 40
1
 40
1
 40
1
 10
402.733320
 20
935.077988
 30
0.0
 10
402.733321
 20
936.643518
 30
0.0
 10
401.464210
 20
937.912632
 30
0.0
 10
399.898680
 20
937.912635
 30
0.0
  0
SPLINE
  5
1f0
100
AcDbEntity
  8
AXES
 62
5
100
AcDbSpline
 70
8
 71
3
 72
8
 73
4
 74
0
 40
0
 40
0
 40
0
 40
0
 40
1
 40
1
 40
1
 40
1
 10
380.056155
 20
937.912635
 30
0.0
 10
378.490625
 20
937.912632
 30
0.0
 10
377.221514
 20
936.643518
 30
0.0
 10
377.221515
 20
935.077988
 30
0.0
  0
SPLINE
  5
1f1
100
AcDbEntity
  8
AXES
 62
5
100
AcDbSpline
 70
8
 71
3
 72
8
 73
4
 74
0
 40
0
 40
0
 40
0
 40
0
 40
1
 40
1
 40
1
 40
1
 10
368.717573
 20
935.077988
 30
0.0
 10
368.717573
 20
935.829783
 30
0.0
 10
368.418924
 20
936.550787
 30
0.0
 10
367.887324
 20
937.082387
 30
0.0
  0
SPLINE
  5
1f2
100
AcDbEntity
  8
AXES
 62
5
100
AcDbSpline
 70
8
 71
3
 72
8
 73
4
 74
0
 40
0
 40
0
 40
0
 40
0
 40
1
 40
1
 40
1
 40
1
 10
367.887324
 20
937.082387
 30
0.0
 10
367.355724
 20
937.613986
 30
0.0
 10
366.634720
 20
937.912635
 30
0.0
 10
365.882925
 20
937.912635
 30
0.0
  0
SPLINE
  5
1f3
100
AcDbEntity
  8
AXES
 62
5
100
AcDbSpline
 70
8
 71
3
 72
8
 73
4
 74
0
 40
0
 40
0
 40
0
 40
0
 40
1
 40
1
 40
1
 40
1
 10
346.040408
 20
937.912635
 30
0.0
 10
345.288612
 20
937.912635
 30
0.0
 10
344.567608
 20
937.613986
 30
0.0
 10
344.036009
 20
937.082387
 30
0.0
  0
SPLINE
  5
1f4
100
AcDbEntity
  8
AXES
 62
5
100
AcDbSpline
 70
8
 71
3
 72
8
 73
4
 74
0
 40
0
 40
0
 40
0
 40
0
 40
1
 40
1
 40
1
 40
1
 10
344.036009
 20
937.082387
 30
0.0
 10
343.504409
 20
936.550787
 30
0.0
 10
343.205760
 20
935.829783
 30
0.0
 10
343.205760
 20
935.077988
 30
0.0
  0
SPLINE
  5
1f5
100
AcDbEntity
  8
AXES
 62
5
100
AcDbSpline
 70
8
 71
3
 72
8
 73
4
 74
0
 40
0
 40
0
 40
0
 40
0
 40
1
 40
1
 40
1
 40
1
 10
334.701825
 20
935.077988
 30
0.0
 10
334.701825
 20
935.829783
 30
0.0
 10
334.403176
 20
936.550787
 30
0.0
 10
333.871576
 20
937.082387
 30
0.0
  0
SPLINE
  5
1f6
100
AcDbEntity
  8
AXES
 62
5
100
AcDbSpline
 70
8
 71
3
 72
8
 73
4
 74
0
 40
0
 40
0
 40
0
 40
0
 40
1
 40
1
 40
1
 40
1
 10
333.871576
 20
937.082387
 30
0.0
 10
333.339977
 20
937.613986
 30
0.0
 10
332.618973
 20
937.912635
 30
0.0
 10
331.867178
 20
937.912635
 30
0.0
  0
SPLINE
  5
1f7
100
AcDbEntity
  8
AXES
 62
5
100
AcDbSpline
 70
8
 71
3
 72
8
 73
4
 74
0
 40
0
 40
0
 40
0
 40
0
 40
1
 40
1
 40
1
 40
1
 10
312.024660
 20
937.912635
 30
0.0
 10
311.272865
 20
937.912635
 30
0.0
 10
310.551861
 20
937.613986
 30
0.0
 10
310.020261
 20
937.082387
 30
0.0
  0
SPLINE
  5
1f8
100
AcDbEntity
  8
AXES
 62
5
100
AcDbSpline
 70
8
 71
3
 72
8
 73
4
 74
0
 40
0
 40
0
 40
0
 40
0
 40
1
 40
1
 40
1
 40
1
 10
310.020261
 20
937.082387
 30
0.0
 10
309.488661
 20
936.550787
 30
0.0
 10
309.190012
 20
935.829783
 30
0.0
 10
309.190012
 20
935.077988
 30
0.0
  0
SPLINE
  5
1f9
100
AcDbEntity
  8
AXES
 62
5
100
AcDbSpline
 70
8
 71
3
 72
8
 73
4
 74
0
 40
0
 40
0
 40
0
 40
0
 40
1
 40
1
 40
1
 40
1
 10
300.686078
 20
935.077988
 30
0.0
 10
300.686078
 20
935.829783
 30
0.0
 10
300.387429
 20
936.550787
 30
0.0
 10
299.855829
 20
937.082387
 30
0.0
  0
SPLINE
  5
1fa
100
AcDbEntity
  8
AXES
 62
5
100
AcDbSpline
 70
8
 71
3
 72
8
 73
4
 74
0
 40
0
 40
0
 40
0
 40
0
 40
1
 40
1
 40
1
 40
1
 10
299.855829
 20
937.082387
 30
0.0
 10
299.324229
 20
937.613986
 30
0.0
 10
298.603225
 20
937.912635
 30
0.0
 10
297.851430
 20
937.912635
 30
0.0
  0
SPLINE
  5
1fb
100
AcDbEntity
  8
AXES
 62
5
100
AcDbSpline
 70
8
 71
3
 72
8
 73
4
 74
0
 40
0
 40
0
 40
0
 40
0
 40
1
 40
1
 40
1
 40
1
 10
278.008912
 20
937.912635
 30
0.0
 10
277.257117
 20
937.912635
 30
0.0
 10
276.536113
 20
937.613986
 30
0.0
 10
276.004514
 20
937.082387
 30
0.0
  0
SPLINE
  5
1fc
100
AcDbEntity
  8
AXES
 62
5
100
AcDbSpline
 70
8
 71
3
 72
8
 73
4
 74
0
 40
0
 40
0
 40
0
 40
0
 40
1
 40
1
 40
1
 40
1
 10
276.004514
 20
937.082387
 30
0.0
 10
275.472914
 20
936.550787
 30
0.0
 10
275.174265
 20
935.829783
 30
0.0
 10
275.174265
 20
935.077988
 30
0.0
  0
SPLINE
  5
1fd
100
AcDbEntity
  8
AXES
 62
5
100
AcDbSpline
 70
8
 71
3
 72
8
 73
4
 74
0
 40
0
 40
0
 40
0
 40
0
 40
1
 40
1
 40
1
 40
1
 10
266.670330
 20
935.077988
 30
0.0
 10
266.670330
 20
935.829783
 30
0.0
 10
266.371681
 20
936.550787
 30
0.0
 10
265.840081
 20
937.082387
 30
0.0
  0
SPLINE
  5
1fe
100
AcDbEntity
  8
AXES
 62
5
100
AcDbSpline
 70
8
 71
3
 72
8
 73
4
 74
0
 40
0
 40
0
 40
0
 40
0
 40
1
 40
1
 40
1
 40
1
 10
265.840081
 20
937.082387
 30
0.0
 10
265.308482
 20
937.613986
 30
0.0
 10
264.587478
 20
937.912635
 30
0.0
 10
263.835683
 20
937.912635
 30
0.0
  0
SPLINE
  5
1ff
100
AcDbEntity
  8
AXES
 62
5
100
AcDbSpline
 70
8
 71
3
 72
8
 73
4
 74
0
 40
0
 40
0
 40
0
 40
0
 40
1
 40
1
 40
1
 40
1
 10
674.859307
 20
913.818144
 30
0.0
 10
674.861015
 20
911.471055
 30
0.0
 10
676.764185
 20
909.569269
 30
0.0
 10
679.111275
 20
909.569269
 30
0.0
  0
SPLINE
  5
200
100
AcDbEntity
  8
AXES
 62
5
100
AcDbSpline
 70
8
 71
3
 72
8
 73
4
 74
0
 40
0
 40
0
 40
0
 40
0
 40
1
 40
1
 40
1
 40
1
 10
679.111275
 20
909.569269
 30
0.0
 10
681.458365
 20
909.569269
 30
0.0
 10
683.361535
 20
911.471055
 30
0.0
 10
683.363242
 20
913.818144
 30
0.0
  0
SPLINE
  5
201
100
AcDbEntity
  8
AXES
 62
5
100
AcDbSpline
 70
8
 71
3
 72
8
 73
4
 74
0
 40
0
 40
0
 40
0
 40
0
 40
1
 40
1
 40
1
 40
1
 10
606.827812
 20
913.818144
 30
0.0
 10
606.829520
 20
911.471055
 30
0.0
 10
608.732690
 20
909.569269
 30
0.0
 10
611.079780
 20
909.569269
 30
0.0
  0
SPLINE
  5
202
100
AcDbEntity
  8
AXES
 62
5
100
AcDbSpline
 70
8
 71
3
 72
8
 73
4
 74
0
 40
0
 40
0
 40
0
 40
0
 40
1
 40
1
 40
1
 40
1
 10
611.079780
 20
909.569269
 30
0.0
 10
613.426870
 20
909.569269
 30
0.0
 10
615.330040
 20
911.471055
 30
0.0
 10
615.331748
 20
913.818144
 30
0.0
  0
SPLINE
  5
203
100
AcDbEntity
  8
AXES
 62
5
100
AcDbSpline
 70
8
 71
3
 72
8
 73
4
 74
0
 40
0
 40
0
 40
0
 40
0
 40
1
 40
1
 40
1
 40
1
 10
618.166395
 20
937.912635
 30
0.0
 10
617.414600
 20
937.912635
 30
0.0
 10
616.693596
 20
937.613986
 30
0.0
 10
616.161996
 20
937.082387
 30
0.0
  0
SPLINE
  5
204
100
AcDbEntity
  8
AXES
 62
5
100
AcDbSpline
 70
8
 71
3
 72
8
 73
4
 74
0
 40
0
 40
0
 40
0
 40
0
 40
1
 40
1
 40
1
 40
1
 10
616.161996
 20
937.082387
 30
0.0
 10
615.630396
 20
936.550787
 30
0.0
 10
615.331747
 20
935.829783
 30
0.0
 10
615.331748
 20
935.077988
 30
0.0
  0
SPLINE
  5
205
100
AcDbEntity
  8
AXES
 62
5
100
AcDbSpline
 70
8
 71
3
 72
8
 73
4
 74
0
 40
0
 40
0
 40
0
 40
0
 40
1
 40
1
 40
1
 40
1
 10
606.827812
 20
935.077988
 30
0.0
 10
606.827813
 20
935.829783
 30
0.0
 10
606.529164
 20
936.550787
 30
0.0
 10
605.997564
 20
937.082387
 30
0.0
  0
SPLINE
  5
206
100
AcDbEntity
  8
AXES
 62
5
100
AcDbSpline
 70
8
 71
3
 72
8
 73
4
 74
0
 40
0
 40
0
 40
0
 40
0
 40
1
 40
1
 40
1
 40
1
 10
605.997564
 20
937.082387
 30
0.0
 10
605.465964
 20
937.613986
 30
0.0
 10
604.744960
 20
937.912635
 30
0.0
 10
603.993165
 20
937.912635
 30
0.0
  0
LWPOLYLINE
  5
207
100
AcDbEntity
  8
AXES
 62
5
100
AcDbPolyline
 90
2
 70
0
 10
263.835683
 20
937.912635
 30
0.0
 10
235.489230
 20
937.912635
 30
0.0
  0
LWPOLYLINE
  5
208
100
AcDbEntity
  8
COPIE_GEOM
 62
5
100
AcDbPolyline
 90
2
 70
0
 10
640.843560
 20
935.077988
 30
0.0
 10
640.843560
 20
913.818144
 30
0.0
  0
LWPOLYLINE
  5
209
100
AcDbEntity
  8
COPIE_GEOM
 62
5
100
AcDbPolyline
 90
2
 70
0
 10
640.843560
 20
827.361452
 30
0.0
 10
640.843560
 20
848.621294
 30
0.0
  0
LWPOLYLINE
  5
20a
100
AcDbEntity
  8
COPIE_GEOM
 62
5
100
AcDbPolyline
 90
2
 70
0
 10
649.347495
 20
935.077988
 30
0.0
 10
649.347495
 20
913.818144
 30
0.0
  0
LWPOLYLINE
  5
20b
100
AcDbEntity
  8
COPIE_GEOM
 62
5
100
AcDbPolyline
 90
2
 70
0
 10
649.347495
 20
827.361452
 30
0.0
 10
649.347495
 20
848.621294
 30
0.0
  0
LWPOLYLINE
  5
20c
100
AcDbEntity
  8
COPIE_GEOM
 62
5
100
AcDbPolyline
 90
2
 70
0
 10
652.182143
 20
824.526806
 30
0.0
 10
672.024660
 20
824.526806
 30
0.0
  0
SPLINE
  5
20d
100
AcDbEntity
  8
COPIE_GEOM
 62
5
100
AcDbSpline
 70
8
 71
3
 72
8
 73
4
 74
0
 40
0
 40
0
 40
0
 40
0
 40
1
 40
1
 40
1
 40
1
 10
638.008912
 20
824.526806
 30
0.0
 10
638.760708
 20
824.526805
 30
0.0
 10
639.481711
 20
824.825454
 30
0.0
 10
640.013311
 20
825.357054
 30
0.0
  0
SPLINE
  5
20e
100
AcDbEntity
  8
COPIE_GEOM
 62
5
100
AcDbSpline
 70
8
 71
3
 72
8
 73
4
 74
0
 40
0
 40
0
 40
0
 40
0
 40
1
 40
1
 40
1
 40
1
 10
640.013311
 20
825.357054
 30
0.0
 10
640.544910
 20
825.888653
 30
0.0
 10
640.843560
 20
826.609656
 30
0.0
 10
640.843560
 20
827.361452
 30
0.0
  0
SPLINE
  5
20f
100
AcDbEntity
  8
COPIE_GEOM
 62
5
100
AcDbSpline
 70
8
 71
3
 72
8
 73
4
 74
0
 40
0
 40
0
 40
0
 40
0
 40
1
 40
1
 40
1
 40
1
 10
649.347495
 20
827.361452
 30
0.0
 10
649.347495
 20
826.609656
 30
0.0
 10
649.646145
 20
825.888653
 30
0.0
 10
650.177744
 20
825.357054
 30
0.0
  0
SPLINE
  5
210
100
AcDbEntity
  8
COPIE_GEOM
 62
5
100
AcDbSpline
 70
8
 71
3
 72
8
 73
4
 74
0
 40
0
 40
0
 40
0
 40
0
 40
1
 40
1
 40
1
 40
1
 10
650.177744
 20
825.357054
 30
0.0
 10
650.709344
 20
824.825454
 30
0.0
 10
651.430347
 20
824.526805
 30
0.0
 10
652.182143
 20
824.526806
 30
0.0
  0
SPLINE
  5
211
100
AcDbEntity
  8
COPIE_GEOM
 62
5
100
AcDbSpline
 70
8
 71
3
 72
8
 73
4
 74
0
 40
0
 40
0
 40
0
 40
0
 40
1
 40
1
 40
1
 40
1
 10
649.347495
 20
848.621294
 30
0.0
 10
649.346101
 20
850.968604
 30
0.0
 10
647.442839
 20
852.870736
 30
0.0
 10
645.095528
 20
852.870736
 30
0.0
  0
SPLINE
  5
212
100
AcDbEntity
  8
COPIE_GEOM
 62
5
100
AcDbSpline
 70
8
 71
3
 72
8
 73
4
 74
0
 40
0
 40
0
 40
0
 40
0
 40
1
 40
1
 40
1
 40
1
 10
645.095528
 20
852.870736
 30
0.0
 10
642.748216
 20
852.870736
 30
0.0
 10
640.844954
 20
850.968604
 30
0.0
 10
640.843560
 20
848.621294
 30
0.0
  0
SPLINE
  5
213
100
AcDbEntity
  8
COPIE_GEOM
 62
5
100
AcDbSpline
 70
8
 71
3
 72
8
 73
4
 74
0
 40
0
 40
0
 40
0
 40
0
 40
1
 40
1
 40
1
 40
1
 10
640.843560
 20
913.818144
 30
0.0
 10
640.844954
 20
911.470833
 30
0.0
 10
642.748216
 20
909.568701
 30
0.0
 10
645.095528
 20
909.568701
 30
0.0
  0
SPLINE
  5
214
100
AcDbEntity
  8
COPIE_GEOM
 62
5
100
AcDbSpline
 70
8
 71
3
 72
8
 73
4
 74
0
 40
0
 40
0
 40
0
 40
0
 40
1
 40
1
 40
1
 40
1
 10
645.095528
 20
909.568701
 30
0.0
 10
647.442839
 20
909.568701
 30
0.0
 10
649.346101
 20
911.470833
 30
0.0
 10
649.347495
 20
913.818144
 30
0.0
  0
SPLINE
  5
215
100
AcDbEntity
  8
COPIE_GEOM
 62
5
100
AcDbSpline
 70
8
 71
3
 72
8
 73
4
 74
0
 40
0
 40
0
 40
0
 40
0
 40
1
 40
1
 40
1
 40
1
 10
652.182143
 20
937.912635
 30
0.0
 10
651.430347
 20
937.912635
 30
0.0
 10
650.709343
 20
937.613986
 30
0.0
 10
650.177744
 20
937.082387
 30
0.0
  0
SPLINE
  5
216
100
AcDbEntity
  8
COPIE_GEOM
 62
5
100
AcDbSpline
 70
8
 71
3
 72
8
 73
4
 74
0
 40
0
 40
0
 40
0
 40
0
 40
1
 40
1
 40
1
 40
1
 10
650.177744
 20
937.082387
 30
0.0
 10
649.646144
 20
936.550787
 30
0.0
 10
649.347495
 20
935.829783
 30
0.0
 10
649.347495
 20
935.077988
 30
0.0
  0
SPLINE
  5
217
100
AcDbEntity
  8
COPIE_GEOM
 62
5
100
AcDbSpline
 70
8
 71
3
 72
8
 73
4
 74
0
 40
0
 40
0
 40
0
 40
0
 40
1
 40
1
 40
1
 40
1
 10
640.843560
 20
935.077988
 30
0.0
 10
640.843560
 20
935.829783
 30
0.0
 10
640.544911
 20
936.550787
 30
0.0
 10
640.013311
 20
937.082387
 30
0.0
  0
SPLINE
  5
218
100
AcDbEntity
  8
COPIE_GEOM
 62
5
100
AcDbSpline
 70
8
 71
3
 72
8
 73
4
 74
0
 40
0
 40
0
 40
0
 40
0
 40
1
 40
1
 40
1
 40
1
 10
640.013311
 20
937.082387
 30
0.0
 10
639.481712
 20
937.613986
 30
0.0
 10
638.760708
 20
937.912635
 30
0.0
 10
638.008912
 20
937.912635
 30
0.0
  0
LWPOLYLINE
  5
219
100
AcDbEntity
  8
COPIE_GEOM
 62
5
100
AcDbPolyline
 90
2
 70
0
 10
672.024660
 20
937.912635
 30
0.0
 10
652.182143
 20
937.912635
 30
0.0
  0
ENDSEC
  0
SECTION
  2
OBJECTS
  0
DICTIONARY
  5
C
330
0
100
AcDbDictionary
  3
ACAD_GROUP
350
D
  3
ACAD_MLINESTYLE
350
17
  0
DICTIONARY
  5
D
330
C
100
AcDbDictionary
  0
DICTIONARY
  5
1A
330
C
100
AcDbDictionary
  0
DICTIONARY
  5
17
330
C
100
AcDbDictionary
  3
STANDARD
350
18
  0
DICTIONARY
  5
19
330
C
100
AcDbDictionary
  0
ENDSEC
  0
EOF
