  0
SECTION
  2
HEADER
  9
$ACADVER
  1
AC1014
  9
$HANDSEED
  5
FFFF
  9
$MEASUREMENT
 70
     1
  0
ENDSEC
  0
SECTION
  2
TABLES
  0
TABLE
  2
VPORT
  5
8
330
0
100
AcDbSymbolTable
 70
     4
  0
VPORT
  5
2E
330
8
100
AcDbSymbolTableRecord
100
AcDbViewportTableRecord
  2
*ACTIVE
 70
     0
 10
0.0
 20
0.0
 11
1.0
 21
1.0
 12
210.0
 22
148.5
 13
0.0
 23
0.0
 14
10.0
 24
10.0
 15
10.0
 25
10.0
 16
0.0
 26
0.0
 36
1.0
 17
0.0
 27
0.0
 37
0.0
 40
341.0
 41
1.24
 42
50.0
 43
0.0
 44
0.0
 50
0.0
 51
0.0
 71
     0
 72
   100
 73
     1
 74
     3
 75
     0
 76
     0
 77
     0
 78
     0
  0
ENDTAB
  0
TABLE
  2
LTYPE
  5
5
330
0
100
AcDbSymbolTable
 70
     1
  0
LTYPE
  5
14
330
5
100
AcDbSymbolTableRecord
100
AcDbLinetypeTableRecord
  2
BYBLOCK
 70
     0
  3

 72
    65
 73
     0
 40
0.0
  0
LTYPE
  5
15
330
5
100
AcDbSymbolTableRecord
100
AcDbLinetypeTableRecord
  2
BYLAYER
 70
     0
  3

 72
    65
 73
     0
 40
0.0
  0
LTYPE
  5
16
330
5
100
AcDbSymbolTableRecord
100
AcDbLinetypeTableRecord
  2
CONTINUOUS
 70
     0
  3
Solid line
 72
    65
 73
     0
 40
0.0
  0
ENDTAB
  0
TABLE
  2
LAYER
  5
2
100
AcDbSymbolTable
 70
15
  0
LAYER
  5
50
100
AcDbSymbolTableRecord
100
AcDbLayerTableRecord
  2
0
 70
0
  6
CONTINUOUS
  0
LAYER
  5
51
100
AcDbSymbolTableRecord
100
AcDbLayerTableRecord
  2
DEFAULT_1
 70
0
  6
CONTINUOUS
  0
LAYER
  5
52
100
AcDbSymbolTableRecord
100
AcDbLayerTableRecord
  2
DEFAULT_2
 70
0
  6
CONTINUOUS
  0
LAYER
  5
53
100
AcDbSymbolTableRecord
100
AcDbLayerTableRecord
  2
DEFAULT_3
 70
0
  6
CONTINUOUS
  0
LAYER
  5
54
100
AcDbSymbolTableRecord
100
AcDbLayerTableRecord
  2
AXES
 70
0
  6
CONTINUOUS
  0
LAYER
  5
55
100
AcDbSymbolTableRecord
100
AcDbLayerTableRecord
  2
COSMETIC
 70
0
  6
CONTINUOUS
  0
LAYER
  5
56
100
AcDbSymbolTableRecord
100
AcDbLayerTableRecord
  2
COURBES
 70
0
  6
CONTINUOUS
  0
LAYER
  5
57
100
AcDbSymbolTableRecord
100
AcDbLayerTableRecord
  2
FILETAGES
 70
0
  6
CONTINUOUS
  0
LAYER
  5
58
100
AcDbSymbolTableRecord
100
AcDbLayerTableRecord
  2
PLANS
 70
0
  6
CONTINUOUS
  0
LAYER
  5
59
100
AcDbSymbolTableRecord
100
AcDbLayerTableRecord
  2
PLANS_BASE_PRT
 70
0
  6
CONTINUOUS
  0
LAYER
  5
5a
100
AcDbSymbolTableRecord
100
AcDbLayerTableRecord
  2
PLANS_COUPES
 70
0
  6
CONTINUOUS
  0
LAYER
  5
5b
100
AcDbSymbolTableRecord
100
AcDbLayerTableRecord
  2
POINTS
 70
0
  6
CONTINUOUS
  0
LAYER
  5
5c
100
AcDbSymbolTableRecord
100
AcDbLayerTableRecord
  2
REPERES
 70
0
  6
CONTINUOUS
  0
LAYER
  5
5d
100
AcDbSymbolTableRecord
100
AcDbLayerTableRecord
  2
SOLIDE
 70
0
  6
CONTINUOUS
  0
LAYER
  5
5e
100
AcDbSymbolTableRecord
100
AcDbLayerTableRecord
  2
SURFACES
 70
0
  6
CONTINUOUS
  0
ENDTAB
  0
TABLE
  2
STYLE
  5
3
330
0
100
AcDbSymbolTable
 70
     1
  0
STYLE
  5
11
330
3
100
AcDbSymbolTableRecord
100
AcDbTextStyleTableRecord
  2
STANDARD
 70
     0
 40
0.0
 41
1.0
 50
0.0
 71
     0
 42
2.5
  3
txt
  4

  0
ENDTAB
  0
TABLE
  2
VIEW
  5
6
330
0
100
AcDbSymbolTable
 70
     0
  0
ENDTAB
  0
TABLE
  2
UCS
  5
7
330
0
100
AcDbSymbolTable
 70
     0
  0
ENDTAB
  0
TABLE
  2
APPID
  5
9
330
0
100
AcDbSymbolTable
 70
     2
  0
APPID
  5
12
330
9
100
AcDbSymbolTableRecord
100
AcDbRegAppTableRecord
  2
ACAD
 70
     0
  0
ENDTAB
  0
TABLE
  2
DIMSTYLE
  5
A
330
0
100
AcDbSymbolTable
 70
     1
  0
DIMSTYLE
105
27
330
A
100
AcDbSymbolTableRecord
100
AcDbDimStyleTableRecord
  2
ISO-25
 70
     0
  3

  4

  5

  6

  7

 40
1.0
 41
2.5
 42
0.625
 43
3.75
 44
1.25
 45
0.0
 46
0.0
 47
0.0
 48
0.0
140
2.5
141
2.5
142
0.0
143
0.03937007874016
144
1.0
145
0.0
146
1.0
147
0.625
 71
     0
 72
     0
 73
     0
 74
     0
 75
     0
 76
     0
 77
     1
 78
     8
170
     0
171
     3
172
     1
173
     0
174
     0
175
     0
176
     0
177
     0
178
     0
270
     2
271
     2
272
     2
273
     2
274
     3
340
11
275
     0
280
     0
281
     0
282
     0
283
     0
284
     8
285
     0
286
     0
287
     3
288
     0
  0
ENDTAB
  0
TABLE
  2
BLOCK_RECORD
  5
1
330
0
100
AcDbSymbolTable
 70
     1
  0
BLOCK_RECORD
  5
1F
330
1
100
AcDbSymbolTableRecord
100
AcDbBlockTableRecord
  2
*MODEL_SPACE
  0
BLOCK_RECORD
  5
1B
330
1
100
AcDbSymbolTableRecord
100
AcDbBlockTableRecord
  2
*PAPER_SPACE
  0
ENDTAB
  0
ENDSEC
  0
SECTION
  2
BLOCKS
  0
BLOCK
  5
20
330
1F
100
AcDbEntity
  8
0
100
AcDbBlockBegin
  2
*MODEL_SPACE
 70
     0
 10
0.0
 20
0.0
 30
0.0
  3
*MODEL_SPACE
  1

  0
ENDBLK
  5
21
330
1F
100
AcDbEntity
  8
0
100
AcDbBlockEnd
  0
BLOCK
  5
1C
330
1B
100
AcDbEntity
 67
     1
  8
0
100
AcDbBlockBegin
  2
*PAPER_SPACE
  1

  0
ENDBLK
  5
1D
330
1B
100
AcDbEntity
 67
     1
  8
0
100
AcDbBlockEnd
  0
ENDSEC
  0
SECTION
  2
ENTITIES
  0
LWPOLYLINE
  5
100
100
AcDbEntity
  8
AXES
 62
5
100
AcDbPolyline
 90
2
 70
0
 10
200.177647
 20
572.849164
 30
0.0
 10
135.242032
 20
466.424539
 30
0.0
  0
LWPOLYLINE
  5
101
100
AcDbEntity
  8
AXES
 62
5
100
AcDbPolyline
 90
2
 70
0
 10
205.414845
 20
423.608186
 30
0.0
 10
285.862710
 20
555.456236
 30
0.0
  0
LWPOLYLINE
  5
102
100
AcDbEntity
  8
AXES
 62
5
100
AcDbPolyline
 90
2
 70
0
 10
293.122050
 20
551.026901
 30
0.0
 10
267.296648
 20
508.701004
 30
0.0
  0
LWPOLYLINE
  5
103
100
AcDbEntity
  8
AXES
 62
5
100
AcDbPolyline
 90
2
 70
0
 10
266.244525
 20
496.033804
 30
0.0
 10
334.194142
 20
326.949589
 30
0.0
  0
LWPOLYLINE
  5
104
100
AcDbEntity
  8
AXES
 62
5
100
AcDbPolyline
 90
2
 70
0
 10
139.958715
 20
446.943431
 30
0.0
 10
185.933737
 20
418.891504
 30
0.0
  0
LWPOLYLINE
  5
105
100
AcDbEntity
  8
AXES
 62
5
100
AcDbPolyline
 90
2
 70
0
 10
903.287250
 20
418.891504
 30
0.0
 10
949.263075
 20
446.943911
 30
0.0
  0
LWPOLYLINE
  5
106
100
AcDbEntity
  8
AXES
 62
5
100
AcDbPolyline
 90
2
 70
0
 10
840.648825
 20
600.013226
 30
0.0
 10
813.495000
 20
600.013226
 30
0.0
  0
LWPOLYLINE
  5
107
100
AcDbEntity
  8
AXES
 62
5
100
AcDbPolyline
 90
2
 70
0
 10
275.726010
 20
600.013226
 30
0.0
 10
248.573235
 20
600.013226
 30
0.0
  0
LWPOLYLINE
  5
108
100
AcDbEntity
  8
AXES
 62
5
100
AcDbPolyline
 90
2
 70
0
 10
755.026875
 20
326.949589
 30
0.0
 10
822.976425
 20
496.033804
 30
0.0
  0
LWPOLYLINE
  5
109
100
AcDbEntity
  8
AXES
 62
5
100
AcDbPolyline
 90
2
 70
0
 10
821.924325
 20
508.701004
 30
0.0
 10
796.098900
 20
551.026901
 30
0.0
  0
LWPOLYLINE
  5
10a
100
AcDbEntity
  8
AXES
 62
5
100
AcDbPolyline
 90
2
 70
0
 10
803.358300
 20
555.456236
 30
0.0
 10
883.806150
 20
423.608186
 30
0.0
  0
SPLINE
  5
10b
100
AcDbEntity
  8
AXES
 62
5
100
AcDbSpline
 70
8
 71
3
 72
8
 73
4
 74
0
 40
0
 40
0
 40
0
 40
0
 40
1
 40
1
 40
1
 40
1
 10
320.540093
 20
578.044721
 30
0.0
 10
374.229409
 20
508.755200
 30
0.0
 10
456.954474
 20
468.202186
 30
0.0
 10
544.610509
 20
468.202186
 30
0.0
  0
SPLINE
  5
10c
100
AcDbEntity
  8
AXES
 62
5
100
AcDbSpline
 70
8
 71
3
 72
8
 73
4
 74
0
 40
0
 40
0
 40
0
 40
0
 40
1
 40
1
 40
1
 40
1
 10
544.610509
 20
468.202186
 30
0.0
 10
632.266544
 20
468.202186
 30
0.0
 10
714.991608
 20
508.755200
 30
0.0
 10
768.680925
 20
578.044721
 30
0.0
  0
SPLINE
  5
10d
100
AcDbEntity
  8
AXES
 62
5
100
AcDbSpline
 70
8
 71
3
 72
8
 73
4
 74
0
 40
0
 40
0
 40
0
 40
0
 40
1
 40
1
 40
1
 40
1
 10
889.044450
 20
572.849164
 30
0.0
 10
878.750269
 20
589.720562
 30
0.0
 10
860.412788
 20
600.013237
 30
0.0
 10
840.648825
 20
600.013226
 30
0.0
  0
SPLINE
  5
10e
100
AcDbEntity
  8
AXES
 62
5
100
AcDbSpline
 70
8
 71
3
 72
8
 73
4
 74
0
 40
0
 40
0
 40
0
 40
0
 40
1
 40
1
 40
1
 40
1
 10
813.495000
 20
600.013226
 30
0.0
 10
795.963796
 20
600.013224
 30
0.0
 10
779.418787
 20
591.902622
 30
0.0
 10
768.680925
 20
578.044721
 30
0.0
  0
SPLINE
  5
10f
100
AcDbEntity
  8
AXES
 62
5
100
AcDbSpline
 70
8
 71
3
 72
8
 73
4
 74
0
 40
0
 40
0
 40
0
 40
0
 40
1
 40
1
 40
1
 40
1
 10
320.540093
 20
578.044721
 30
0.0
 10
309.802229
 20
591.902624
 30
0.0
 10
293.257216
 20
600.013226
 30
0.0
 10
275.726010
 20
600.013226
 30
0.0
  0
SPLINE
  5
110
100
AcDbEntity
  8
AXES
 62
5
100
AcDbSpline
 70
8
 71
3
 72
8
 73
4
 74
0
 40
0
 40
0
 40
0
 40
0
 40
1
 40
1
 40
1
 40
1
 10
248.573235
 20
600.013226
 30
0.0
 10
228.809285
 20
600.013224
 30
0.0
 10
210.471822
 20
589.720550
 30
0.0
 10
200.177647
 20
572.849164
 30
0.0
  0
SPLINE
  5
111
100
AcDbEntity
  8
AXES
 62
5
100
AcDbSpline
 70
8
 71
3
 72
8
 73
4
 74
0
 40
0
 40
0
 40
0
 40
0
 40
1
 40
1
 40
1
 40
1
 10
883.806150
 20
423.608186
 30
0.0
 10
887.883234
 20
416.926157
 30
0.0
 10
896.605216
 20
414.814427
 30
0.0
 10
903.287250
 20
418.891504
 30
0.0
  0
SPLINE
  5
112
100
AcDbEntity
  8
AXES
 62
5
100
AcDbSpline
 70
8
 71
3
 72
8
 73
4
 74
0
 40
0
 40
0
 40
0
 40
0
 40
1
 40
1
 40
1
 40
1
 10
949.263075
 20
446.943911
 30
0.0
 10
952.471902
 20
448.901797
 30
0.0
 10
954.771536
 20
452.054195
 30
0.0
 10
955.656084
 20
455.707613
 30
0.0
  0
SPLINE
  5
113
100
AcDbEntity
  8
AXES
 62
5
100
AcDbSpline
 70
8
 71
3
 72
8
 73
4
 74
0
 40
0
 40
0
 40
0
 40
0
 40
1
 40
1
 40
1
 40
1
 10
955.656084
 20
455.707613
 30
0.0
 10
956.540632
 20
459.361031
 30
0.0
 10
955.937637
 20
463.216200
 30
0.0
 10
953.979750
 20
466.425026
 30
0.0
  0
SPLINE
  5
114
100
AcDbEntity
  8
AXES
 62
5
100
AcDbSpline
 70
8
 71
3
 72
8
 73
4
 74
0
 40
0
 40
0
 40
0
 40
0
 40
1
 40
1
 40
1
 40
1
 10
135.242032
 20
466.424539
 30
0.0
 10
131.164951
 20
459.742503
 30
0.0
 10
133.276681
 20
451.020516
 30
0.0
 10
139.958715
 20
446.943431
 30
0.0
  0
SPLINE
  5
115
100
AcDbEntity
  8
AXES
 62
5
100
AcDbSpline
 70
8
 71
3
 72
8
 73
4
 74
0
 40
0
 40
0
 40
0
 40
0
 40
1
 40
1
 40
1
 40
1
 10
185.933738
 20
418.891504
 30
0.0
 10
192.615773
 20
414.814422
 30
0.0
 10
201.337761
 20
416.926152
 30
0.0
 10
205.414845
 20
423.608186
 30
0.0
  0
SPLINE
  5
116
100
AcDbEntity
  8
AXES
 62
5
100
AcDbSpline
 70
8
 71
3
 72
8
 73
4
 74
0
 40
0
 40
0
 40
0
 40
0
 40
1
 40
1
 40
1
 40
1
 10
267.296647
 20
508.701004
 30
0.0
 10
264.966092
 20
504.881397
 30
0.0
 10
264.576061
 20
500.185564
 30
0.0
 10
266.244525
 20
496.033804
 30
0.0
  0
SPLINE
  5
117
100
AcDbEntity
  8
AXES
 62
5
100
AcDbSpline
 70
8
 71
3
 72
8
 73
4
 74
0
 40
0
 40
0
 40
0
 40
0
 40
1
 40
1
 40
1
 40
1
 10
822.976425
 20
496.033804
 30
0.0
 10
824.644895
 20
500.185561
 30
0.0
 10
824.254873
 20
504.881393
 30
0.0
 10
821.924325
 20
508.701004
 30
0.0
  0
SPLINE
  5
118
100
AcDbEntity
  8
AXES
 62
5
100
AcDbSpline
 70
8
 71
3
 72
8
 73
4
 74
0
 40
0
 40
0
 40
0
 40
0
 40
1
 40
1
 40
1
 40
1
 10
334.194143
 20
326.949589
 30
0.0
 10
368.721350
 20
241.032867
 30
0.0
 10
452.015632
 20
184.737599
 30
0.0
 10
544.610509
 20
184.737599
 30
0.0
  0
SPLINE
  5
119
100
AcDbEntity
  8
AXES
 62
5
100
AcDbSpline
 70
8
 71
3
 72
8
 73
4
 74
0
 40
0
 40
0
 40
0
 40
0
 40
1
 40
1
 40
1
 40
1
 10
544.610509
 20
184.737599
 30
0.0
 10
637.205385
 20
184.737599
 30
0.0
 10
720.499668
 20
241.032867
 30
0.0
 10
755.026875
 20
326.949589
 30
0.0
  0
SPLINE
  5
11a
100
AcDbEntity
  8
AXES
 62
5
100
AcDbSpline
 70
8
 71
3
 72
8
 73
4
 74
0
 40
0
 40
0
 40
0
 40
0
 40
1
 40
1
 40
1
 40
1
 10
803.358278
 20
555.456223
 30
0.0
 10
802.135158
 20
557.460839
 30
0.0
 10
799.518562
 20
558.094366
 30
0.0
 10
797.513946
 20
556.871247
 30
0.0
  0
SPLINE
  5
11b
100
AcDbEntity
  8
AXES
 62
5
100
AcDbSpline
 70
8
 71
3
 72
8
 73
4
 74
0
 40
0
 40
0
 40
0
 40
0
 40
1
 40
1
 40
1
 40
1
 10
797.513946
 20
556.871247
 30
0.0
 10
795.509330
 20
555.648127
 30
0.0
 10
794.875802
 20
553.031530
 30
0.0
 10
796.098922
 20
551.026914
 30
0.0
  0
SPLINE
  5
11c
100
AcDbEntity
  8
AXES
 62
5
100
AcDbSpline
 70
8
 71
3
 72
8
 73
4
 74
0
 40
0
 40
0
 40
0
 40
0
 40
1
 40
1
 40
1
 40
1
 10
293.122050
 20
551.026901
 30
0.0
 10
293.913274
 20
552.323657
 30
0.0
 10
293.952585
 20
553.944023
 30
0.0
 10
293.225173
 20
555.277621
 30
0.0
  0
SPLINE
  5
11d
100
AcDbEntity
  8
AXES
 62
5
100
AcDbSpline
 70
8
 71
3
 72
8
 73
4
 74
0
 40
0
 40
0
 40
0
 40
0
 40
1
 40
1
 40
1
 40
1
 10
293.225173
 20
555.277621
 30
0.0
 10
292.497762
 20
556.611220
 30
0.0
 10
291.114139
 20
557.455446
 30
0.0
 10
289.595503
 20
557.492289
 30
0.0
  0
SPLINE
  5
11e
100
AcDbEntity
  8
AXES
 62
5
100
AcDbSpline
 70
8
 71
3
 72
8
 73
4
 74
0
 40
0
 40
0
 40
0
 40
0
 40
1
 40
1
 40
1
 40
1
 10
289.595503
 20
557.492289
 30
0.0
 10
288.076867
 20
557.529131
 30
0.0
 10
286.653935
 20
556.752992
 30
0.0
 10
285.862710
 20
555.456236
 30
0.0
  0
LWPOLYLINE
  5
11f
100
AcDbEntity
  8
AXES
 62
5
100
AcDbPolyline
 90
2
 70
0
 10
953.979750
 20
466.425026
 30
0.0
 10
889.044450
 20
572.849164
 30
0.0
  0
ENDSEC
  0
SECTION
  2
OBJECTS
  0
DICTIONARY
  5
C
330
0
100
AcDbDictionary
  3
ACAD_GROUP
350
D
  3
ACAD_MLINESTYLE
350
17
  0
DICTIONARY
  5
D
330
C
100
AcDbDictionary
  0
DICTIONARY
  5
1A
330
C
100
AcDbDictionary
  0
DICTIONARY
  5
17
330
C
100
AcDbDictionary
  3
STANDARD
350
18
  0
DICTIONARY
  5
19
330
C
100
AcDbDictionary
  0
ENDSEC
  0
EOF
